<svg xmlns="http://www.w3.org/2000/svg" xmlns:xlink="http://www.w3.org/1999/xlink" width="500" zoomAndPan="magnify" viewBox="0 0 375 374.999991" height="500" preserveAspectRatio="xMidYMid meet" version="1.0"><defs><g/><clipPath id="d448196a5c"><path d="M 37.5 37.5 L 337.5 37.5 L 337.5 337.5 L 37.5 337.5 Z M 37.5 37.5 " clip-rule="nonzero"/></clipPath><clipPath id="dd3738f27e"><path d="M 187.5 37.5 C 104.65625 37.5 37.5 104.65625 37.5 187.5 C 37.5 270.34375 104.65625 337.5 187.5 337.5 C 270.34375 337.5 337.5 270.34375 337.5 187.5 C 337.5 104.65625 270.34375 37.5 187.5 37.5 Z M 187.5 37.5 " clip-rule="nonzero"/></clipPath><clipPath id="50b0b28457"><path d="M 167 140.351562 L 205 140.351562 L 205 193 L 167 193 Z M 167 140.351562 " clip-rule="nonzero"/></clipPath><clipPath id="7798cdfd89"><path d="M 131.664062 173 L 219 173 L 219 234.851562 L 131.664062 234.851562 Z M 131.664062 173 " clip-rule="nonzero"/></clipPath><clipPath id="74fa0606a9"><path d="M 151 167 L 240 167 L 240 234.851562 L 151 234.851562 Z M 151 167 " clip-rule="nonzero"/></clipPath><clipPath id="9fcbafaf95"><path d="M 175 98.820312 L 197 98.820312 L 197 120 L 175 120 Z M 175 98.820312 " clip-rule="nonzero"/></clipPath><clipPath id="f257d891cd"><path d="M 146.375 111 L 160 111 L 160 125 L 146.375 125 Z M 146.375 111 " clip-rule="nonzero"/></clipPath><clipPath id="b7b684c8d7"><path d="M 212 111 L 225.875 111 L 225.875 125 L 212 125 Z M 212 111 " clip-rule="nonzero"/></clipPath></defs><g clip-path="url(#d448196a5c)"><g clip-path="url(#dd3738f27e)"><path fill="#000000" d="M 37.5 37.5 L 337.5 37.5 L 337.5 337.5 L 37.5 337.5 Z M 37.5 37.5 " fill-opacity="1" fill-rule="nonzero"/></g></g><g fill="#ebecf0" fill-opacity="1"><g transform="translate(88.682482, 154.682852)"><g><path d="M -16.3125 -17.609375 C -15.90625 -18.691406 -15.265625 -19.648438 -14.390625 -20.484375 C -13.515625 -21.328125 -12.539062 -21.9375 -11.46875 -22.3125 C -10.40625 -22.6875 -9.390625 -22.75 -8.421875 -22.5 L -8.328125 -22.46875 C -8.265625 -22.445312 -8.226562 -22.421875 -8.21875 -22.390625 C -8.21875 -22.359375 -8.226562 -22.316406 -8.25 -22.265625 L -8.59375 -21.015625 L -8.625 -20.953125 C -8.644531 -20.890625 -8.722656 -20.867188 -8.859375 -20.890625 C -10.222656 -21.054688 -11.457031 -20.804688 -12.5625 -20.140625 C -13.675781 -19.472656 -14.484375 -18.484375 -14.984375 -17.171875 C -15.785156 -15.046875 -15.632812 -13.144531 -14.53125 -11.46875 C -13.4375 -9.800781 -11.425781 -8.414062 -8.5 -7.3125 C -5.65625 -6.238281 -3.265625 -5.976562 -1.328125 -6.53125 C 0.597656 -7.09375 1.972656 -8.476562 2.796875 -10.6875 C 3.316406 -12.0625 3.414062 -13.316406 3.09375 -14.453125 C 2.78125 -15.585938 2.03125 -16.6875 0.84375 -17.75 C 0.78125 -17.78125 0.78125 -17.847656 0.84375 -17.953125 L 1.53125 -18.90625 C 1.59375 -18.96875 1.679688 -18.96875 1.796875 -18.90625 C 3.066406 -17.894531 3.921875 -16.585938 4.359375 -14.984375 C 4.804688 -13.390625 4.71875 -11.753906 4.09375 -10.078125 C 3.125 -7.492188 1.484375 -5.816406 -0.828125 -5.046875 C -3.140625 -4.273438 -5.898438 -4.492188 -9.109375 -5.703125 C -11.242188 -6.503906 -12.957031 -7.515625 -14.25 -8.734375 C -15.539062 -9.960938 -16.363281 -11.328125 -16.71875 -12.828125 C -17.082031 -14.335938 -16.945312 -15.929688 -16.3125 -17.609375 Z M -16.3125 -17.609375 "/></g></g></g><g fill="#ebecf0" fill-opacity="1"><g transform="translate(97.167185, 133.07379)"><g><path d="M -5.765625 -9.90625 C -5.796875 -9.851562 -5.800781 -9.796875 -5.78125 -9.734375 C -5.769531 -9.679688 -5.75 -9.648438 -5.71875 -9.640625 L 2.4375 -4.109375 C 2.59375 -4.003906 2.613281 -3.863281 2.5 -3.6875 L 1.921875 -2.828125 C 1.859375 -2.734375 1.796875 -2.679688 1.734375 -2.671875 C 1.679688 -2.671875 1.601562 -2.703125 1.5 -2.765625 L -15.515625 -14.296875 C -15.617188 -14.367188 -15.675781 -14.4375 -15.6875 -14.5 C -15.695312 -14.5625 -15.675781 -14.628906 -15.625 -14.703125 L -15.015625 -15.609375 C -14.960938 -15.691406 -14.90625 -15.738281 -14.84375 -15.75 C -14.789062 -15.757812 -14.710938 -15.726562 -14.609375 -15.65625 L -7.25 -10.671875 C -7.15625 -10.609375 -7.082031 -10.578125 -7.03125 -10.578125 C -6.976562 -10.585938 -6.921875 -10.640625 -6.859375 -10.734375 L -0.859375 -19.59375 C -0.804688 -19.664062 -0.785156 -19.726562 -0.796875 -19.78125 C -0.816406 -19.832031 -0.867188 -19.882812 -0.953125 -19.9375 L -8.34375 -24.9375 C -8.507812 -25.050781 -8.539062 -25.179688 -8.4375 -25.328125 L -7.8125 -26.25 C -7.757812 -26.320312 -7.703125 -26.363281 -7.640625 -26.375 C -7.585938 -26.382812 -7.507812 -26.351562 -7.40625 -26.28125 L 9.609375 -14.75 C 9.785156 -14.632812 9.820312 -14.5 9.71875 -14.34375 L 9.140625 -13.5 C 9.078125 -13.40625 9.015625 -13.347656 8.953125 -13.328125 C 8.890625 -13.304688 8.8125 -13.328125 8.71875 -13.390625 L 0.578125 -18.90625 C 0.460938 -18.988281 0.367188 -18.972656 0.296875 -18.859375 Z M -5.765625 -9.90625 "/></g></g></g><g fill="#ebecf0" fill-opacity="1"><g transform="translate(110.988039, 113.424262)"><g><path d="M 8.21875 -16.546875 C 9.789062 -14.816406 10.523438 -13.125 10.421875 -11.46875 C 10.316406 -9.8125 9.378906 -8.175781 7.609375 -6.5625 C 5.796875 -4.90625 4.050781 -4.128906 2.375 -4.234375 C 0.695312 -4.335938 -0.988281 -5.316406 -2.6875 -7.171875 L -11.9375 -17.328125 C -12.09375 -17.492188 -12.109375 -17.632812 -11.984375 -17.75 L -11.171875 -18.484375 C -11.085938 -18.566406 -11.007812 -18.609375 -10.9375 -18.609375 C -10.875 -18.609375 -10.800781 -18.5625 -10.71875 -18.46875 L -1.078125 -7.890625 C 1.367188 -5.203125 3.972656 -5.117188 6.734375 -7.640625 C 8.140625 -8.921875 8.882812 -10.21875 8.96875 -11.53125 C 9.050781 -12.84375 8.460938 -14.191406 7.203125 -15.578125 L -2.390625 -26.09375 C -2.523438 -26.238281 -2.53125 -26.367188 -2.40625 -26.484375 L -1.734375 -27.109375 C -1.617188 -27.210938 -1.492188 -27.191406 -1.359375 -27.046875 Z M 8.21875 -16.546875 "/></g></g></g><g fill="#ebecf0" fill-opacity="1"><g transform="translate(128.566103, 97.954253)"><g><path d="M 14.875 -8.78125 C 14.90625 -8.757812 14.9375 -8.722656 14.96875 -8.671875 C 15.007812 -8.609375 15.019531 -8.539062 15 -8.46875 C 14.988281 -8.394531 14.953125 -8.34375 14.890625 -8.3125 L 13.90625 -7.765625 C 13.820312 -7.710938 13.742188 -7.691406 13.671875 -7.703125 C 13.597656 -7.722656 13.523438 -7.765625 13.453125 -7.828125 L 5.375 -14.15625 C 5.289062 -14.21875 5.203125 -14.25 5.109375 -14.25 C 5.015625 -14.25 4.882812 -14.203125 4.71875 -14.109375 L -0.40625 -11.234375 C -0.613281 -11.128906 -0.671875 -10.984375 -0.578125 -10.796875 L 3.984375 -2.625 C 4.054688 -2.507812 4.085938 -2.421875 4.078125 -2.359375 C 4.066406 -2.296875 4.003906 -2.234375 3.890625 -2.171875 L 3.015625 -1.6875 C 2.910156 -1.625 2.828125 -1.601562 2.765625 -1.625 C 2.710938 -1.644531 2.660156 -1.695312 2.609375 -1.78125 L -7.421875 -19.765625 C -7.484375 -19.867188 -7.507812 -19.945312 -7.5 -20 C -7.488281 -20.050781 -7.4375 -20.109375 -7.34375 -20.171875 L -0.78125 -23.828125 C 1.070312 -24.859375 2.71875 -25.257812 4.15625 -25.03125 C 5.601562 -24.800781 6.75 -23.929688 7.59375 -22.421875 C 8.351562 -21.054688 8.582031 -19.78125 8.28125 -18.59375 C 7.988281 -17.414062 7.40625 -16.398438 6.53125 -15.546875 C 6.445312 -15.472656 6.445312 -15.382812 6.53125 -15.28125 Z M 3.171875 -14.78125 C 4.910156 -15.75 6.035156 -16.769531 6.546875 -17.84375 C 7.054688 -18.914062 6.945312 -20.109375 6.21875 -21.421875 C 4.863281 -23.847656 2.734375 -24.25 -0.171875 -22.625 L -5.203125 -19.8125 C -5.410156 -19.707031 -5.476562 -19.585938 -5.40625 -19.453125 L -1.515625 -12.5 C -1.421875 -12.332031 -1.304688 -12.285156 -1.171875 -12.359375 Z M 3.171875 -14.78125 "/></g></g></g><g fill="#ebecf0" fill-opacity="1"><g transform="translate(148.695202, 87.157891)"><g><path d="M 16.484375 -5.203125 C 16.492188 -5.171875 16.507812 -5.125 16.53125 -5.0625 C 16.550781 -5 16.546875 -4.929688 16.515625 -4.859375 C 16.492188 -4.796875 16.445312 -4.753906 16.375 -4.734375 L 15.296875 -4.421875 C 15.203125 -4.390625 15.125 -4.390625 15.0625 -4.421875 C 15 -4.453125 14.9375 -4.503906 14.875 -4.578125 L 8.4375 -12.578125 C 8.375 -12.648438 8.296875 -12.695312 8.203125 -12.71875 C 8.109375 -12.738281 7.960938 -12.722656 7.765625 -12.671875 L 2.125 -11.046875 C 1.90625 -10.984375 1.828125 -10.851562 1.890625 -10.65625 L 4.484375 -1.65625 C 4.523438 -1.53125 4.53125 -1.4375 4.5 -1.375 C 4.476562 -1.320312 4.40625 -1.273438 4.28125 -1.234375 L 3.3125 -0.953125 C 3.207031 -0.921875 3.125 -0.921875 3.0625 -0.953125 C 3.007812 -0.992188 2.96875 -1.054688 2.9375 -1.140625 L -2.78125 -20.921875 C -2.8125 -21.046875 -2.8125 -21.132812 -2.78125 -21.1875 C -2.757812 -21.238281 -2.695312 -21.28125 -2.59375 -21.3125 L 4.625 -23.390625 C 6.65625 -23.984375 8.347656 -24.003906 9.703125 -23.453125 C 11.066406 -22.898438 11.988281 -21.789062 12.46875 -20.125 C 12.90625 -18.625 12.84375 -17.332031 12.28125 -16.25 C 11.71875 -15.164062 10.914062 -14.304688 9.875 -13.671875 C 9.769531 -13.617188 9.753906 -13.53125 9.828125 -13.40625 Z M 6.421875 -13.671875 C 8.328125 -14.222656 9.65625 -14.960938 10.40625 -15.890625 C 11.15625 -16.828125 11.320312 -18.019531 10.90625 -19.46875 C 10.125 -22.132812 8.132812 -23.003906 4.9375 -22.078125 L -0.609375 -20.484375 C -0.828125 -20.421875 -0.910156 -20.316406 -0.859375 -20.171875 L 1.34375 -12.515625 C 1.394531 -12.328125 1.492188 -12.253906 1.640625 -12.296875 Z M 6.421875 -13.671875 "/></g></g></g><g fill="#ebecf0" fill-opacity="1"><g transform="translate(170.713045, 81.156187)"><g><path d="M 1.6875 -0.078125 C 1.476562 -0.0664062 1.394531 -0.171875 1.4375 -0.390625 L 7.9375 -21.265625 C 7.957031 -21.390625 8.003906 -21.476562 8.078125 -21.53125 C 8.148438 -21.59375 8.253906 -21.628906 8.390625 -21.640625 L 9.609375 -21.703125 C 9.910156 -21.710938 10.097656 -21.613281 10.171875 -21.40625 L 18.65625 -1.296875 L 18.6875 -1.1875 C 18.695312 -1.03125 18.613281 -0.945312 18.4375 -0.9375 L 17.453125 -0.890625 C 17.242188 -0.878906 17.109375 -0.953125 17.046875 -1.109375 L 14.5 -7.15625 C 14.445312 -7.289062 14.351562 -7.351562 14.21875 -7.34375 L 5.203125 -6.890625 C 5.078125 -6.878906 4.984375 -6.804688 4.921875 -6.671875 L 2.953125 -0.390625 C 2.941406 -0.234375 2.832031 -0.144531 2.625 -0.125 Z M 13.5625 -8.6875 C 13.769531 -8.695312 13.84375 -8.804688 13.78125 -9.015625 L 9.296875 -19.53125 C 9.222656 -19.71875 9.148438 -19.8125 9.078125 -19.8125 C 9.015625 -19.800781 8.941406 -19.691406 8.859375 -19.484375 L 5.4375 -8.53125 C 5.425781 -8.488281 5.421875 -8.441406 5.421875 -8.390625 C 5.421875 -8.316406 5.484375 -8.28125 5.609375 -8.28125 Z M 13.5625 -8.6875 "/></g></g></g><g fill="#ebecf0" fill-opacity="1"><g transform="translate(194.22819, 80.475494)"><g><path d="M 17.09375 -15.03125 C 16.050781 -16.78125 14.476562 -17.835938 12.375 -18.203125 C 10.84375 -18.472656 9.5625 -18.328125 8.53125 -17.765625 C 7.507812 -17.203125 6.882812 -16.265625 6.65625 -14.953125 C 6.363281 -13.253906 7.253906 -11.828125 9.328125 -10.671875 L 13.015625 -8.5625 C 14.546875 -7.707031 15.59375 -6.785156 16.15625 -5.796875 C 16.726562 -4.804688 16.90625 -3.691406 16.6875 -2.453125 C 16.382812 -0.722656 15.523438 0.507812 14.109375 1.25 C 12.691406 2 10.898438 2.1875 8.734375 1.8125 C 7.140625 1.53125 5.800781 1 4.71875 0.21875 C 3.644531 -0.550781 2.8125 -1.59375 2.21875 -2.90625 C 2.164062 -3.019531 2.144531 -3.109375 2.15625 -3.171875 C 2.175781 -3.285156 2.285156 -3.378906 2.484375 -3.453125 L 3.03125 -3.703125 C 3.15625 -3.773438 3.269531 -3.804688 3.375 -3.796875 C 3.445312 -3.773438 3.523438 -3.710938 3.609375 -3.609375 C 4.253906 -2.398438 4.953125 -1.484375 5.703125 -0.859375 C 6.453125 -0.242188 7.53125 0.179688 8.9375 0.421875 C 10.632812 0.722656 12.015625 0.640625 13.078125 0.171875 C 14.148438 -0.296875 14.8125 -1.226562 15.0625 -2.625 C 15.207031 -3.488281 15.082031 -4.257812 14.6875 -4.9375 C 14.300781 -5.613281 13.453125 -6.332031 12.140625 -7.09375 L 8.15625 -9.453125 C 6.820312 -10.210938 5.925781 -11.085938 5.46875 -12.078125 C 5.019531 -13.078125 4.882812 -14.097656 5.0625 -15.140625 C 5.363281 -16.890625 6.207031 -18.15625 7.59375 -18.9375 C 8.976562 -19.71875 10.675781 -19.9375 12.6875 -19.59375 C 15.164062 -19.15625 17.070312 -17.882812 18.40625 -15.78125 C 18.476562 -15.675781 18.507812 -15.585938 18.5 -15.515625 C 18.488281 -15.472656 18.429688 -15.421875 18.328125 -15.359375 L 17.46875 -14.828125 C 17.40625 -14.785156 17.351562 -14.769531 17.3125 -14.78125 C 17.25 -14.789062 17.175781 -14.875 17.09375 -15.03125 Z M 17.09375 -15.03125 "/></g></g></g><g fill="#ebecf0" fill-opacity="1"><g transform="translate(215.057118, 84.362542)"><g><path d="M 18.15625 -15.703125 C 19.226562 -15.265625 20.171875 -14.585938 20.984375 -13.671875 C 21.796875 -12.765625 22.363281 -11.773438 22.6875 -10.703125 C 23.019531 -9.628906 23.050781 -8.609375 22.78125 -7.640625 L 22.734375 -7.546875 C 22.710938 -7.484375 22.6875 -7.453125 22.65625 -7.453125 C 22.625 -7.453125 22.578125 -7.46875 22.515625 -7.5 L 21.28125 -7.859375 L 21.234375 -7.890625 C 21.160156 -7.910156 21.140625 -7.988281 21.171875 -8.125 C 21.398438 -9.476562 21.195312 -10.722656 20.5625 -11.859375 C 19.9375 -13.003906 18.972656 -13.847656 17.671875 -14.390625 C 15.578125 -15.253906 13.675781 -15.164062 11.96875 -14.125 C 10.257812 -13.082031 8.804688 -11.117188 7.609375 -8.234375 C 6.441406 -5.429688 6.097656 -3.054688 6.578125 -1.109375 C 7.066406 0.835938 8.398438 2.265625 10.578125 3.171875 C 11.929688 3.734375 13.179688 3.875 14.328125 3.59375 C 15.472656 3.320312 16.597656 2.609375 17.703125 1.453125 C 17.742188 1.390625 17.8125 1.390625 17.90625 1.453125 L 18.84375 2.1875 C 18.90625 2.238281 18.898438 2.320312 18.828125 2.4375 C 17.773438 3.675781 16.441406 4.488281 14.828125 4.875 C 13.210938 5.269531 11.582031 5.125 9.9375 4.4375 C 7.382812 3.375 5.757812 1.675781 5.0625 -0.65625 C 4.375 -2.988281 4.691406 -5.734375 6.015625 -8.890625 C 6.890625 -11.003906 7.957031 -12.6875 9.21875 -13.9375 C 10.488281 -15.1875 11.882812 -15.960938 13.40625 -16.265625 C 14.925781 -16.578125 16.507812 -16.390625 18.15625 -15.703125 Z M 18.15625 -15.703125 "/></g></g></g><g fill="#ebecf0" fill-opacity="1"><g transform="translate(236.361342, 93.626216)"><g><path d="M 1.359375 0.984375 C 1.191406 0.867188 1.191406 0.742188 1.359375 0.609375 L 19.5 -11.59375 C 19.601562 -11.675781 19.703125 -11.71875 19.796875 -11.71875 C 19.890625 -11.71875 19.992188 -11.675781 20.109375 -11.59375 L 21.09375 -10.875 C 21.332031 -10.695312 21.421875 -10.507812 21.359375 -10.3125 L 15.34375 10.6875 L 15.3125 10.796875 C 15.21875 10.921875 15.097656 10.929688 14.953125 10.828125 L 14.140625 10.25 C 13.972656 10.125 13.914062 9.976562 13.96875 9.8125 L 15.78125 3.5 C 15.820312 3.363281 15.789062 3.257812 15.6875 3.1875 L 8.375 -2.109375 C 8.269531 -2.179688 8.148438 -2.1875 8.015625 -2.125 L 2.546875 1.546875 C 2.429688 1.660156 2.289062 1.660156 2.125 1.546875 Z M 16.015625 1.71875 C 16.179688 1.84375 16.304688 1.804688 16.390625 1.609375 L 19.5 -9.390625 C 19.5625 -9.585938 19.5625 -9.707031 19.5 -9.75 C 19.457031 -9.78125 19.332031 -9.738281 19.125 -9.625 L 9.59375 -3.25 C 9.539062 -3.21875 9.5 -3.179688 9.46875 -3.140625 C 9.425781 -3.085938 9.457031 -3.023438 9.5625 -2.953125 Z M 16.015625 1.71875 "/></g></g></g><g fill="#ebecf0" fill-opacity="1"><g transform="translate(255.119226, 107.732747)"><g><path d="M 11.609375 12.78125 C 11.597656 12.8125 11.570312 12.847656 11.53125 12.890625 C 11.46875 12.941406 11.398438 12.96875 11.328125 12.96875 C 11.253906 12.96875 11.195312 12.941406 11.15625 12.890625 L 10.421875 12.046875 C 10.359375 11.972656 10.328125 11.894531 10.328125 11.8125 C 10.328125 11.738281 10.351562 11.660156 10.40625 11.578125 L 14.9375 2.390625 C 14.988281 2.296875 15.003906 2.203125 14.984375 2.109375 C 14.960938 2.023438 14.890625 1.910156 14.765625 1.765625 L 10.921875 -2.6875 C 10.773438 -2.851562 10.625 -2.867188 10.46875 -2.734375 L 3.390625 3.390625 C 3.285156 3.472656 3.203125 3.515625 3.140625 3.515625 C 3.078125 3.515625 3 3.46875 2.90625 3.375 L 2.265625 2.609375 C 2.179688 2.523438 2.144531 2.445312 2.15625 2.375 C 2.164062 2.3125 2.207031 2.25 2.28125 2.1875 L 17.84375 -11.28125 C 17.9375 -11.363281 18.007812 -11.40625 18.0625 -11.40625 C 18.113281 -11.40625 18.175781 -11.359375 18.25 -11.265625 L 23.171875 -5.59375 C 24.554688 -3.988281 25.28125 -2.453125 25.34375 -0.984375 C 25.414062 0.472656 24.796875 1.765625 23.484375 2.890625 C 22.304688 3.910156 21.109375 4.394531 19.890625 4.34375 C 18.671875 4.289062 17.554688 3.925781 16.546875 3.25 C 16.453125 3.164062 16.367188 3.1875 16.296875 3.3125 Z M 15.109375 0.09375 C 16.410156 1.601562 17.640625 2.5 18.796875 2.78125 C 19.960938 3.070312 21.109375 2.726562 22.234375 1.75 C 24.335938 -0.0703125 24.296875 -2.242188 22.109375 -4.765625 L 18.34375 -9.125 C 18.195312 -9.289062 18.066406 -9.320312 17.953125 -9.21875 L 11.921875 -4 C 11.785156 -3.882812 11.765625 -3.769531 11.859375 -3.65625 Z M 15.109375 0.09375 "/></g></g></g><g fill="#ebecf0" fill-opacity="1"><g transform="translate(269.693601, 125.850195)"><g><path d="M 20.5 -6.984375 C 20.550781 -6.898438 20.566406 -6.832031 20.546875 -6.78125 C 20.523438 -6.726562 20.460938 -6.671875 20.359375 -6.609375 L 2.765625 3.90625 C 2.628906 3.976562 2.53125 4.003906 2.46875 3.984375 C 2.40625 3.972656 2.332031 3.898438 2.25 3.765625 L 1.78125 2.984375 C 1.71875 2.867188 1.6875 2.78125 1.6875 2.71875 C 1.695312 2.664062 1.757812 2.609375 1.875 2.546875 L 19.53125 -8 C 19.632812 -8.0625 19.71875 -8.082031 19.78125 -8.0625 C 19.84375 -8.050781 19.894531 -8.003906 19.9375 -7.921875 Z M 20.5 -6.984375 "/></g></g></g><g fill="#ebecf0" fill-opacity="1"><g transform="translate(275.892978, 135.827987)"><g><path d="M 0.59375 1.578125 C 0.519531 1.378906 0.59375 1.269531 0.8125 1.25 L 22.671875 1.0625 C 22.796875 1.050781 22.898438 1.070312 22.984375 1.125 C 23.066406 1.175781 23.128906 1.265625 23.171875 1.390625 L 23.609375 2.53125 C 23.710938 2.8125 23.675781 3.019531 23.5 3.15625 L 6.921875 17.375 L 6.828125 17.453125 C 6.679688 17.503906 6.578125 17.445312 6.515625 17.28125 L 6.171875 16.34375 C 6.097656 16.144531 6.128906 15.992188 6.265625 15.890625 L 11.25 11.625 C 11.363281 11.519531 11.394531 11.40625 11.34375 11.28125 L 8.15625 2.828125 C 8.113281 2.710938 8.019531 2.648438 7.875 2.640625 L 1.265625 2.703125 C 1.109375 2.734375 0.992188 2.648438 0.921875 2.453125 Z M 12.421875 10.25 C 12.492188 10.445312 12.617188 10.484375 12.796875 10.359375 L 21.453125 2.90625 C 21.597656 2.769531 21.660156 2.664062 21.640625 2.59375 C 21.617188 2.539062 21.492188 2.503906 21.265625 2.484375 L 9.78125 2.578125 C 9.738281 2.566406 9.695312 2.570312 9.65625 2.59375 C 9.582031 2.613281 9.566406 2.679688 9.609375 2.796875 Z M 12.421875 10.25 "/></g></g></g><g clip-path="url(#50b0b28457)"><path fill="#ff4900" d="M 203.226562 183.011719 C 203.117188 183.257812 203 183.503906 202.875 183.746094 C 201.949219 185.546875 200.511719 187.363281 198.34375 189.039062 C 196.988281 190.089844 195.507812 190.949219 193.941406 191.609375 C 196.859375 188.929688 196.898438 185.140625 196.898438 185.140625 C 196.898438 185.140625 196.273438 188.109375 194.582031 188.085938 C 192.890625 188.0625 193.890625 186.5625 193.890625 186.5625 C 199.214844 180.605469 194.40625 176.578125 194.304688 176.496094 C 196.113281 179.488281 194.789062 183.050781 192.210938 182.449219 C 189.632812 181.847656 190.695312 177.320312 190.757812 172.980469 C 190.820312 168.644531 187.832031 167.207031 187.832031 167.207031 C 188.855469 168.957031 188.664062 170.882812 188.292969 172.242188 C 188.007812 173.28125 186.652344 173.566406 186.003906 172.707031 C 184.667969 170.929688 184.84375 168.328125 185.960938 165.796875 C 187.375 162.597656 186.289062 160.371094 186.238281 160.277344 C 186.253906 160.375 186.566406 162.472656 183.121094 164.9375 C 179.59375 167.457031 179.785156 171.667969 180.699219 173.660156 C 181.613281 175.652344 181.203125 180.5 177.621094 178.890625 C 174.101562 177.308594 176.308594 171.992188 176.386719 171.804688 C 169.195312 185.621094 174.875 190.914062 179.5625 192.917969 C 174.398438 191.90625 163.386719 187.363281 168.640625 166.964844 C 168.640625 166.964844 168.75 173.496094 172.402344 174.273438 C 176.058594 175.046875 168.789062 156.890625 176.683594 153.566406 C 176.625 153.671875 173.691406 159.121094 177.347656 161.242188 C 181.039062 163.382812 176.613281 147 186.871094 140.355469 C 186.769531 140.5 182.40625 146.890625 185.765625 150.6875 C 189.160156 154.527344 190.046875 155.925781 191.816406 160.652344 C 193.589844 165.378906 194.546875 160.578125 194.03125 157.625 C 193.523438 154.714844 195.953125 151.804688 196.023438 151.722656 C 195.976562 151.875 194.316406 157.472656 198.757812 162.351562 C 199.746094 163.4375 200.328125 164.792969 200.277344 166.277344 C 200.230469 167.65625 199.730469 168.972656 199.214844 170.230469 C 198.660156 171.585938 198.011719 172.929688 197.777344 174.386719 C 197.597656 175.472656 197.570312 177.0625 198.554688 177.804688 C 199.335938 178.390625 200.355469 178.1875 201.113281 177.667969 C 202.042969 177.03125 202.671875 176.015625 202.992188 174.933594 C 203.316406 173.855469 203.347656 172.707031 203.261719 171.582031 C 204.734375 175.195312 204.808594 179.421875 203.226562 183.011719 " fill-opacity="1" fill-rule="nonzero"/></g><g clip-path="url(#7798cdfd89)"><path fill="#ff4900" d="M 216.835938 231.617188 C 216.378906 232.316406 215.617188 232.695312 214.839844 232.695312 C 214.390625 232.695312 213.933594 232.566406 213.53125 232.304688 C 212.429688 231.578125 212.125 230.097656 212.847656 228.996094 C 213.308594 228.300781 214.070312 227.921875 214.84375 227.921875 C 215.292969 227.921875 215.75 228.046875 216.152344 228.3125 C 217.253906 229.035156 217.5625 230.515625 216.835938 231.617188 Z M 216.78125 227.054688 L 195.660156 214.488281 C 195.203125 214.1875 194.691406 214.042969 194.1875 214.042969 C 194.003906 214.042969 193.820312 214.0625 193.640625 214.101562 C 193.339844 214.164062 193.054688 214.277344 192.792969 214.4375 L 186.972656 210.613281 L 184.886719 209.242188 L 170.703125 199.921875 C 169.941406 199.417969 169.296875 198.757812 168.8125 197.984375 L 167.890625 196.515625 C 166.96875 195.039062 166.542969 193.320312 166.566406 191.582031 C 166.585938 190.015625 165.832031 188.472656 164.425781 187.546875 L 137.738281 173.011719 L 140.078125 175.964844 L 156.246094 186.59375 C 158.285156 187.933594 158.894531 190.71875 157.519531 192.730469 C 156.675781 193.957031 155.316406 194.621094 153.929688 194.621094 C 153.109375 194.621094 152.28125 194.390625 151.542969 193.90625 L 135.300781 183.230469 L 131.664062 182.253906 L 155.59375 200.988281 C 156.394531 201.515625 157.300781 201.769531 158.195312 201.769531 C 158.878906 201.769531 159.554688 201.621094 160.171875 201.339844 C 161.378906 200.789062 162.679688 200.484375 163.988281 200.484375 C 164.410156 200.484375 164.828125 200.515625 165.246094 200.578125 L 166.832031 200.816406 C 167.734375 200.957031 168.59375 201.289062 169.359375 201.789062 L 182.816406 210.632812 L 184.898438 212.003906 L 191.527344 216.359375 C 191.390625 217.355469 191.816406 218.386719 192.710938 218.976562 L 212.625 233.378906 C 213.296875 233.867188 214.074219 234.101562 214.839844 234.101562 C 216.074219 234.101562 217.28125 233.503906 218.011719 232.390625 C 219.199219 230.585938 218.640625 228.15625 216.78125 227.054688 " fill-opacity="1" fill-rule="nonzero"/></g><g clip-path="url(#74fa0606a9)"><path fill="#ff4900" d="M 233.21875 190.628906 C 233.113281 190.699219 233.003906 190.761719 232.886719 190.816406 L 220.957031 196.449219 C 220.152344 196.828125 219.230469 196.578125 218.867188 195.878906 C 218.507812 195.179688 218.832031 194.285156 219.605469 193.84375 L 231.082031 187.335938 C 232.183594 186.714844 233.527344 187.019531 234.039062 188.007812 C 234.5 188.898438 234.125 190.019531 233.21875 190.628906 Z M 215.078125 190.335938 C 214.640625 189.683594 214.859375 188.753906 215.582031 188.230469 L 226.246094 180.46875 C 227.269531 179.726562 228.640625 179.878906 229.265625 180.800781 C 229.871094 181.707031 229.523438 182.988281 228.515625 183.667969 C 228.488281 183.6875 228.460938 183.703125 228.433594 183.71875 L 217.21875 190.667969 C 216.460938 191.136719 215.515625 190.988281 215.078125 190.335938 Z M 211.378906 184.734375 C 210.867188 184.132812 210.984375 183.1875 211.640625 182.585938 L 221.359375 173.667969 C 221.457031 173.578125 221.554688 173.5 221.660156 173.429688 C 222.566406 172.820312 223.746094 172.894531 224.394531 173.65625 C 225.117188 174.507812 224.894531 175.867188 223.902344 176.648438 L 213.539062 184.820312 C 212.839844 185.371094 211.886719 185.332031 211.378906 184.734375 Z M 238.964844 186.242188 L 227.890625 169.765625 C 226.492188 167.691406 223.628906 167.234375 221.660156 168.773438 L 210 177.890625 C 207.542969 179.816406 206.308594 182.917969 206.777344 186.007812 L 207.949219 193.742188 L 185.808594 208.621094 L 187.894531 209.992188 L 209.234375 195.652344 L 215.953125 199.660156 C 218.636719 201.261719 221.972656 201.289062 224.683594 199.738281 L 237.527344 192.386719 C 239.699219 191.144531 240.359375 188.320312 238.964844 186.242188 Z M 156.9375 232.289062 C 155.84375 233.023438 154.359375 232.734375 153.625 231.640625 C 152.886719 230.542969 153.179688 229.0625 154.273438 228.328125 C 155.367188 227.589844 156.851562 227.882812 157.585938 228.976562 C 158.320312 230.070312 158.03125 231.554688 156.9375 232.289062 Z M 183.980469 212.625 L 181.894531 211.253906 L 177.492188 214.210938 C 176.628906 213.699219 175.511719 213.691406 174.625 214.289062 L 153.628906 227.070312 C 151.785156 228.195312 151.25 230.632812 152.457031 232.421875 C 153.660156 234.214844 156.117188 234.640625 157.855469 233.355469 L 177.621094 218.746094 C 178.234375 218.332031 178.625 217.710938 178.757812 217.035156 C 178.816406 216.734375 178.820312 216.425781 178.777344 216.121094 L 183.980469 212.625 " fill-opacity="1" fill-rule="nonzero"/></g><g clip-path="url(#9fcbafaf95)"><path fill="#ffffff" d="M 196.621094 106.746094 L 196.632812 106.738281 L 189.25 105.566406 L 186.035156 98.835938 L 186.023438 98.820312 L 182.625 105.484375 L 175.226562 106.457031 L 175.214844 106.464844 L 180.503906 111.75 L 179.140625 119.101562 L 185.804688 115.710938 L 192.367188 119.269531 L 192.375 119.28125 L 191.210938 111.890625 Z M 196.621094 106.746094 " fill-opacity="1" fill-rule="nonzero"/></g><path fill="#ffffff" d="M 168.242188 105.660156 L 168.234375 105.648438 L 165.527344 110.957031 L 159.632812 111.738281 L 159.617188 111.738281 L 163.832031 115.953125 L 162.75 121.816406 L 168.058594 119.113281 L 173.289062 121.945312 L 173.300781 121.953125 L 172.367188 116.0625 L 176.679688 111.972656 L 176.691406 111.960938 L 170.804688 111.023438 Z M 168.242188 105.660156 " fill-opacity="1" fill-rule="nonzero"/><path fill="#ffffff" d="M 212.640625 111.972656 L 212.648438 111.960938 L 206.761719 111.023438 L 204.199219 105.660156 L 204.195312 105.648438 L 201.484375 110.957031 L 195.578125 111.738281 L 199.792969 115.953125 L 198.710938 121.800781 L 198.710938 121.816406 L 204.019531 119.113281 L 209.246094 121.945312 L 209.257812 121.953125 L 208.324219 116.0625 Z M 212.640625 111.972656 " fill-opacity="1" fill-rule="nonzero"/><g clip-path="url(#f257d891cd)"><path fill="#ffffff" d="M 153.25 111.898438 L 151.089844 116.132812 L 146.386719 116.753906 L 149.742188 120.109375 L 148.878906 124.773438 L 153.109375 122.621094 L 157.269531 124.871094 L 157.277344 124.882812 L 156.539062 120.195312 L 159.964844 116.9375 L 159.976562 116.929688 L 155.289062 116.183594 Z M 153.25 111.898438 " fill-opacity="1" fill-rule="nonzero"/></g><g clip-path="url(#b7b684c8d7)"><path fill="#ffffff" d="M 225.636719 116.492188 L 220.949219 115.746094 L 218.90625 111.464844 L 216.75 115.695312 L 212.042969 116.316406 L 215.398438 119.671875 L 214.539062 124.324219 L 214.539062 124.339844 L 218.765625 122.183594 L 222.921875 124.441406 L 222.9375 124.449219 L 222.195312 119.761719 L 225.625 116.503906 Z M 225.636719 116.492188 " fill-opacity="1" fill-rule="nonzero"/></g><g fill="#ebecf0" fill-opacity="1"><g transform="translate(71.990124, 229.953012)"><g><path d="M 24.984375 -9.25 C 25.210938 -9.351562 25.410156 -9.382812 25.578125 -9.34375 C 25.742188 -9.300781 25.867188 -9.1875 25.953125 -9 L 34.03125 8.1875 C 34.195312 8.550781 34.066406 8.832031 33.640625 9.03125 L 30.171875 10.609375 C 29.628906 10.859375 29.242188 10.742188 29.015625 10.265625 L 24.265625 0.15625 C 24.148438 -0.09375 24.023438 -0.25 23.890625 -0.3125 C 23.753906 -0.382812 23.570312 -0.367188 23.34375 -0.265625 L 19.265625 1.640625 C 18.859375 1.835938 18.742188 2.117188 18.921875 2.484375 L 22.03125 9.109375 C 22.226562 9.523438 22.125 9.828125 21.71875 10.015625 L 18.078125 11.734375 C 17.742188 11.878906 17.488281 11.765625 17.3125 11.390625 L 14.140625 4.65625 C 13.984375 4.320312 13.75 4.234375 13.4375 4.390625 L 4.96875 8.359375 C 4.65625 8.503906 4.394531 8.53125 4.1875 8.4375 C 3.988281 8.34375 3.804688 8.117188 3.640625 7.765625 L 1.328125 2.828125 C 1.179688 2.515625 1.144531 2.273438 1.21875 2.109375 C 1.289062 1.941406 1.457031 1.796875 1.71875 1.671875 Z M 24.984375 -9.25 "/></g></g></g><g fill="#ebecf0" fill-opacity="1"><g transform="translate(89.803903, 263.31327)"><g><path d="M 1.15625 1.1875 C 1.019531 1.039062 0.957031 0.882812 0.96875 0.71875 C 0.976562 0.550781 1.0625 0.394531 1.21875 0.25 C 1.34375 0.125 1.492188 0.0234375 1.671875 -0.046875 L 26.109375 -11.265625 C 26.398438 -11.410156 26.632812 -11.460938 26.8125 -11.421875 C 27 -11.390625 27.195312 -11.269531 27.40625 -11.0625 L 31.875 -6.484375 C 32.289062 -6.054688 32.363281 -5.539062 32.09375 -4.9375 L 20.28125 19.109375 C 20.238281 19.179688 20.15625 19.28125 20.03125 19.40625 C 19.875 19.550781 19.710938 19.644531 19.546875 19.6875 C 19.390625 19.726562 19.25 19.6875 19.125 19.5625 L 14.671875 15 C 14.398438 14.726562 14.359375 14.40625 14.546875 14.03125 L 16.84375 9.546875 C 16.894531 9.390625 16.921875 9.265625 16.921875 9.171875 C 16.921875 9.078125 16.863281 8.972656 16.75 8.859375 L 10.90625 2.875 C 10.71875 2.6875 10.5 2.664062 10.25 2.8125 L 5.578125 4.953125 C 5.234375 5.109375 4.914062 5.035156 4.625 4.734375 Z M 19.59375 3.765625 C 19.757812 3.941406 19.929688 3.941406 20.109375 3.765625 C 20.210938 3.671875 20.285156 3.585938 20.328125 3.515625 L 23.765625 -3.5625 C 23.859375 -3.675781 23.859375 -3.773438 23.765625 -3.859375 C 23.703125 -3.929688 23.597656 -3.9375 23.453125 -3.875 L 16.28125 -0.609375 C 16.175781 -0.585938 16.070312 -0.523438 15.96875 -0.421875 C 15.8125 -0.265625 15.835938 -0.078125 16.046875 0.140625 Z M 19.59375 3.765625 "/></g></g></g><g fill="#ebecf0" fill-opacity="1"><g transform="translate(121.902412, 292.27906)"><g><path d="M 26.84375 1.296875 C 25.164062 4.785156 23.078125 6.859375 20.578125 7.515625 C 18.085938 8.171875 15.179688 7.703125 11.859375 6.109375 C 8.171875 4.335938 5.945312 2.210938 5.1875 -0.265625 C 4.425781 -2.742188 4.890625 -5.742188 6.578125 -9.265625 L 13.21875 -23.109375 C 13.445312 -23.578125 13.757812 -23.71875 14.15625 -23.53125 L 19.703125 -20.859375 C 20.078125 -20.679688 20.164062 -20.378906 19.96875 -19.953125 L 12.90625 -5.25 C 12.082031 -3.539062 11.828125 -2.128906 12.140625 -1.015625 C 12.460938 0.0859375 13.289062 0.960938 14.625 1.609375 C 17.457031 2.960938 19.675781 1.976562 21.28125 -1.34375 L 28.25 -15.890625 C 28.476562 -16.359375 28.789062 -16.492188 29.1875 -16.296875 L 33.609375 -14.1875 C 33.960938 -14.007812 34.039062 -13.707031 33.84375 -13.28125 Z M 26.84375 1.296875 "/></g></g></g><g fill="#ebecf0" fill-opacity="1"><g transform="translate(159.666477, 307.680156)"><g><path d="M 20.453125 -18.203125 C 19.921875 -18.941406 19.300781 -19.539062 18.59375 -20 C 17.894531 -20.46875 16.894531 -20.773438 15.59375 -20.921875 C 14.226562 -21.078125 13.171875 -20.96875 12.421875 -20.59375 C 11.679688 -20.226562 11.273438 -19.707031 11.203125 -19.03125 C 11.148438 -18.5625 11.296875 -18.097656 11.640625 -17.640625 C 11.984375 -17.179688 12.625 -16.769531 13.5625 -16.40625 L 19.3125 -14.109375 C 21.425781 -13.285156 22.957031 -12.125 23.90625 -10.625 C 24.851562 -9.132812 25.21875 -7.4375 25 -5.53125 C 24.800781 -3.78125 24.164062 -2.300781 23.09375 -1.09375 C 22.03125 0.101562 20.601562 0.957031 18.8125 1.46875 C 17.019531 1.976562 14.976562 2.101562 12.6875 1.84375 C 10.09375 1.539062 7.789062 0.835938 5.78125 -0.265625 C 3.78125 -1.378906 2.425781 -2.71875 1.71875 -4.28125 C 1.625 -4.539062 1.585938 -4.734375 1.609375 -4.859375 C 1.628906 -5.046875 1.78125 -5.222656 2.0625 -5.390625 L 5.625 -7.28125 C 5.914062 -7.425781 6.160156 -7.488281 6.359375 -7.46875 C 6.597656 -7.4375 6.773438 -7.316406 6.890625 -7.109375 C 7.640625 -5.878906 8.429688 -4.976562 9.265625 -4.40625 C 10.109375 -3.84375 11.265625 -3.476562 12.734375 -3.3125 C 14.222656 -3.144531 15.425781 -3.226562 16.34375 -3.5625 C 17.257812 -3.90625 17.765625 -4.492188 17.859375 -5.328125 C 17.984375 -6.441406 17.1875 -7.347656 15.46875 -8.046875 L 10.0625 -10.140625 C 7.976562 -10.953125 6.410156 -12.140625 5.359375 -13.703125 C 4.304688 -15.273438 3.890625 -16.988281 4.109375 -18.84375 C 4.285156 -20.425781 4.894531 -21.804688 5.9375 -22.984375 C 6.988281 -24.160156 8.378906 -25.023438 10.109375 -25.578125 C 11.847656 -26.128906 13.804688 -26.28125 15.984375 -26.03125 C 18.078125 -25.78125 19.984375 -25.203125 21.703125 -24.296875 C 23.421875 -23.390625 24.648438 -22.300781 25.390625 -21.03125 C 25.535156 -20.707031 25.601562 -20.488281 25.59375 -20.375 C 25.570312 -20.25 25.46875 -20.125 25.28125 -20 L 21.390625 -17.8125 C 21.285156 -17.726562 21.171875 -17.695312 21.046875 -17.71875 C 20.898438 -17.726562 20.703125 -17.890625 20.453125 -18.203125 Z M 20.453125 -18.203125 "/></g></g></g><g fill="#ebecf0" fill-opacity="1"><g transform="translate(199.078031, 309.900948)"><g><path d="M -4.5 -26.1875 C -4.550781 -26.40625 -4.523438 -26.597656 -4.421875 -26.765625 C -4.316406 -26.941406 -4.132812 -27.054688 -3.875 -27.109375 L 17.25 -31.6875 C 17.507812 -31.738281 17.722656 -31.707031 17.890625 -31.59375 C 18.054688 -31.488281 18.164062 -31.328125 18.21875 -31.109375 L 19.03125 -27.296875 C 19.125 -26.878906 18.929688 -26.617188 18.453125 -26.515625 L 11.890625 -25.09375 C 11.628906 -25.039062 11.523438 -24.898438 11.578125 -24.671875 L 16 -4.21875 C 16.101562 -3.738281 15.941406 -3.453125 15.515625 -3.359375 L 9.46875 -2.046875 C 9.0625 -1.960938 8.804688 -2.148438 8.703125 -2.609375 L 4.3125 -22.9375 C 4.269531 -23.125 4.210938 -23.242188 4.140625 -23.296875 C 4.078125 -23.359375 3.972656 -23.378906 3.828125 -23.359375 L -2.78125 -21.921875 C -3.289062 -21.804688 -3.59375 -21.957031 -3.6875 -22.375 Z M -4.5 -26.1875 "/></g></g></g><g fill="#ebecf0" fill-opacity="1"><g transform="translate(236.243171, 299.149198)"><g><path d="M -4.53125 -28.4375 C -4.164062 -28.625 -3.875 -28.507812 -3.65625 -28.09375 L 8.140625 -5.34375 C 8.304688 -5.007812 8.347656 -4.738281 8.265625 -4.53125 C 8.179688 -4.320312 7.960938 -4.128906 7.609375 -3.953125 L 2.78125 -1.4375 C 2.46875 -1.28125 2.226562 -1.234375 2.0625 -1.296875 C 1.894531 -1.359375 1.742188 -1.519531 1.609375 -1.78125 L -10.21875 -24.59375 C -10.332031 -24.820312 -10.375 -25.019531 -10.34375 -25.1875 C -10.3125 -25.363281 -10.207031 -25.5 -10.03125 -25.59375 Z M -4.53125 -28.4375 "/></g></g></g><g fill="#ebecf0" fill-opacity="1"><g transform="translate(258.434391, 286.793024)"><g><path d="M -0.34375 -37.1875 C -0.0703125 -37.4375 0.195312 -37.414062 0.46875 -37.125 L 18.359375 -18.109375 C 18.492188 -17.960938 18.546875 -17.800781 18.515625 -17.625 C 18.484375 -17.445312 18.382812 -17.28125 18.21875 -17.125 L 14.96875 -14.078125 C 14.820312 -13.941406 14.675781 -13.847656 14.53125 -13.796875 C 14.394531 -13.753906 14.1875 -13.753906 13.90625 -13.796875 L -4.328125 -17.28125 C -4.492188 -17.320312 -4.597656 -17.3125 -4.640625 -17.25 C -4.679688 -17.1875 -4.65625 -17.101562 -4.5625 -17 L 5.5625 -6.234375 L 5.640625 -6.15625 C 5.785156 -6 5.847656 -5.84375 5.828125 -5.6875 C 5.804688 -5.53125 5.6875 -5.351562 5.46875 -5.15625 L 2.234375 -2.09375 C 1.835938 -1.726562 1.476562 -1.71875 1.15625 -2.0625 L -16.546875 -20.890625 C -16.734375 -21.085938 -16.828125 -21.265625 -16.828125 -21.421875 C -16.835938 -21.585938 -16.742188 -21.765625 -16.546875 -21.953125 L -12.703125 -25.5625 C -12.492188 -25.757812 -12.316406 -25.878906 -12.171875 -25.921875 C -12.023438 -25.960938 -11.789062 -25.957031 -11.46875 -25.90625 L 5.125 -22.546875 C 5.363281 -22.515625 5.523438 -22.539062 5.609375 -22.625 C 5.703125 -22.707031 5.648438 -22.859375 5.453125 -23.078125 L -3.828125 -32.9375 C -4.148438 -33.28125 -4.132812 -33.625 -3.78125 -33.96875 Z M -0.34375 -37.1875 "/></g></g></g><g fill="#ebecf0" fill-opacity="1"><g transform="translate(287.55489, 255.959671)"><g><path d="M 6.71875 -12.65625 C 5.539062 -10.300781 4.007812 -8.503906 2.125 -7.265625 C 0.25 -6.023438 -1.859375 -5.398438 -4.203125 -5.390625 C -6.546875 -5.378906 -9 -6.007812 -11.5625 -7.28125 C -14.101562 -8.550781 -16.085938 -10.132812 -17.515625 -12.03125 C -18.941406 -13.925781 -19.734375 -16.003906 -19.890625 -18.265625 C -20.054688 -20.535156 -19.554688 -22.835938 -18.390625 -25.171875 C -17.242188 -27.472656 -15.71875 -29.238281 -13.8125 -30.46875 C -11.914062 -31.707031 -9.773438 -32.332031 -7.390625 -32.34375 C -5.015625 -32.351562 -2.554688 -31.722656 -0.015625 -30.453125 C 2.515625 -29.191406 4.484375 -27.617188 5.890625 -25.734375 C 7.296875 -23.847656 8.070312 -21.78125 8.21875 -19.53125 C 8.375 -17.28125 7.875 -14.988281 6.71875 -12.65625 Z M 2.125 -14.984375 C 2.914062 -16.585938 2.882812 -18.046875 2.03125 -19.359375 C 1.175781 -20.679688 -0.628906 -22.035156 -3.390625 -23.421875 C -6.242188 -24.835938 -8.492188 -25.5 -10.140625 -25.40625 C -11.796875 -25.3125 -13.019531 -24.472656 -13.8125 -22.890625 C -14.613281 -21.285156 -14.550781 -19.789062 -13.625 -18.40625 C -12.707031 -17.03125 -10.820312 -15.632812 -7.96875 -14.21875 C -5.207031 -12.832031 -3.039062 -12.195312 -1.46875 -12.3125 C 0.101562 -12.4375 1.300781 -13.328125 2.125 -14.984375 Z M 2.125 -14.984375 "/></g></g></g><g fill="#ebecf0" fill-opacity="1"><g transform="translate(61.601116, 192.906422)"><g><path d="M 1.046875 -7.921875 C 2.066406 -7.921875 2.78125 -7.914062 3.1875 -7.90625 C 5.96875 -7.84375 7.359375 -6.535156 7.359375 -3.984375 C 7.359375 -2.710938 7 -1.726562 6.28125 -1.03125 C 5.570312 -0.34375 4.515625 0 3.109375 0 L 1.0625 0 C 0.914062 0 0.84375 -0.0703125 0.84375 -0.21875 L 0.84375 -7.71875 C 0.84375 -7.789062 0.851562 -7.84375 0.875 -7.875 C 0.90625 -7.90625 0.960938 -7.921875 1.046875 -7.921875 Z M 2.515625 -6.78125 C 2.453125 -6.78125 2.421875 -6.734375 2.421875 -6.640625 L 2.421875 -1.265625 C 2.421875 -1.210938 2.429688 -1.175781 2.453125 -1.15625 C 2.472656 -1.132812 2.507812 -1.125 2.5625 -1.125 L 2.828125 -1.125 C 3.828125 -1.125 4.554688 -1.34375 5.015625 -1.78125 C 5.472656 -2.226562 5.703125 -2.960938 5.703125 -3.984375 C 5.703125 -4.648438 5.609375 -5.179688 5.421875 -5.578125 C 5.242188 -5.972656 4.972656 -6.257812 4.609375 -6.4375 C 4.242188 -6.625 3.765625 -6.734375 3.171875 -6.765625 Z M 2.515625 -6.78125 "/></g></g></g><g fill="#ebecf0" fill-opacity="1"><g transform="translate(69.508789, 192.906422)"><g><path d="M 0.84375 -7.734375 C 0.84375 -7.859375 0.894531 -7.921875 1 -7.921875 L 6.171875 -7.921875 C 6.265625 -7.921875 6.3125 -7.867188 6.3125 -7.765625 L 6.3125 -6.953125 C 6.3125 -6.816406 6.25 -6.75 6.125 -6.75 L 2.609375 -6.75 C 2.484375 -6.75 2.421875 -6.695312 2.421875 -6.59375 L 2.421875 -4.734375 C 2.421875 -4.617188 2.472656 -4.5625 2.578125 -4.5625 L 5 -4.5625 C 5.113281 -4.5625 5.171875 -4.507812 5.171875 -4.40625 L 5.171875 -3.546875 C 5.171875 -3.460938 5.117188 -3.421875 5.015625 -3.421875 L 2.5625 -3.421875 C 2.46875 -3.421875 2.421875 -3.375 2.421875 -3.28125 L 2.421875 -1.296875 C 2.421875 -1.253906 2.425781 -1.222656 2.4375 -1.203125 C 2.457031 -1.179688 2.492188 -1.171875 2.546875 -1.171875 L 6.28125 -1.171875 C 6.34375 -1.171875 6.382812 -1.160156 6.40625 -1.140625 C 6.4375 -1.117188 6.453125 -1.082031 6.453125 -1.03125 L 6.453125 -0.15625 C 6.453125 -0.113281 6.4375 -0.078125 6.40625 -0.046875 C 6.375 -0.015625 6.328125 0 6.265625 0 L 1.046875 0 C 0.972656 0 0.921875 -0.0078125 0.890625 -0.03125 C 0.859375 -0.0625 0.84375 -0.113281 0.84375 -0.1875 Z M 0.84375 -7.734375 "/></g></g></g><g fill="#ebecf0" fill-opacity="1"><g transform="translate(76.391991, 192.906422)"><g><path d="M 5.296875 -6.1875 C 5.109375 -6.40625 4.882812 -6.578125 4.625 -6.703125 C 4.375 -6.828125 4.050781 -6.890625 3.65625 -6.890625 C 3.1875 -6.890625 2.820312 -6.796875 2.5625 -6.609375 C 2.3125 -6.429688 2.1875 -6.1875 2.1875 -5.875 C 2.1875 -5.445312 2.503906 -5.132812 3.140625 -4.9375 L 4.78125 -4.4375 C 6.007812 -4.070312 6.625 -3.34375 6.625 -2.25 C 6.625 -1.769531 6.5 -1.351562 6.25 -1 C 6 -0.644531 5.644531 -0.367188 5.1875 -0.171875 C 4.726562 0.015625 4.1875 0.109375 3.5625 0.109375 C 2.863281 0.109375 2.238281 -0.0078125 1.6875 -0.25 C 1.144531 -0.488281 0.734375 -0.828125 0.453125 -1.265625 C 0.421875 -1.328125 0.40625 -1.367188 0.40625 -1.390625 C 0.40625 -1.441406 0.441406 -1.492188 0.515625 -1.546875 L 1.1875 -2.015625 C 1.257812 -2.054688 1.316406 -2.078125 1.359375 -2.078125 C 1.421875 -2.078125 1.46875 -2.050781 1.5 -2 C 1.78125 -1.644531 2.0625 -1.390625 2.34375 -1.234375 C 2.625 -1.085938 3 -1.015625 3.46875 -1.015625 C 3.976562 -1.015625 4.378906 -1.097656 4.671875 -1.265625 C 4.960938 -1.441406 5.109375 -1.703125 5.109375 -2.046875 C 5.109375 -2.273438 5.035156 -2.46875 4.890625 -2.625 C 4.742188 -2.78125 4.488281 -2.921875 4.125 -3.046875 L 2.515625 -3.53125 C 1.921875 -3.707031 1.46875 -3.988281 1.15625 -4.375 C 0.84375 -4.769531 0.6875 -5.207031 0.6875 -5.6875 C 0.6875 -6.144531 0.804688 -6.546875 1.046875 -6.890625 C 1.285156 -7.242188 1.628906 -7.519531 2.078125 -7.71875 C 2.523438 -7.925781 3.039062 -8.03125 3.625 -8.03125 C 4.175781 -8.03125 4.6875 -7.929688 5.15625 -7.734375 C 5.632812 -7.535156 6.015625 -7.265625 6.296875 -6.921875 C 6.335938 -6.867188 6.359375 -6.820312 6.359375 -6.78125 C 6.359375 -6.75 6.335938 -6.71875 6.296875 -6.6875 L 5.53125 -6.109375 C 5.507812 -6.085938 5.484375 -6.078125 5.453125 -6.078125 C 5.421875 -6.078125 5.367188 -6.113281 5.296875 -6.1875 Z M 5.296875 -6.1875 "/></g></g></g><g fill="#ebecf0" fill-opacity="1"><g transform="translate(83.488619, 192.906422)"><g><path d="M 1.046875 -7.921875 C 2.066406 -7.921875 2.78125 -7.914062 3.1875 -7.90625 C 5.96875 -7.84375 7.359375 -6.535156 7.359375 -3.984375 C 7.359375 -2.710938 7 -1.726562 6.28125 -1.03125 C 5.570312 -0.34375 4.515625 0 3.109375 0 L 1.0625 0 C 0.914062 0 0.84375 -0.0703125 0.84375 -0.21875 L 0.84375 -7.71875 C 0.84375 -7.789062 0.851562 -7.84375 0.875 -7.875 C 0.90625 -7.90625 0.960938 -7.921875 1.046875 -7.921875 Z M 2.515625 -6.78125 C 2.453125 -6.78125 2.421875 -6.734375 2.421875 -6.640625 L 2.421875 -1.265625 C 2.421875 -1.210938 2.429688 -1.175781 2.453125 -1.15625 C 2.472656 -1.132812 2.507812 -1.125 2.5625 -1.125 L 2.828125 -1.125 C 3.828125 -1.125 4.554688 -1.34375 5.015625 -1.78125 C 5.472656 -2.226562 5.703125 -2.960938 5.703125 -3.984375 C 5.703125 -4.648438 5.609375 -5.179688 5.421875 -5.578125 C 5.242188 -5.972656 4.972656 -6.257812 4.609375 -6.4375 C 4.242188 -6.625 3.765625 -6.734375 3.171875 -6.765625 Z M 2.515625 -6.78125 "/></g></g></g><g fill="#ebecf0" fill-opacity="1"><g transform="translate(91.396292, 192.906422)"><g><path d="M 0.84375 -7.734375 C 0.84375 -7.859375 0.894531 -7.921875 1 -7.921875 L 6.171875 -7.921875 C 6.265625 -7.921875 6.3125 -7.867188 6.3125 -7.765625 L 6.3125 -6.953125 C 6.3125 -6.816406 6.25 -6.75 6.125 -6.75 L 2.609375 -6.75 C 2.484375 -6.75 2.421875 -6.695312 2.421875 -6.59375 L 2.421875 -4.734375 C 2.421875 -4.617188 2.472656 -4.5625 2.578125 -4.5625 L 5 -4.5625 C 5.113281 -4.5625 5.171875 -4.507812 5.171875 -4.40625 L 5.171875 -3.546875 C 5.171875 -3.460938 5.117188 -3.421875 5.015625 -3.421875 L 2.5625 -3.421875 C 2.46875 -3.421875 2.421875 -3.375 2.421875 -3.28125 L 2.421875 -1.296875 C 2.421875 -1.253906 2.425781 -1.222656 2.4375 -1.203125 C 2.457031 -1.179688 2.492188 -1.171875 2.546875 -1.171875 L 6.28125 -1.171875 C 6.34375 -1.171875 6.382812 -1.160156 6.40625 -1.140625 C 6.4375 -1.117188 6.453125 -1.082031 6.453125 -1.03125 L 6.453125 -0.15625 C 6.453125 -0.113281 6.4375 -0.078125 6.40625 -0.046875 C 6.375 -0.015625 6.328125 0 6.265625 0 L 1.046875 0 C 0.972656 0 0.921875 -0.0078125 0.890625 -0.03125 C 0.859375 -0.0625 0.84375 -0.113281 0.84375 -0.1875 Z M 0.84375 -7.734375 "/></g></g></g><g fill="#ebecf0" fill-opacity="1"><g transform="translate(280.996556, 192.906422)"><g><path d="M 2.953125 -3.390625 C 3.398438 -3.785156 3.738281 -4.109375 3.96875 -4.359375 C 4.195312 -4.617188 4.359375 -4.847656 4.453125 -5.046875 C 4.546875 -5.253906 4.59375 -5.472656 4.59375 -5.703125 C 4.59375 -6.054688 4.460938 -6.335938 4.203125 -6.546875 C 3.953125 -6.753906 3.640625 -6.859375 3.265625 -6.859375 C 2.609375 -6.859375 2.0625 -6.492188 1.625 -5.765625 C 1.601562 -5.710938 1.5625 -5.6875 1.5 -5.6875 C 1.457031 -5.6875 1.410156 -5.703125 1.359375 -5.734375 L 0.5625 -6.140625 C 0.488281 -6.191406 0.453125 -6.25 0.453125 -6.3125 C 0.453125 -6.351562 0.472656 -6.398438 0.515625 -6.453125 C 1.191406 -7.503906 2.144531 -8.03125 3.375 -8.03125 C 3.90625 -8.03125 4.378906 -7.9375 4.796875 -7.75 C 5.210938 -7.5625 5.535156 -7.289062 5.765625 -6.9375 C 6.003906 -6.582031 6.125 -6.164062 6.125 -5.6875 C 6.125 -5.25 6.003906 -4.835938 5.765625 -4.453125 C 5.523438 -4.078125 5.113281 -3.640625 4.53125 -3.140625 L 2.484375 -1.4375 C 2.453125 -1.394531 2.4375 -1.367188 2.4375 -1.359375 C 2.4375 -1.316406 2.472656 -1.296875 2.546875 -1.296875 L 6.015625 -1.296875 C 6.078125 -1.296875 6.125 -1.285156 6.15625 -1.265625 C 6.1875 -1.242188 6.203125 -1.207031 6.203125 -1.15625 L 6.203125 -0.171875 C 6.203125 -0.0546875 6.140625 0 6.015625 0 L 0.65625 0 C 0.570312 0 0.515625 -0.0078125 0.484375 -0.03125 C 0.453125 -0.0625 0.4375 -0.117188 0.4375 -0.203125 L 0.4375 -0.890625 C 0.4375 -0.960938 0.460938 -1.035156 0.515625 -1.109375 C 0.566406 -1.179688 0.679688 -1.289062 0.859375 -1.4375 Z M 2.953125 -3.390625 "/></g></g></g><g fill="#ebecf0" fill-opacity="1"><g transform="translate(287.698335, 192.906422)"><g><path d="M 3.75 -8.03125 C 4.351562 -8.03125 4.894531 -7.863281 5.375 -7.53125 C 5.863281 -7.207031 6.242188 -6.734375 6.515625 -6.109375 C 6.785156 -5.484375 6.921875 -4.757812 6.921875 -3.9375 C 6.921875 -3.113281 6.785156 -2.394531 6.515625 -1.78125 C 6.242188 -1.175781 5.867188 -0.710938 5.390625 -0.390625 C 4.910156 -0.0664062 4.363281 0.09375 3.75 0.09375 C 3.125 0.09375 2.570312 -0.0664062 2.09375 -0.390625 C 1.613281 -0.710938 1.238281 -1.175781 0.96875 -1.78125 C 0.695312 -2.382812 0.5625 -3.097656 0.5625 -3.921875 C 0.5625 -4.753906 0.695312 -5.476562 0.96875 -6.09375 C 1.25 -6.71875 1.628906 -7.195312 2.109375 -7.53125 C 2.597656 -7.863281 3.144531 -8.03125 3.75 -8.03125 Z M 3.75 -1.03125 C 4.269531 -1.03125 4.660156 -1.257812 4.921875 -1.71875 C 5.191406 -2.175781 5.328125 -2.910156 5.328125 -3.921875 C 5.328125 -4.953125 5.191406 -5.707031 4.921875 -6.1875 C 4.660156 -6.675781 4.269531 -6.921875 3.75 -6.921875 C 2.6875 -6.921875 2.15625 -5.921875 2.15625 -3.921875 C 2.15625 -2.921875 2.289062 -2.1875 2.5625 -1.71875 C 2.832031 -1.257812 3.226562 -1.03125 3.75 -1.03125 Z M 3.75 -1.03125 "/></g></g></g><g fill="#ebecf0" fill-opacity="1"><g transform="translate(295.179147, 192.906422)"><g><path d="M 2.953125 -3.390625 C 3.398438 -3.785156 3.738281 -4.109375 3.96875 -4.359375 C 4.195312 -4.617188 4.359375 -4.847656 4.453125 -5.046875 C 4.546875 -5.253906 4.59375 -5.472656 4.59375 -5.703125 C 4.59375 -6.054688 4.460938 -6.335938 4.203125 -6.546875 C 3.953125 -6.753906 3.640625 -6.859375 3.265625 -6.859375 C 2.609375 -6.859375 2.0625 -6.492188 1.625 -5.765625 C 1.601562 -5.710938 1.5625 -5.6875 1.5 -5.6875 C 1.457031 -5.6875 1.410156 -5.703125 1.359375 -5.734375 L 0.5625 -6.140625 C 0.488281 -6.191406 0.453125 -6.25 0.453125 -6.3125 C 0.453125 -6.351562 0.472656 -6.398438 0.515625 -6.453125 C 1.191406 -7.503906 2.144531 -8.03125 3.375 -8.03125 C 3.90625 -8.03125 4.378906 -7.9375 4.796875 -7.75 C 5.210938 -7.5625 5.535156 -7.289062 5.765625 -6.9375 C 6.003906 -6.582031 6.125 -6.164062 6.125 -5.6875 C 6.125 -5.25 6.003906 -4.835938 5.765625 -4.453125 C 5.523438 -4.078125 5.113281 -3.640625 4.53125 -3.140625 L 2.484375 -1.4375 C 2.453125 -1.394531 2.4375 -1.367188 2.4375 -1.359375 C 2.4375 -1.316406 2.472656 -1.296875 2.546875 -1.296875 L 6.015625 -1.296875 C 6.078125 -1.296875 6.125 -1.285156 6.15625 -1.265625 C 6.1875 -1.242188 6.203125 -1.207031 6.203125 -1.15625 L 6.203125 -0.171875 C 6.203125 -0.0546875 6.140625 0 6.015625 0 L 0.65625 0 C 0.570312 0 0.515625 -0.0078125 0.484375 -0.03125 C 0.453125 -0.0625 0.4375 -0.117188 0.4375 -0.203125 L 0.4375 -0.890625 C 0.4375 -0.960938 0.460938 -1.035156 0.515625 -1.109375 C 0.566406 -1.179688 0.679688 -1.289062 0.859375 -1.4375 Z M 2.953125 -3.390625 "/></g></g></g><g fill="#ebecf0" fill-opacity="1"><g transform="translate(301.880926, 192.906422)"><g><path d="M 3.953125 -7.75 C 4.015625 -7.820312 4.066406 -7.867188 4.109375 -7.890625 C 4.160156 -7.910156 4.234375 -7.921875 4.328125 -7.921875 L 5.46875 -7.921875 C 5.5625 -7.921875 5.609375 -7.863281 5.609375 -7.75 L 5.609375 -3.171875 C 5.609375 -3.128906 5.617188 -3.097656 5.640625 -3.078125 C 5.660156 -3.054688 5.6875 -3.046875 5.71875 -3.046875 L 6.640625 -3.046875 C 6.753906 -3.046875 6.8125 -3 6.8125 -2.90625 L 6.8125 -2.140625 C 6.8125 -2.015625 6.75 -1.953125 6.625 -1.953125 L 5.734375 -1.953125 C 5.648438 -1.953125 5.609375 -1.910156 5.609375 -1.828125 L 5.609375 -0.21875 C 5.609375 -0.132812 5.585938 -0.078125 5.546875 -0.046875 C 5.515625 -0.015625 5.457031 0 5.375 0 L 4.21875 0 C 4.082031 0 4.015625 -0.0625 4.015625 -0.1875 L 4.015625 -1.875 C 4.015625 -1.925781 3.976562 -1.953125 3.90625 -1.953125 L 0.609375 -1.953125 C 0.484375 -1.953125 0.421875 -2.015625 0.421875 -2.140625 L 0.421875 -2.90625 C 0.421875 -2.957031 0.4375 -3.015625 0.46875 -3.078125 C 0.5 -3.148438 0.5625 -3.242188 0.65625 -3.359375 Z M 3.921875 -3.046875 C 3.953125 -3.046875 3.972656 -3.050781 3.984375 -3.0625 C 4.003906 -3.082031 4.015625 -3.101562 4.015625 -3.125 L 4.015625 -6.09375 C 4.015625 -6.195312 4.003906 -6.25 3.984375 -6.25 C 3.960938 -6.25 3.925781 -6.210938 3.875 -6.140625 L 1.71875 -3.1875 C 1.6875 -3.144531 1.671875 -3.117188 1.671875 -3.109375 C 1.671875 -3.066406 1.710938 -3.046875 1.796875 -3.046875 Z M 3.921875 -3.046875 "/></g></g></g></svg>