<svg xmlns="http://www.w3.org/2000/svg" xmlns:xlink="http://www.w3.org/1999/xlink" width="500" zoomAndPan="magnify" viewBox="0 0 375 374.999991" height="500" preserveAspectRatio="xMidYMid meet" version="1.0"><defs><g/><clipPath id="1d8352f4ca"><path d="M 142 112 L 208 112 L 208 178 L 142 178 Z M 142 112 " clip-rule="nonzero"/></clipPath><clipPath id="4bd9f8fde2"><path d="M 139.722656 145.328125 L 175.207031 109.84375 L 210.691406 145.328125 L 175.207031 180.808594 Z M 139.722656 145.328125 " clip-rule="nonzero"/></clipPath><clipPath id="511a0777d1"><path d="M 145.027344 140.023438 L 169.902344 115.148438 C 172.832031 112.21875 177.582031 112.21875 180.511719 115.148438 L 205.386719 140.023438 C 208.316406 142.953125 208.316406 147.703125 205.386719 150.632812 L 180.511719 175.507812 C 177.582031 178.4375 172.832031 178.4375 169.902344 175.507812 L 145.027344 150.632812 C 142.097656 147.703125 142.097656 142.953125 145.027344 140.023438 Z M 145.027344 140.023438 " clip-rule="nonzero"/></clipPath><clipPath id="3b0e73f5f7"><path d="M 154 112 L 220 112 L 220 178 L 154 178 Z M 154 112 " clip-rule="nonzero"/></clipPath><clipPath id="1592d91fe4"><path d="M 151.6875 145.328125 L 187.167969 109.84375 L 222.652344 145.328125 L 187.167969 180.808594 Z M 151.6875 145.328125 " clip-rule="nonzero"/></clipPath><clipPath id="830ae8d608"><path d="M 156.988281 140.023438 L 181.867188 115.148438 C 184.792969 112.21875 189.542969 112.21875 192.472656 115.148438 L 217.347656 140.023438 C 220.277344 142.953125 220.277344 147.703125 217.347656 150.632812 L 192.472656 175.507812 C 189.542969 178.4375 184.792969 178.4375 181.867188 175.507812 L 156.988281 150.632812 C 154.0625 147.703125 154.0625 142.953125 156.988281 140.023438 Z M 156.988281 140.023438 " clip-rule="nonzero"/></clipPath><clipPath id="be5b135870"><path d="M 167 112 L 233 112 L 233 178 L 167 178 Z M 167 112 " clip-rule="nonzero"/></clipPath><clipPath id="a11eb5b5af"><path d="M 164.3125 145.328125 L 199.792969 109.84375 L 235.277344 145.328125 L 199.792969 180.808594 Z M 164.3125 145.328125 " clip-rule="nonzero"/></clipPath><clipPath id="6f97642003"><path d="M 169.613281 140.023438 L 194.488281 115.148438 C 197.417969 112.21875 202.167969 112.21875 205.097656 115.148438 L 229.972656 140.023438 C 232.902344 142.953125 232.902344 147.703125 229.972656 150.632812 L 205.097656 175.507812 C 202.167969 178.4375 197.417969 178.4375 194.488281 175.507812 L 169.613281 150.632812 C 166.683594 147.703125 166.683594 142.953125 169.613281 140.023438 Z M 169.613281 140.023438 " clip-rule="nonzero"/></clipPath><clipPath id="a82a14c057"><path d="M 185.183594 135 L 214.433594 135 L 214.433594 156 L 185.183594 156 Z M 185.183594 135 " clip-rule="nonzero"/></clipPath></defs><rect x="-37.5" width="450" fill="#ffffff" y="-37.499999" height="449.999989" fill-opacity="1"/><rect x="-37.5" width="450" fill="#08321e" y="-37.499999" height="449.999989" fill-opacity="1"/><g clip-path="url(#1d8352f4ca)"><g clip-path="url(#4bd9f8fde2)"><g clip-path="url(#511a0777d1)"><path fill="#1a8a34" d="M 139.722656 145.328125 L 175.207031 109.84375 L 210.691406 145.328125 L 175.207031 180.808594 Z M 139.722656 145.328125 " fill-opacity="1" fill-rule="nonzero"/></g></g></g><g clip-path="url(#3b0e73f5f7)"><g clip-path="url(#1592d91fe4)"><g clip-path="url(#830ae8d608)"><path fill="#ffffff" d="M 151.6875 145.328125 L 187.167969 109.84375 L 222.652344 145.328125 L 187.167969 180.808594 Z M 151.6875 145.328125 " fill-opacity="1" fill-rule="nonzero"/></g></g></g><g clip-path="url(#be5b135870)"><g clip-path="url(#a11eb5b5af)"><g clip-path="url(#6f97642003)"><path fill="#c70a0a" d="M 164.3125 145.328125 L 199.792969 109.84375 L 235.277344 145.328125 L 199.792969 180.808594 Z M 164.3125 145.328125 " fill-opacity="1" fill-rule="nonzero"/></g></g></g><g clip-path="url(#a82a14c057)"><path fill="#ffffff" d="M 189.769531 155.457031 C 189.078125 155.457031 188.347656 155.347656 187.570312 155.09375 C 187.394531 155.035156 187.257812 154.898438 187.203125 154.714844 C 187.152344 154.535156 187.191406 154.34375 187.308594 154.203125 L 188.621094 152.597656 L 186.761719 152.265625 C 186.574219 152.230469 186.417969 152.109375 186.339844 151.933594 C 186.265625 151.757812 186.28125 151.558594 186.386719 151.402344 L 187.429688 149.804688 L 185.570312 149.074219 C 185.390625 149.003906 185.253906 148.847656 185.21875 148.65625 C 185.183594 148.464844 185.25 148.269531 185.390625 148.136719 L 186.933594 146.703125 L 185.476562 145.796875 C 185.308594 145.703125 185.207031 145.523438 185.207031 145.324219 C 185.207031 145.125 185.308594 144.945312 185.476562 144.847656 L 186.933594 143.941406 L 185.390625 142.511719 C 185.25 142.378906 185.183594 142.1875 185.21875 141.992188 C 185.253906 141.800781 185.390625 141.644531 185.570312 141.574219 L 187.429688 140.851562 L 186.386719 139.253906 C 186.28125 139.09375 186.265625 138.894531 186.339844 138.722656 C 186.417969 138.546875 186.574219 138.425781 186.761719 138.390625 L 188.621094 138.054688 L 187.308594 136.453125 C 187.191406 136.304688 187.152344 136.113281 187.203125 135.9375 C 187.257812 135.757812 187.394531 135.617188 187.570312 135.558594 C 191.792969 134.1875 194.707031 137 196.828125 139.046875 C 197.9375 140.117188 198.980469 141.125 199.792969 141.125 C 200.601562 141.125 201.648438 140.117188 202.753906 139.046875 C 204.878906 136.996094 207.789062 134.1875 212.019531 135.558594 C 212.195312 135.617188 212.332031 135.757812 212.386719 135.9375 C 212.4375 136.121094 212.398438 136.3125 212.28125 136.453125 L 210.960938 138.054688 L 212.824219 138.390625 C 213.011719 138.425781 213.167969 138.546875 213.242188 138.722656 C 213.320312 138.894531 213.300781 139.09375 213.195312 139.253906 L 212.152344 140.851562 L 214.015625 141.574219 C 214.195312 141.644531 214.328125 141.800781 214.363281 141.992188 C 214.398438 142.1875 214.335938 142.378906 214.195312 142.511719 L 212.648438 143.949219 L 214.105469 144.851562 C 214.269531 144.957031 214.375 145.136719 214.375 145.332031 C 214.375 145.523438 214.277344 145.710938 214.105469 145.808594 L 212.648438 146.707031 L 214.195312 148.140625 C 214.335938 148.277344 214.398438 148.46875 214.363281 148.660156 C 214.328125 148.855469 214.195312 149.011719 214.011719 149.082031 L 212.152344 149.804688 L 213.195312 151.402344 C 213.300781 151.558594 213.320312 151.757812 213.242188 151.933594 C 213.167969 152.109375 213.011719 152.230469 212.824219 152.265625 L 210.960938 152.597656 L 212.273438 154.203125 C 212.390625 154.347656 212.433594 154.542969 212.378906 154.714844 C 212.328125 154.898438 212.1875 155.039062 212.011719 155.09375 C 207.789062 156.464844 204.878906 153.65625 202.75 151.605469 C 201.640625 150.539062 200.597656 149.53125 199.785156 149.53125 C 198.976562 149.53125 197.929688 150.539062 196.824219 151.605469 C 195.097656 153.277344 192.839844 155.457031 189.769531 155.457031 Z M 199.792969 148.398438 C 201.058594 148.398438 202.207031 149.507812 203.535156 150.789062 C 205.503906 152.6875 207.707031 154.816406 210.851562 154.230469 L 209.488281 152.5625 C 209.359375 152.414062 209.324219 152.203125 209.394531 152.007812 C 209.464844 151.824219 209.628906 151.6875 209.820312 151.648438 L 211.792969 151.296875 L 210.835938 149.828125 C 210.742188 149.6875 210.71875 149.507812 210.769531 149.351562 C 210.824219 149.1875 210.945312 149.058594 211.101562 149 L 212.769531 148.351562 L 211.34375 147.027344 C 211.214844 146.910156 211.148438 146.738281 211.167969 146.5625 C 211.183594 146.386719 211.285156 146.230469 211.429688 146.136719 L 212.742188 145.324219 L 211.429688 144.515625 C 211.277344 144.421875 211.183594 144.261719 211.167969 144.089844 C 211.148438 143.914062 211.214844 143.738281 211.34375 143.621094 L 212.769531 142.296875 L 211.101562 141.648438 C 210.945312 141.585938 210.824219 141.457031 210.769531 141.300781 C 210.71875 141.136719 210.742188 140.960938 210.835938 140.820312 L 211.792969 139.351562 L 209.820312 139 C 209.621094 138.964844 209.457031 138.832031 209.394531 138.640625 C 209.324219 138.453125 209.359375 138.242188 209.488281 138.085938 L 210.847656 136.421875 C 207.707031 135.832031 205.496094 137.964844 203.53125 139.863281 C 202.203125 141.148438 201.050781 142.257812 199.785156 142.257812 C 198.519531 142.257812 197.371094 141.148438 196.042969 139.863281 C 194.074219 137.96875 191.871094 135.832031 188.726562 136.421875 L 190.089844 138.089844 C 190.21875 138.242188 190.253906 138.453125 190.183594 138.644531 C 190.113281 138.832031 189.953125 138.964844 189.757812 139.007812 L 187.789062 139.355469 L 188.742188 140.828125 C 188.835938 140.96875 188.859375 141.148438 188.808594 141.304688 C 188.753906 141.46875 188.632812 141.597656 188.476562 141.65625 L 186.808594 142.304688 L 188.242188 143.621094 C 188.371094 143.738281 188.433594 143.914062 188.417969 144.089844 C 188.398438 144.261719 188.300781 144.421875 188.15625 144.515625 L 186.84375 145.324219 L 188.15625 146.136719 C 188.304688 146.230469 188.398438 146.386719 188.417969 146.5625 C 188.433594 146.738281 188.371094 146.910156 188.242188 147.027344 L 186.8125 148.351562 L 188.480469 149 C 188.640625 149.0625 188.761719 149.191406 188.8125 149.351562 C 188.867188 149.511719 188.84375 149.6875 188.75 149.828125 L 187.792969 151.296875 L 189.765625 151.648438 C 189.964844 151.683594 190.125 151.816406 190.191406 152.007812 C 190.261719 152.195312 190.226562 152.40625 190.097656 152.5625 L 188.730469 154.230469 C 191.871094 154.820312 194.082031 152.691406 196.046875 150.789062 C 197.378906 149.507812 198.527344 148.398438 199.792969 148.398438 Z M 193.5625 148.957031 C 193.589844 148.941406 196.617188 147.015625 199.792969 147.015625 C 202.953125 147.015625 205.992188 148.941406 206.023438 148.957031 C 206.285156 149.128906 206.628906 149.050781 206.796875 148.789062 C 206.96875 148.527344 206.890625 148.183594 206.628906 148.015625 C 206.496094 147.925781 203.292969 145.890625 199.785156 145.890625 C 196.285156 145.890625 193.078125 147.925781 192.945312 148.015625 C 192.679688 148.183594 192.605469 148.53125 192.773438 148.789062 C 192.878906 148.957031 193.058594 149.046875 193.246094 149.046875 C 193.363281 149.046875 193.46875 149.015625 193.5625 148.957031 Z M 206.59375 143.007812 C 206.867188 142.863281 206.972656 142.519531 206.828125 142.25 C 206.679688 141.976562 206.335938 141.871094 206.0625 142.015625 C 206.035156 142.035156 202.984375 143.640625 199.792969 143.640625 C 196.605469 143.640625 193.5625 142.035156 193.519531 142.015625 C 193.246094 141.871094 192.910156 141.976562 192.757812 142.25 C 192.609375 142.523438 192.714844 142.863281 192.992188 143.015625 C 193.125 143.085938 196.316406 144.769531 199.792969 144.769531 C 203.269531 144.765625 206.460938 143.078125 206.59375 143.007812 Z M 206.59375 143.007812 " fill-opacity="1" fill-rule="nonzero"/></g><g fill="#ffffff" fill-opacity="1"><g transform="translate(41.837883, 237.532265)"><g><path d="M 1.5625 -51.984375 L 15.265625 -51.984375 L 15.265625 -11.75 L 22.96875 -11.75 C 24.53125 -11.75 25.953125 -12.140625 27.234375 -12.921875 C 28.515625 -13.703125 29.535156 -14.734375 30.296875 -16.015625 C 31.054688 -17.296875 31.4375 -18.71875 31.4375 -20.28125 C 31.4375 -21.8125 31.054688 -23.195312 30.296875 -24.4375 C 29.535156 -25.675781 28.515625 -26.660156 27.234375 -27.390625 C 25.953125 -28.128906 24.53125 -28.5 22.96875 -28.5 L 18.390625 -28.5 L 18.390625 -40.25 L 27.53125 -40.25 C 30.351562 -40.25 32.914062 -39.710938 35.21875 -38.640625 C 37.53125 -37.578125 39.519531 -36.125 41.1875 -34.28125 C 42.863281 -32.4375 44.160156 -30.335938 45.078125 -27.984375 C 45.992188 -25.640625 46.453125 -23.160156 46.453125 -20.546875 C 46.453125 -17.890625 45.992188 -15.332031 45.078125 -12.875 C 44.160156 -10.425781 42.851562 -8.234375 41.15625 -6.296875 C 39.46875 -4.359375 37.457031 -2.820312 35.125 -1.6875 C 32.800781 -0.5625 30.25 0 27.46875 0 L 1.5625 0 Z M 1.5625 -51.984375 "/></g></g></g><g fill="#ffffff" fill-opacity="1"><g transform="translate(89.188831, 237.532265)"><g><path d="M 49.3125 -20.09375 C 49.3125 -16.875 48.632812 -13.945312 47.28125 -11.3125 C 45.9375 -8.6875 44.125 -6.425781 41.84375 -4.53125 C 39.5625 -2.644531 36.972656 -1.1875 34.078125 -0.15625 C 31.191406 0.863281 28.203125 1.375 25.109375 1.375 C 22.023438 1.375 19.035156 0.863281 16.140625 -0.15625 C 13.253906 -1.1875 10.664062 -2.644531 8.375 -4.53125 C 6.09375 -6.425781 4.273438 -8.6875 2.921875 -11.3125 C 1.578125 -13.945312 0.90625 -16.875 0.90625 -20.09375 C 0.90625 -23.3125 1.585938 -26.234375 2.953125 -28.859375 C 4.328125 -31.492188 6.175781 -33.765625 8.5 -35.671875 C 10.832031 -37.585938 13.429688 -39.054688 16.296875 -40.078125 C 19.171875 -41.109375 22.132812 -41.625 25.1875 -41.625 C 28.1875 -41.625 31.117188 -41.109375 33.984375 -40.078125 C 36.859375 -39.054688 39.445312 -37.585938 41.75 -35.671875 C 44.050781 -33.765625 45.882812 -31.492188 47.25 -28.859375 C 48.625 -26.234375 49.3125 -23.3125 49.3125 -20.09375 Z M 25.25 -29.875 C 23.507812 -29.875 21.929688 -29.445312 20.515625 -28.59375 C 19.097656 -27.75 17.976562 -26.585938 17.15625 -25.109375 C 16.332031 -23.628906 15.921875 -21.957031 15.921875 -20.09375 C 15.921875 -17.21875 16.800781 -14.878906 18.5625 -13.078125 C 20.320312 -11.273438 22.53125 -10.375 25.1875 -10.375 C 27.789062 -10.375 29.960938 -11.273438 31.703125 -13.078125 C 33.441406 -14.878906 34.3125 -17.21875 34.3125 -20.09375 C 34.3125 -21.914062 33.921875 -23.566406 33.140625 -25.046875 C 32.359375 -26.523438 31.289062 -27.695312 29.9375 -28.5625 C 28.59375 -29.4375 27.03125 -29.875 25.25 -29.875 Z M 25.25 -29.875 "/></g></g></g><g fill="#ffffff" fill-opacity="1"><g transform="translate(139.409548, 237.532265)"><g><path d="M 27 -40.25 L 27 -28.5 L 21.53125 -28.5 C 19.789062 -28.5 18.3125 -27.847656 17.09375 -26.546875 C 15.875 -25.242188 15.265625 -23.679688 15.265625 -21.859375 L 15.265625 0 L 1.5625 0 L 1.5625 -25.1875 C 1.5625 -27.96875 2.179688 -30.5 3.421875 -32.78125 C 4.660156 -35.0625 6.3125 -36.875 8.375 -38.21875 C 10.445312 -39.570312 12.742188 -40.25 15.265625 -40.25 Z M 27 -40.25 "/></g></g></g><g fill="#ffffff" fill-opacity="1"><g transform="translate(167.063559, 237.532265)"><g><path d="M 34.3125 -40.25 L 34.3125 -28.5 L 25.1875 -28.5 C 22.570312 -28.5 20.375 -27.757812 18.59375 -26.28125 C 16.8125 -24.8125 15.921875 -22.789062 15.921875 -20.21875 C 15.921875 -18.613281 16.351562 -17.164062 17.21875 -15.875 C 18.09375 -14.59375 19.234375 -13.582031 20.640625 -12.84375 C 22.054688 -12.113281 23.570312 -11.75 25.1875 -11.75 L 34.3125 -11.75 L 34.3125 0 L 20.546875 0 C 16.679688 0 13.269531 -0.910156 10.3125 -2.734375 C 7.351562 -4.566406 5.046875 -7.023438 3.390625 -10.109375 C 1.734375 -13.203125 0.90625 -16.617188 0.90625 -20.359375 C 0.90625 -23.046875 1.425781 -25.585938 2.46875 -27.984375 C 3.519531 -30.378906 4.957031 -32.488281 6.78125 -34.3125 C 8.613281 -36.132812 10.703125 -37.578125 13.046875 -38.640625 C 15.390625 -39.710938 17.867188 -40.25 20.484375 -40.25 Z M 34.3125 -40.25 "/></g></g></g><g fill="#ffffff" fill-opacity="1"><g transform="translate(202.93548, 237.532265)"><g><path d="M 46.703125 -11.75 L 46.703125 0 L 23.546875 0 C 20.628906 0 17.8125 -0.453125 15.09375 -1.359375 C 12.382812 -2.273438 9.960938 -3.613281 7.828125 -5.375 C 5.691406 -7.144531 4.003906 -9.28125 2.765625 -11.78125 C 1.523438 -14.28125 0.90625 -17.113281 0.90625 -20.28125 C 0.90625 -22.851562 1.503906 -25.332031 2.703125 -27.71875 C 3.898438 -30.113281 5.539062 -32.253906 7.625 -34.140625 C 9.71875 -36.035156 12.132812 -37.523438 14.875 -38.609375 C 17.613281 -39.703125 20.523438 -40.25 23.609375 -40.25 L 46.703125 -40.25 L 46.703125 -28.5 L 37.578125 -15.140625 L 22.046875 -15.140625 L 31.703125 -28.5 L 24.65625 -28.5 C 22.050781 -28.5 19.941406 -27.738281 18.328125 -26.21875 C 16.722656 -24.695312 15.921875 -22.765625 15.921875 -20.421875 C 15.921875 -18.765625 16.3125 -17.269531 17.09375 -15.9375 C 17.875 -14.613281 18.925781 -13.582031 20.25 -12.84375 C 21.582031 -12.113281 23.050781 -11.75 24.65625 -11.75 Z M 46.703125 -11.75 "/></g></g></g><g fill="#ffffff" fill-opacity="1"><g transform="translate(251.199545, 237.532265)"><g><path d="M 1.5625 -51.984375 L 15.265625 -51.984375 L 15.265625 0 L 1.5625 0 Z M 1.5625 -51.984375 "/></g></g></g><g fill="#ffffff" fill-opacity="1"><g transform="translate(268.02676, 237.532265)"><g><path d="M 1.5625 -51.984375 L 15.265625 -51.984375 L 15.265625 0 L 1.5625 0 Z M 1.5625 -51.984375 "/></g></g></g><g fill="#ffffff" fill-opacity="1"><g transform="translate(284.853976, 237.532265)"><g><path d="M 46.703125 -11.75 L 46.703125 0 L 23.546875 0 C 20.628906 0 17.8125 -0.453125 15.09375 -1.359375 C 12.382812 -2.273438 9.960938 -3.613281 7.828125 -5.375 C 5.691406 -7.144531 4.003906 -9.28125 2.765625 -11.78125 C 1.523438 -14.28125 0.90625 -17.113281 0.90625 -20.28125 C 0.90625 -22.851562 1.503906 -25.332031 2.703125 -27.71875 C 3.898438 -30.113281 5.539062 -32.253906 7.625 -34.140625 C 9.71875 -36.035156 12.132812 -37.523438 14.875 -38.609375 C 17.613281 -39.703125 20.523438 -40.25 23.609375 -40.25 L 46.703125 -40.25 L 46.703125 -28.5 L 37.578125 -15.140625 L 22.046875 -15.140625 L 31.703125 -28.5 L 24.65625 -28.5 C 22.050781 -28.5 19.941406 -27.738281 18.328125 -26.21875 C 16.722656 -24.695312 15.921875 -22.765625 15.921875 -20.421875 C 15.921875 -18.765625 16.3125 -17.269531 17.09375 -15.9375 C 17.875 -14.613281 18.925781 -13.582031 20.25 -12.84375 C 21.582031 -12.113281 23.050781 -11.75 24.65625 -11.75 Z M 46.703125 -11.75 "/></g></g></g><g fill="#ffffff" fill-opacity="1"><g transform="translate(77.376016, 261.863889)"><g><path d="M 10.171875 -8.46875 L 10.171875 0 L 9.3125 0 L 9.3125 -6.765625 L 5.984375 -1.078125 L 5.5625 -1.078125 L 2.234375 -6.734375 L 2.234375 0 L 1.375 0 L 1.375 -8.46875 L 2.109375 -8.46875 L 5.796875 -2.1875 L 9.4375 -8.46875 Z M 10.171875 -8.46875 "/></g></g></g><g fill="#ffffff" fill-opacity="1"><g transform="translate(94.404333, 261.863889)"><g><path d="M 6.6875 -2.265625 L 1.96875 -2.265625 L 0.953125 0 L 0.03125 0 L 3.890625 -8.46875 L 4.78125 -8.46875 L 8.640625 0 L 7.703125 0 Z M 6.359375 -2.984375 L 4.328125 -7.53125 L 2.296875 -2.984375 Z M 6.359375 -2.984375 "/></g></g></g><g fill="#ffffff" fill-opacity="1"><g transform="translate(108.557116, 261.863889)"><g><path d="M 3.71875 0.078125 C 3.082031 0.078125 2.476562 -0.0195312 1.90625 -0.21875 C 1.332031 -0.425781 0.882812 -0.695312 0.5625 -1.03125 L 0.921875 -1.71875 C 1.222656 -1.40625 1.628906 -1.15625 2.140625 -0.96875 C 2.648438 -0.78125 3.175781 -0.6875 3.71875 -0.6875 C 4.46875 -0.6875 5.03125 -0.828125 5.40625 -1.109375 C 5.789062 -1.390625 5.984375 -1.75 5.984375 -2.1875 C 5.984375 -2.53125 5.878906 -2.800781 5.671875 -3 C 5.472656 -3.195312 5.222656 -3.347656 4.921875 -3.453125 C 4.617188 -3.566406 4.203125 -3.691406 3.671875 -3.828125 C 3.035156 -3.984375 2.523438 -4.132812 2.140625 -4.28125 C 1.765625 -4.4375 1.441406 -4.664062 1.171875 -4.96875 C 0.910156 -5.28125 0.78125 -5.695312 0.78125 -6.21875 C 0.78125 -6.644531 0.890625 -7.03125 1.109375 -7.375 C 1.335938 -7.726562 1.6875 -8.007812 2.15625 -8.21875 C 2.625 -8.425781 3.203125 -8.53125 3.890625 -8.53125 C 4.378906 -8.53125 4.851562 -8.460938 5.3125 -8.328125 C 5.78125 -8.203125 6.179688 -8.019531 6.515625 -7.78125 L 6.21875 -7.078125 C 5.863281 -7.304688 5.484375 -7.476562 5.078125 -7.59375 C 4.671875 -7.71875 4.273438 -7.78125 3.890625 -7.78125 C 3.148438 -7.78125 2.59375 -7.632812 2.21875 -7.34375 C 1.84375 -7.0625 1.65625 -6.691406 1.65625 -6.234375 C 1.65625 -5.898438 1.757812 -5.628906 1.96875 -5.421875 C 2.175781 -5.210938 2.429688 -5.054688 2.734375 -4.953125 C 3.046875 -4.847656 3.460938 -4.726562 3.984375 -4.59375 C 4.609375 -4.4375 5.113281 -4.285156 5.5 -4.140625 C 5.882812 -3.992188 6.207031 -3.769531 6.46875 -3.46875 C 6.738281 -3.164062 6.875 -2.753906 6.875 -2.234375 C 6.875 -1.804688 6.757812 -1.414062 6.53125 -1.0625 C 6.300781 -0.71875 5.945312 -0.441406 5.46875 -0.234375 C 4.988281 -0.0234375 4.40625 0.078125 3.71875 0.078125 Z M 3.71875 0.078125 "/></g></g></g><g fill="#ffffff" fill-opacity="1"><g transform="translate(121.47752, 261.863889)"><g><path d="M 3.71875 0.078125 C 3.082031 0.078125 2.476562 -0.0195312 1.90625 -0.21875 C 1.332031 -0.425781 0.882812 -0.695312 0.5625 -1.03125 L 0.921875 -1.71875 C 1.222656 -1.40625 1.628906 -1.15625 2.140625 -0.96875 C 2.648438 -0.78125 3.175781 -0.6875 3.71875 -0.6875 C 4.46875 -0.6875 5.03125 -0.828125 5.40625 -1.109375 C 5.789062 -1.390625 5.984375 -1.75 5.984375 -2.1875 C 5.984375 -2.53125 5.878906 -2.800781 5.671875 -3 C 5.472656 -3.195312 5.222656 -3.347656 4.921875 -3.453125 C 4.617188 -3.566406 4.203125 -3.691406 3.671875 -3.828125 C 3.035156 -3.984375 2.523438 -4.132812 2.140625 -4.28125 C 1.765625 -4.4375 1.441406 -4.664062 1.171875 -4.96875 C 0.910156 -5.28125 0.78125 -5.695312 0.78125 -6.21875 C 0.78125 -6.644531 0.890625 -7.03125 1.109375 -7.375 C 1.335938 -7.726562 1.6875 -8.007812 2.15625 -8.21875 C 2.625 -8.425781 3.203125 -8.53125 3.890625 -8.53125 C 4.378906 -8.53125 4.851562 -8.460938 5.3125 -8.328125 C 5.78125 -8.203125 6.179688 -8.019531 6.515625 -7.78125 L 6.21875 -7.078125 C 5.863281 -7.304688 5.484375 -7.476562 5.078125 -7.59375 C 4.671875 -7.71875 4.273438 -7.78125 3.890625 -7.78125 C 3.148438 -7.78125 2.59375 -7.632812 2.21875 -7.34375 C 1.84375 -7.0625 1.65625 -6.691406 1.65625 -6.234375 C 1.65625 -5.898438 1.757812 -5.628906 1.96875 -5.421875 C 2.175781 -5.210938 2.429688 -5.054688 2.734375 -4.953125 C 3.046875 -4.847656 3.460938 -4.726562 3.984375 -4.59375 C 4.609375 -4.4375 5.113281 -4.285156 5.5 -4.140625 C 5.882812 -3.992188 6.207031 -3.769531 6.46875 -3.46875 C 6.738281 -3.164062 6.875 -2.753906 6.875 -2.234375 C 6.875 -1.804688 6.757812 -1.414062 6.53125 -1.0625 C 6.300781 -0.71875 5.945312 -0.441406 5.46875 -0.234375 C 4.988281 -0.0234375 4.40625 0.078125 3.71875 0.078125 Z M 3.71875 0.078125 "/></g></g></g><g fill="#ffffff" fill-opacity="1"><g transform="translate(134.397921, 261.863889)"><g><path d="M 6.6875 -2.265625 L 1.96875 -2.265625 L 0.953125 0 L 0.03125 0 L 3.890625 -8.46875 L 4.78125 -8.46875 L 8.640625 0 L 7.703125 0 Z M 6.359375 -2.984375 L 4.328125 -7.53125 L 2.296875 -2.984375 Z M 6.359375 -2.984375 "/></g></g></g><g fill="#ffffff" fill-opacity="1"><g transform="translate(148.550703, 261.863889)"><g><path d="M 3.71875 0.078125 C 3.082031 0.078125 2.476562 -0.0195312 1.90625 -0.21875 C 1.332031 -0.425781 0.882812 -0.695312 0.5625 -1.03125 L 0.921875 -1.71875 C 1.222656 -1.40625 1.628906 -1.15625 2.140625 -0.96875 C 2.648438 -0.78125 3.175781 -0.6875 3.71875 -0.6875 C 4.46875 -0.6875 5.03125 -0.828125 5.40625 -1.109375 C 5.789062 -1.390625 5.984375 -1.75 5.984375 -2.1875 C 5.984375 -2.53125 5.878906 -2.800781 5.671875 -3 C 5.472656 -3.195312 5.222656 -3.347656 4.921875 -3.453125 C 4.617188 -3.566406 4.203125 -3.691406 3.671875 -3.828125 C 3.035156 -3.984375 2.523438 -4.132812 2.140625 -4.28125 C 1.765625 -4.4375 1.441406 -4.664062 1.171875 -4.96875 C 0.910156 -5.28125 0.78125 -5.695312 0.78125 -6.21875 C 0.78125 -6.644531 0.890625 -7.03125 1.109375 -7.375 C 1.335938 -7.726562 1.6875 -8.007812 2.15625 -8.21875 C 2.625 -8.425781 3.203125 -8.53125 3.890625 -8.53125 C 4.378906 -8.53125 4.851562 -8.460938 5.3125 -8.328125 C 5.78125 -8.203125 6.179688 -8.019531 6.515625 -7.78125 L 6.21875 -7.078125 C 5.863281 -7.304688 5.484375 -7.476562 5.078125 -7.59375 C 4.671875 -7.71875 4.273438 -7.78125 3.890625 -7.78125 C 3.148438 -7.78125 2.59375 -7.632812 2.21875 -7.34375 C 1.84375 -7.0625 1.65625 -6.691406 1.65625 -6.234375 C 1.65625 -5.898438 1.757812 -5.628906 1.96875 -5.421875 C 2.175781 -5.210938 2.429688 -5.054688 2.734375 -4.953125 C 3.046875 -4.847656 3.460938 -4.726562 3.984375 -4.59375 C 4.609375 -4.4375 5.113281 -4.285156 5.5 -4.140625 C 5.882812 -3.992188 6.207031 -3.769531 6.46875 -3.46875 C 6.738281 -3.164062 6.875 -2.753906 6.875 -2.234375 C 6.875 -1.804688 6.757812 -1.414062 6.53125 -1.0625 C 6.300781 -0.71875 5.945312 -0.441406 5.46875 -0.234375 C 4.988281 -0.0234375 4.40625 0.078125 3.71875 0.078125 Z M 3.71875 0.078125 "/></g></g></g><g fill="#ffffff" fill-opacity="1"><g transform="translate(161.471105, 261.863889)"><g/></g></g><g fill="#ffffff" fill-opacity="1"><g transform="translate(170.126534, 261.863889)"><g><path d="M 6.6875 -2.265625 L 1.96875 -2.265625 L 0.953125 0 L 0.03125 0 L 3.890625 -8.46875 L 4.78125 -8.46875 L 8.640625 0 L 7.703125 0 Z M 6.359375 -2.984375 L 4.328125 -7.53125 L 2.296875 -2.984375 Z M 6.359375 -2.984375 "/></g></g></g><g fill="#ffffff" fill-opacity="1"><g transform="translate(184.279321, 261.863889)"><g><path d="M 7.15625 0 L 5.21875 -2.71875 C 5 -2.695312 4.773438 -2.6875 4.546875 -2.6875 L 2.28125 -2.6875 L 2.28125 0 L 1.375 0 L 1.375 -8.46875 L 4.546875 -8.46875 C 5.628906 -8.46875 6.472656 -8.207031 7.078125 -7.6875 C 7.691406 -7.175781 8 -6.46875 8 -5.5625 C 8 -4.90625 7.832031 -4.347656 7.5 -3.890625 C 7.164062 -3.429688 6.691406 -3.101562 6.078125 -2.90625 L 8.140625 0 Z M 4.515625 -3.453125 C 5.359375 -3.453125 6 -3.632812 6.4375 -4 C 6.882812 -4.375 7.109375 -4.894531 7.109375 -5.5625 C 7.109375 -6.25 6.882812 -6.773438 6.4375 -7.140625 C 6 -7.503906 5.359375 -7.6875 4.515625 -7.6875 L 2.28125 -7.6875 L 2.28125 -3.453125 Z M 4.515625 -3.453125 "/></g></g></g><g fill="#ffffff" fill-opacity="1"><g transform="translate(198.50459, 261.863889)"><g><path d="M 3.03125 -7.6875 L 0.046875 -7.6875 L 0.046875 -8.46875 L 6.890625 -8.46875 L 6.890625 -7.6875 L 3.921875 -7.6875 L 3.921875 0 L 3.03125 0 Z M 3.03125 -7.6875 "/></g></g></g><g fill="#ffffff" fill-opacity="1"><g transform="translate(210.929634, 261.863889)"><g><path d="M 7.359375 -0.78125 L 7.359375 0 L 1.375 0 L 1.375 -8.46875 L 7.1875 -8.46875 L 7.1875 -7.6875 L 2.28125 -7.6875 L 2.28125 -4.6875 L 6.65625 -4.6875 L 6.65625 -3.921875 L 2.28125 -3.921875 L 2.28125 -0.78125 Z M 7.359375 -0.78125 "/></g></g></g><g fill="#ffffff" fill-opacity="1"><g transform="translate(224.502474, 261.863889)"><g><path d="M 3.71875 0.078125 C 3.082031 0.078125 2.476562 -0.0195312 1.90625 -0.21875 C 1.332031 -0.425781 0.882812 -0.695312 0.5625 -1.03125 L 0.921875 -1.71875 C 1.222656 -1.40625 1.628906 -1.15625 2.140625 -0.96875 C 2.648438 -0.78125 3.175781 -0.6875 3.71875 -0.6875 C 4.46875 -0.6875 5.03125 -0.828125 5.40625 -1.109375 C 5.789062 -1.390625 5.984375 -1.75 5.984375 -2.1875 C 5.984375 -2.53125 5.878906 -2.800781 5.671875 -3 C 5.472656 -3.195312 5.222656 -3.347656 4.921875 -3.453125 C 4.617188 -3.566406 4.203125 -3.691406 3.671875 -3.828125 C 3.035156 -3.984375 2.523438 -4.132812 2.140625 -4.28125 C 1.765625 -4.4375 1.441406 -4.664062 1.171875 -4.96875 C 0.910156 -5.28125 0.78125 -5.695312 0.78125 -6.21875 C 0.78125 -6.644531 0.890625 -7.03125 1.109375 -7.375 C 1.335938 -7.726562 1.6875 -8.007812 2.15625 -8.21875 C 2.625 -8.425781 3.203125 -8.53125 3.890625 -8.53125 C 4.378906 -8.53125 4.851562 -8.460938 5.3125 -8.328125 C 5.78125 -8.203125 6.179688 -8.019531 6.515625 -7.78125 L 6.21875 -7.078125 C 5.863281 -7.304688 5.484375 -7.476562 5.078125 -7.59375 C 4.671875 -7.71875 4.273438 -7.78125 3.890625 -7.78125 C 3.148438 -7.78125 2.59375 -7.632812 2.21875 -7.34375 C 1.84375 -7.0625 1.65625 -6.691406 1.65625 -6.234375 C 1.65625 -5.898438 1.757812 -5.628906 1.96875 -5.421875 C 2.175781 -5.210938 2.429688 -5.054688 2.734375 -4.953125 C 3.046875 -4.847656 3.460938 -4.726562 3.984375 -4.59375 C 4.609375 -4.4375 5.113281 -4.285156 5.5 -4.140625 C 5.882812 -3.992188 6.207031 -3.769531 6.46875 -3.46875 C 6.738281 -3.164062 6.875 -2.753906 6.875 -2.234375 C 6.875 -1.804688 6.757812 -1.414062 6.53125 -1.0625 C 6.300781 -0.71875 5.945312 -0.441406 5.46875 -0.234375 C 4.988281 -0.0234375 4.40625 0.078125 3.71875 0.078125 Z M 3.71875 0.078125 "/></g></g></g><g fill="#ffffff" fill-opacity="1"><g transform="translate(237.422876, 261.863889)"><g><path d="M 6.6875 -2.265625 L 1.96875 -2.265625 L 0.953125 0 L 0.03125 0 L 3.890625 -8.46875 L 4.78125 -8.46875 L 8.640625 0 L 7.703125 0 Z M 6.359375 -2.984375 L 4.328125 -7.53125 L 2.296875 -2.984375 Z M 6.359375 -2.984375 "/></g></g></g><g fill="#ffffff" fill-opacity="1"><g transform="translate(251.575658, 261.863889)"><g><path d="M 8.453125 -8.46875 L 8.453125 0 L 7.71875 0 L 2.28125 -6.875 L 2.28125 0 L 1.375 0 L 1.375 -8.46875 L 2.109375 -8.46875 L 7.578125 -1.59375 L 7.578125 -8.46875 Z M 8.453125 -8.46875 "/></g></g></g><g fill="#ffffff" fill-opacity="1"><g transform="translate(266.88832, 261.863889)"><g><path d="M 6.6875 -2.265625 L 1.96875 -2.265625 L 0.953125 0 L 0.03125 0 L 3.890625 -8.46875 L 4.78125 -8.46875 L 8.640625 0 L 7.703125 0 Z M 6.359375 -2.984375 L 4.328125 -7.53125 L 2.296875 -2.984375 Z M 6.359375 -2.984375 "/></g></g></g><g fill="#ffffff" fill-opacity="1"><g transform="translate(281.041102, 261.863889)"><g><path d="M 1.375 -8.46875 L 2.28125 -8.46875 L 2.28125 0 L 1.375 0 Z M 1.375 -8.46875 "/></g></g></g><g fill="#ffffff" fill-opacity="1"><g transform="translate(290.179827, 261.863889)"><g><path d="M 3.71875 0.078125 C 3.082031 0.078125 2.476562 -0.0195312 1.90625 -0.21875 C 1.332031 -0.425781 0.882812 -0.695312 0.5625 -1.03125 L 0.921875 -1.71875 C 1.222656 -1.40625 1.628906 -1.15625 2.140625 -0.96875 C 2.648438 -0.78125 3.175781 -0.6875 3.71875 -0.6875 C 4.46875 -0.6875 5.03125 -0.828125 5.40625 -1.109375 C 5.789062 -1.390625 5.984375 -1.75 5.984375 -2.1875 C 5.984375 -2.53125 5.878906 -2.800781 5.671875 -3 C 5.472656 -3.195312 5.222656 -3.347656 4.921875 -3.453125 C 4.617188 -3.566406 4.203125 -3.691406 3.671875 -3.828125 C 3.035156 -3.984375 2.523438 -4.132812 2.140625 -4.28125 C 1.765625 -4.4375 1.441406 -4.664062 1.171875 -4.96875 C 0.910156 -5.28125 0.78125 -5.695312 0.78125 -6.21875 C 0.78125 -6.644531 0.890625 -7.03125 1.109375 -7.375 C 1.335938 -7.726562 1.6875 -8.007812 2.15625 -8.21875 C 2.625 -8.425781 3.203125 -8.53125 3.890625 -8.53125 C 4.378906 -8.53125 4.851562 -8.460938 5.3125 -8.328125 C 5.78125 -8.203125 6.179688 -8.019531 6.515625 -7.78125 L 6.21875 -7.078125 C 5.863281 -7.304688 5.484375 -7.476562 5.078125 -7.59375 C 4.671875 -7.71875 4.273438 -7.78125 3.890625 -7.78125 C 3.148438 -7.78125 2.59375 -7.632812 2.21875 -7.34375 C 1.84375 -7.0625 1.65625 -6.691406 1.65625 -6.234375 C 1.65625 -5.898438 1.757812 -5.628906 1.96875 -5.421875 C 2.175781 -5.210938 2.429688 -5.054688 2.734375 -4.953125 C 3.046875 -4.847656 3.460938 -4.726562 3.984375 -4.59375 C 4.609375 -4.4375 5.113281 -4.285156 5.5 -4.140625 C 5.882812 -3.992188 6.207031 -3.769531 6.46875 -3.46875 C 6.738281 -3.164062 6.875 -2.753906 6.875 -2.234375 C 6.875 -1.804688 6.757812 -1.414062 6.53125 -1.0625 C 6.300781 -0.71875 5.945312 -0.441406 5.46875 -0.234375 C 4.988281 -0.0234375 4.40625 0.078125 3.71875 0.078125 Z M 3.71875 0.078125 "/></g></g></g></svg>