<svg xmlns="http://www.w3.org/2000/svg" xmlns:xlink="http://www.w3.org/1999/xlink" width="500" zoomAndPan="magnify" viewBox="0 0 375 374.999991" height="500" preserveAspectRatio="xMidYMid meet" version="1.0"><defs><g/><clipPath id="e7006b7820"><path d="M 109.761719 97.191406 L 263.8125 97.191406 L 263.8125 153.367188 L 109.761719 153.367188 Z M 109.761719 97.191406 " clip-rule="nonzero"/></clipPath><clipPath id="d89e6e6a2e"><path d="M 109.570312 247.578125 L 264 247.578125 L 264 278.664062 L 109.570312 278.664062 Z M 109.570312 247.578125 " clip-rule="nonzero"/></clipPath><clipPath id="c9213fc670"><path d="M 229 232 L 260 232 L 260 239 L 229 239 Z M 229 232 " clip-rule="nonzero"/></clipPath><clipPath id="09002cf652"><path d="M 229.667969 233.789062 L 259.597656 231.769531 L 259.953125 237.007812 L 230.019531 239.027344 Z M 229.667969 233.789062 " clip-rule="nonzero"/></clipPath><clipPath id="199c6f7014"><path d="M 259.375 231.785156 L 229.445312 233.804688 L 229.796875 239.042969 L 259.730469 237.019531 Z M 259.375 231.785156 " clip-rule="nonzero"/></clipPath><clipPath id="ef5c7802e7"><path d="M 112 232 L 143 232 L 143 239 L 112 239 Z M 112 232 " clip-rule="nonzero"/></clipPath><clipPath id="4f34ef4575"><path d="M 112.609375 231.800781 L 142.542969 233.785156 L 142.195312 239.023438 L 112.261719 237.039062 Z M 112.609375 231.800781 " clip-rule="nonzero"/></clipPath><clipPath id="81ef71831d"><path d="M 112.609375 231.800781 L 142.542969 233.785156 L 142.195312 239.023438 L 112.261719 237.039062 Z M 112.609375 231.800781 " clip-rule="nonzero"/></clipPath></defs><g clip-path="url(#e7006b7820)"><path fill="#f89700" d="M 125.632812 153.210938 C 157.074219 151.253906 216.691406 152.5625 247.921875 153.210938 C 276.398438 153.796875 260.765625 134.59375 246.128906 120.539062 C 242.355469 116.917969 238.042969 113.65625 233.449219 110.75 C 217.460938 100.632812 199.085938 96.179688 180.996094 97.382812 C 189.425781 102.097656 193.855469 110.414062 193.855469 110.414062 C 183.105469 100.285156 167.027344 99.109375 153.59375 103.929688 C 143.9375 107.398438 134.808594 113.453125 127.425781 120.539062 C 112.785156 134.59375 97.203125 154.976562 125.632812 153.210938 " fill-opacity="1" fill-rule="nonzero"/></g><path fill="#c03f49" d="M 186.941406 158.984375 C 144.625 161.394531 110.234375 161.308594 110.234375 164.175781 C 110.234375 167.039062 144.671875 172.800781 186.941406 169.363281 C 228.75 165.960938 263.648438 167.039062 263.648438 164.175781 C 263.648438 161.308594 232.734375 156.382812 186.941406 158.984375 " fill-opacity="1" fill-rule="nonzero"/><g clip-path="url(#d89e6e6a2e)"><path fill="#f89700" d="M 243.859375 247.902344 C 219.023438 249.835938 189.257812 248.964844 186.855469 248.890625 L 186.855469 248.886719 C 186.855469 248.886719 186.828125 248.886719 186.777344 248.886719 C 186.722656 248.886719 186.695312 248.886719 186.695312 248.886719 L 186.695312 248.890625 C 184.292969 248.964844 154.527344 249.835938 129.691406 247.902344 C 106.085938 246.066406 106.027344 254.675781 115.597656 265.039062 C 127.792969 278.25 183.347656 278.648438 186.695312 278.664062 C 186.695312 278.664062 186.726562 278.664062 186.777344 278.664062 C 186.824219 278.664062 186.855469 278.664062 186.855469 278.664062 C 190.203125 278.648438 245.757812 278.25 257.957031 265.039062 C 267.523438 254.675781 267.464844 246.066406 243.859375 247.902344 " fill-opacity="1" fill-rule="nonzero"/></g><g fill="#44ab42" fill-opacity="1"><g transform="translate(107.747195, 221.271897)"><g><path d="M 10.890625 0.171875 L 1.328125 0.015625 C 1.617188 -0.242188 1.851562 -0.75 2.03125 -1.5 C 2.21875 -2.25 2.347656 -3.113281 2.421875 -4.09375 C 2.492188 -5.082031 2.550781 -6.09375 2.59375 -7.125 C 2.644531 -8.15625 2.671875 -9.097656 2.671875 -9.953125 C 2.671875 -10.816406 2.671875 -11.484375 2.671875 -11.953125 L 3.03125 -34.09375 C 3.039062 -34.5625 3.054688 -35.222656 3.078125 -36.078125 C 3.109375 -36.941406 3.117188 -37.890625 3.109375 -38.921875 C 3.097656 -39.953125 3.070312 -40.960938 3.03125 -41.953125 C 2.988281 -42.953125 2.890625 -43.828125 2.734375 -44.578125 C 2.578125 -45.335938 2.351562 -45.851562 2.0625 -46.125 L 10.828125 -45.984375 C 13.015625 -45.941406 15.023438 -45.484375 16.859375 -44.609375 C 18.691406 -43.742188 20.15625 -42.382812 21.25 -40.53125 C 22.34375 -38.6875 22.867188 -36.304688 22.828125 -33.390625 C 22.796875 -31.378906 22.441406 -29.660156 21.765625 -28.234375 C 21.085938 -26.816406 20.300781 -25.738281 19.40625 -25 C 18.507812 -24.257812 17.707031 -23.894531 17 -23.90625 C 18.625 -23.875 19.96875 -23.34375 21.03125 -22.3125 C 22.09375 -21.28125 22.890625 -19.929688 23.421875 -18.265625 C 23.953125 -16.597656 24.203125 -14.835938 24.171875 -12.984375 C 24.160156 -12.335938 24.09375 -11.46875 23.96875 -10.375 C 23.84375 -9.289062 23.554688 -8.128906 23.109375 -6.890625 C 22.671875 -5.660156 21.976562 -4.5 21.03125 -3.40625 C 20.082031 -2.3125 18.789062 -1.429688 17.15625 -0.765625 C 15.519531 -0.0976562 13.429688 0.210938 10.890625 0.171875 Z M 10.25 -20.21875 L 10.03125 -6.265625 C 10.320312 -6.253906 10.582031 -6.25 10.8125 -6.25 C 11.050781 -6.25 11.289062 -6.242188 11.53125 -6.234375 C 12.6875 -6.210938 13.648438 -6.519531 14.421875 -7.15625 C 15.203125 -7.800781 15.789062 -8.644531 16.1875 -9.6875 C 16.59375 -10.726562 16.804688 -11.835938 16.828125 -13.015625 C 16.859375 -15.460938 16.390625 -17.265625 15.421875 -18.421875 C 14.453125 -19.578125 13.226562 -20.164062 11.75 -20.1875 Z M 10.953125 -39.640625 L 10.5625 -39.65625 L 10.359375 -26.640625 L 10.671875 -26.625 C 11.878906 -26.613281 12.828125 -26.925781 13.515625 -27.5625 C 14.203125 -28.195312 14.691406 -29.035156 14.984375 -30.078125 C 15.285156 -31.117188 15.445312 -32.234375 15.46875 -33.421875 C 15.476562 -34.390625 15.347656 -35.347656 15.078125 -36.296875 C 14.816406 -37.253906 14.359375 -38.046875 13.703125 -38.671875 C 13.054688 -39.304688 12.140625 -39.628906 10.953125 -39.640625 Z M 10.953125 -39.640625 "/></g></g></g><g fill="#44ab42" fill-opacity="1"><g transform="translate(134.286005, 221.696626)"><g><path d="M 1.765625 -46.125 L 11.46875 -46.03125 C 11.1875 -45.78125 10.960938 -45.273438 10.796875 -44.515625 C 10.628906 -43.765625 10.503906 -42.894531 10.421875 -41.90625 C 10.335938 -40.914062 10.28125 -39.90625 10.25 -38.875 C 10.226562 -37.84375 10.210938 -36.894531 10.203125 -36.03125 C 10.203125 -35.175781 10.195312 -34.515625 10.1875 -34.046875 L 10.09375 -23.203125 C 10.09375 -23.203125 10.085938 -22.921875 10.078125 -22.359375 C 10.078125 -21.796875 10.070312 -21.085938 10.0625 -20.234375 C 10.050781 -19.378906 10.039062 -18.476562 10.03125 -17.53125 C 10.03125 -16.582031 10.023438 -15.703125 10.015625 -14.890625 C 10.003906 -14.078125 10 -13.4375 10 -12.96875 C 9.988281 -12.257812 10.023438 -11.503906 10.109375 -10.703125 C 10.191406 -9.910156 10.359375 -9.15625 10.609375 -8.4375 C 10.867188 -7.726562 11.25 -7.148438 11.75 -6.703125 C 12.25 -6.265625 12.898438 -6.039062 13.703125 -6.03125 C 14.492188 -6.019531 15.132812 -6.234375 15.625 -6.671875 C 16.113281 -7.109375 16.492188 -7.679688 16.765625 -8.390625 C 17.046875 -9.097656 17.234375 -9.847656 17.328125 -10.640625 C 17.421875 -11.441406 17.472656 -12.195312 17.484375 -12.90625 L 17.53125 -23.3125 C 17.53125 -23.28125 17.53125 -23.546875 17.53125 -24.109375 C 17.539062 -24.671875 17.550781 -25.398438 17.5625 -26.296875 C 17.570312 -27.203125 17.578125 -28.15625 17.578125 -29.15625 C 17.585938 -30.15625 17.597656 -31.082031 17.609375 -31.9375 C 17.617188 -32.800781 17.625 -33.46875 17.625 -33.9375 C 17.632812 -34.414062 17.648438 -35.082031 17.671875 -35.9375 C 17.691406 -36.789062 17.691406 -37.734375 17.671875 -38.765625 C 17.648438 -39.796875 17.613281 -40.804688 17.5625 -41.796875 C 17.519531 -42.785156 17.421875 -43.65625 17.265625 -44.40625 C 17.109375 -45.164062 16.882812 -45.675781 16.59375 -45.9375 L 26.34375 -45.84375 C 26.039062 -45.59375 25.800781 -45.085938 25.625 -44.328125 C 25.457031 -43.578125 25.335938 -42.707031 25.265625 -41.71875 C 25.203125 -40.726562 25.148438 -39.71875 25.109375 -38.6875 C 25.066406 -37.65625 25.050781 -36.710938 25.0625 -35.859375 C 25.070312 -35.003906 25.070312 -34.335938 25.0625 -33.859375 L 24.890625 -15.171875 C 24.867188 -13.222656 24.800781 -11.59375 24.6875 -10.28125 C 24.570312 -8.96875 24.375 -7.832031 24.09375 -6.875 C 23.820312 -5.925781 23.410156 -4.976562 22.859375 -4.03125 C 22.035156 -2.6875 20.832031 -1.578125 19.25 -0.703125 C 17.664062 0.160156 15.796875 0.582031 13.640625 0.5625 C 11.484375 0.539062 9.617188 0.0820312 8.046875 -0.8125 C 6.472656 -1.71875 5.28125 -2.847656 4.46875 -4.203125 C 3.914062 -5.160156 3.503906 -6.117188 3.234375 -7.078125 C 2.960938 -8.035156 2.785156 -9.171875 2.703125 -10.484375 C 2.628906 -11.804688 2.601562 -13.441406 2.625 -15.390625 C 2.632812 -15.984375 2.640625 -16.710938 2.640625 -17.578125 C 2.648438 -18.453125 2.660156 -19.320312 2.671875 -20.1875 C 2.679688 -21.0625 2.6875 -21.796875 2.6875 -22.390625 C 2.695312 -22.984375 2.703125 -23.28125 2.703125 -23.28125 L 2.796875 -34.125 C 2.804688 -34.59375 2.820312 -35.253906 2.84375 -36.109375 C 2.863281 -36.960938 2.863281 -37.90625 2.84375 -38.9375 C 2.820312 -39.976562 2.785156 -40.992188 2.734375 -41.984375 C 2.691406 -42.972656 2.585938 -43.84375 2.421875 -44.59375 C 2.265625 -45.351562 2.046875 -45.863281 1.765625 -46.125 Z M 1.765625 -46.125 "/></g></g></g><g fill="#44ab42" fill-opacity="1"><g transform="translate(163.217752, 221.956959)"><g><path d="M 10.984375 0.03125 L 1.328125 0 C 1.617188 -0.269531 1.847656 -0.78125 2.015625 -1.53125 C 2.179688 -2.28125 2.296875 -3.148438 2.359375 -4.140625 C 2.421875 -5.128906 2.46875 -6.140625 2.5 -7.171875 C 2.53125 -8.203125 2.539062 -9.144531 2.53125 -10 C 2.519531 -10.863281 2.515625 -11.53125 2.515625 -12 L 2.578125 -34.140625 C 2.578125 -34.609375 2.582031 -35.269531 2.59375 -36.125 C 2.613281 -36.988281 2.609375 -37.9375 2.578125 -38.96875 C 2.554688 -40 2.515625 -41.007812 2.453125 -42 C 2.398438 -42.988281 2.289062 -43.859375 2.125 -44.609375 C 1.96875 -45.367188 1.742188 -45.878906 1.453125 -46.140625 L 9.296875 -46.109375 C 11.859375 -46.109375 14.160156 -45.722656 16.203125 -44.953125 C 18.253906 -44.179688 19.878906 -42.925781 21.078125 -41.1875 C 22.273438 -39.457031 22.867188 -37.144531 22.859375 -34.25 C 22.847656 -32.800781 22.617188 -31.410156 22.171875 -30.078125 C 21.734375 -28.753906 21.125 -27.59375 20.34375 -26.59375 C 19.570312 -25.601562 18.6875 -24.859375 17.6875 -24.359375 C 19.039062 -23.910156 20.0625 -23.273438 20.75 -22.453125 C 21.445312 -21.640625 21.921875 -20.691406 22.171875 -19.609375 C 22.421875 -18.535156 22.546875 -17.394531 22.546875 -16.1875 C 22.546875 -15.269531 22.535156 -14.515625 22.515625 -13.921875 C 22.492188 -13.335938 22.484375 -12.675781 22.484375 -11.9375 C 22.484375 -11.46875 22.476562 -10.800781 22.46875 -9.9375 C 22.46875 -9.082031 22.472656 -8.140625 22.484375 -7.109375 C 22.503906 -6.078125 22.546875 -5.066406 22.609375 -4.078125 C 22.679688 -3.085938 22.796875 -2.21875 22.953125 -1.46875 C 23.117188 -0.71875 23.335938 -0.207031 23.609375 0.0625 L 17.84375 0 L 13.953125 0.03125 C 14.242188 -0.238281 14.46875 -0.742188 14.625 -1.484375 C 14.789062 -2.234375 14.90625 -3.101562 14.96875 -4.09375 C 15.039062 -5.082031 15.085938 -6.09375 15.109375 -7.125 C 15.140625 -8.15625 15.148438 -9.097656 15.140625 -9.953125 C 15.128906 -10.816406 15.125 -11.484375 15.125 -11.953125 C 15.125 -13.046875 15.113281 -14.09375 15.09375 -15.09375 C 15.070312 -16.101562 14.945312 -17.015625 14.71875 -17.828125 C 14.5 -18.640625 14.113281 -19.28125 13.5625 -19.75 C 13.007812 -20.226562 12.1875 -20.46875 11.09375 -20.46875 L 9.9375 -20.46875 C 9.9375 -20.46875 9.929688 -20.140625 9.921875 -19.484375 C 9.921875 -18.835938 9.910156 -18.035156 9.890625 -17.078125 C 9.878906 -16.117188 9.867188 -15.175781 9.859375 -14.25 C 9.859375 -13.320312 9.859375 -12.5625 9.859375 -11.96875 C 9.859375 -11.5 9.851562 -10.832031 9.84375 -9.96875 C 9.84375 -9.113281 9.847656 -8.171875 9.859375 -7.140625 C 9.878906 -6.109375 9.921875 -5.097656 9.984375 -4.109375 C 10.054688 -3.117188 10.171875 -2.25 10.328125 -1.5 C 10.492188 -0.75 10.710938 -0.238281 10.984375 0.03125 Z M 11.53125 -39.328125 L 9.984375 -39.328125 L 9.953125 -26.5 C 10.929688 -26.5 11.835938 -26.789062 12.671875 -27.375 C 13.515625 -27.96875 14.1875 -28.8125 14.6875 -29.90625 C 15.1875 -31.007812 15.441406 -32.316406 15.453125 -33.828125 C 15.453125 -35.359375 15.128906 -36.65625 14.484375 -37.71875 C 13.847656 -38.789062 12.863281 -39.328125 11.53125 -39.328125 Z M 11.53125 -39.328125 "/></g></g></g><g fill="#44ab42" fill-opacity="1"><g transform="translate(189.402571, 222.024066)"><g><path d="M 2.09375 -30.75 C 2.09375 -32.695312 2.132812 -34.328125 2.21875 -35.640625 C 2.300781 -36.953125 2.472656 -38.09375 2.734375 -39.0625 C 2.992188 -40.039062 3.40625 -40.988281 3.96875 -41.90625 C 4.78125 -43.257812 5.910156 -44.378906 7.359375 -45.265625 C 8.804688 -46.160156 10.609375 -46.613281 12.765625 -46.625 C 14.941406 -46.632812 16.753906 -46.195312 18.203125 -45.3125 C 19.648438 -44.4375 20.789062 -43.320312 21.625 -41.96875 C 22.1875 -41.0625 22.609375 -40.117188 22.890625 -39.140625 C 23.179688 -38.171875 23.375 -37.03125 23.46875 -35.71875 C 23.5625 -34.40625 23.609375 -32.773438 23.609375 -30.828125 L 23.625 -29.984375 L 16.1875 -29.953125 L 16.171875 -33.09375 C 16.171875 -33.800781 16.140625 -34.550781 16.078125 -35.34375 C 16.015625 -36.144531 15.878906 -36.890625 15.671875 -37.578125 C 15.460938 -38.273438 15.125 -38.835938 14.65625 -39.265625 C 14.195312 -39.691406 13.570312 -39.90625 12.78125 -39.90625 C 11.976562 -39.90625 11.359375 -39.6875 10.921875 -39.25 C 10.484375 -38.820312 10.160156 -38.257812 9.953125 -37.5625 C 9.742188 -36.863281 9.617188 -36.113281 9.578125 -35.3125 C 9.546875 -34.519531 9.53125 -33.769531 9.53125 -33.0625 L 9.609375 -13.140625 C 9.609375 -12.429688 9.628906 -11.6875 9.671875 -10.90625 C 9.722656 -10.125 9.851562 -9.394531 10.0625 -8.71875 C 10.269531 -8.039062 10.59375 -7.488281 11.03125 -7.0625 C 11.476562 -6.632812 12.101562 -6.421875 12.90625 -6.421875 C 13.988281 -6.429688 14.757812 -6.796875 15.21875 -7.515625 C 15.675781 -8.242188 15.960938 -9.128906 16.078125 -10.171875 C 16.191406 -11.222656 16.25 -12.222656 16.25 -13.171875 L 16.21875 -18.609375 L 12.015625 -18.59375 L 12 -24.984375 L 23.640625 -25.03125 L 23.671875 -15.5 C 23.679688 -13.550781 23.644531 -11.921875 23.5625 -10.609375 C 23.476562 -9.296875 23.296875 -8.160156 23.015625 -7.203125 C 22.742188 -6.242188 22.328125 -5.300781 21.765625 -4.375 C 20.941406 -3.019531 19.804688 -1.890625 18.359375 -0.984375 C 16.921875 -0.078125 15.113281 0.378906 12.9375 0.390625 C 10.78125 0.398438 8.972656 -0.0390625 7.515625 -0.9375 C 6.066406 -1.832031 4.929688 -2.957031 4.109375 -4.3125 C 3.578125 -5.226562 3.164062 -6.164062 2.875 -7.125 C 2.59375 -8.082031 2.40625 -9.21875 2.3125 -10.53125 C 2.21875 -11.84375 2.164062 -13.472656 2.15625 -15.421875 Z M 2.09375 -30.75 "/></g></g></g><g fill="#44ab42" fill-opacity="1"><g transform="translate(217.088425, 221.906379)"><g><path d="M 2.140625 -34.171875 C 2.140625 -34.640625 2.140625 -35.300781 2.140625 -36.15625 C 2.148438 -37.019531 2.132812 -37.96875 2.09375 -39 C 2.050781 -40.03125 1.992188 -41.035156 1.921875 -42.015625 C 1.859375 -43.003906 1.738281 -43.875 1.5625 -44.625 C 1.394531 -45.382812 1.160156 -45.894531 0.859375 -46.15625 L 20.703125 -46.359375 L 20.78125 -38.5625 C 19.59375 -39.070312 18.566406 -39.425781 17.703125 -39.625 C 16.847656 -39.832031 15.96875 -39.9375 15.0625 -39.9375 C 14.164062 -39.945312 13.007812 -39.945312 11.59375 -39.9375 L 9.515625 -39.90625 L 9.625 -29.9375 L 13.4375 -29.984375 C 14.726562 -29.992188 15.785156 -30.097656 16.609375 -30.296875 C 17.429688 -30.503906 18.269531 -30.847656 19.125 -31.328125 L 19.21875 -22.34375 C 18.351562 -22.800781 17.503906 -23.128906 16.671875 -23.328125 C 15.847656 -23.523438 14.789062 -23.617188 13.5 -23.609375 L 9.6875 -23.5625 L 9.859375 -6.46875 L 11.9375 -6.5 C 13.351562 -6.507812 14.507812 -6.523438 15.40625 -6.546875 C 16.3125 -6.578125 17.1875 -6.691406 18.03125 -6.890625 C 18.882812 -7.085938 19.90625 -7.460938 21.09375 -8.015625 L 21.171875 -0.21875 L 1.328125 -0.015625 C 1.617188 -0.285156 1.84375 -0.796875 2 -1.546875 C 2.15625 -2.296875 2.253906 -3.164062 2.296875 -4.15625 C 2.347656 -5.15625 2.382812 -6.171875 2.40625 -7.203125 C 2.425781 -8.234375 2.425781 -9.175781 2.40625 -10.03125 C 2.382812 -10.894531 2.367188 -11.5625 2.359375 -12.03125 Z M 2.140625 -34.171875 "/></g></g></g><g fill="#44ab42" fill-opacity="1"><g transform="translate(240.873393, 221.66541)"><g><path d="M 10.984375 -0.171875 L 1.328125 -0.015625 C 1.617188 -0.296875 1.835938 -0.8125 1.984375 -1.5625 C 2.140625 -2.3125 2.238281 -3.179688 2.28125 -4.171875 C 2.320312 -5.171875 2.347656 -6.1875 2.359375 -7.21875 C 2.378906 -8.25 2.375 -9.191406 2.34375 -10.046875 C 2.3125 -10.910156 2.296875 -11.578125 2.296875 -12.046875 L 1.9375 -34.1875 C 1.925781 -34.65625 1.921875 -35.316406 1.921875 -36.171875 C 1.921875 -37.035156 1.894531 -37.984375 1.84375 -39.015625 C 1.800781 -40.046875 1.742188 -41.050781 1.671875 -42.03125 C 1.597656 -43.019531 1.472656 -43.890625 1.296875 -44.640625 C 1.117188 -45.398438 0.878906 -45.90625 0.578125 -46.15625 L 8.421875 -46.28125 C 10.984375 -46.320312 13.296875 -45.976562 15.359375 -45.25 C 17.429688 -44.519531 19.078125 -43.296875 20.296875 -41.578125 C 21.523438 -39.867188 22.164062 -37.566406 22.21875 -34.671875 C 22.238281 -33.222656 22.035156 -31.832031 21.609375 -30.5 C 21.191406 -29.164062 20.601562 -27.992188 19.84375 -26.984375 C 19.09375 -25.972656 18.222656 -25.207031 17.234375 -24.6875 C 18.597656 -24.257812 19.628906 -23.644531 20.328125 -22.84375 C 21.035156 -22.039062 21.523438 -21.101562 21.796875 -20.03125 C 22.066406 -18.957031 22.210938 -17.816406 22.234375 -16.609375 C 22.253906 -15.691406 22.257812 -14.9375 22.25 -14.34375 C 22.238281 -13.757812 22.242188 -13.097656 22.265625 -12.359375 C 22.265625 -11.890625 22.269531 -11.222656 22.28125 -10.359375 C 22.300781 -9.503906 22.328125 -8.5625 22.359375 -7.53125 C 22.390625 -6.5 22.445312 -5.488281 22.53125 -4.5 C 22.625 -3.507812 22.757812 -2.640625 22.9375 -1.890625 C 23.113281 -1.148438 23.335938 -0.644531 23.609375 -0.375 L 17.84375 -0.328125 L 13.953125 -0.21875 C 14.242188 -0.5 14.460938 -1.015625 14.609375 -1.765625 C 14.753906 -2.515625 14.847656 -3.382812 14.890625 -4.375 C 14.941406 -5.375 14.972656 -6.390625 14.984375 -7.421875 C 14.992188 -8.453125 14.984375 -9.394531 14.953125 -10.25 C 14.921875 -11.113281 14.90625 -11.78125 14.90625 -12.25 C 14.882812 -13.34375 14.851562 -14.390625 14.8125 -15.390625 C 14.769531 -16.390625 14.628906 -17.289062 14.390625 -18.09375 C 14.148438 -18.90625 13.75 -19.539062 13.1875 -20 C 12.625 -20.46875 11.796875 -20.691406 10.703125 -20.671875 L 9.546875 -20.65625 C 9.546875 -20.65625 9.550781 -20.328125 9.5625 -19.671875 C 9.570312 -19.023438 9.578125 -18.222656 9.578125 -17.265625 C 9.578125 -16.304688 9.582031 -15.363281 9.59375 -14.4375 C 9.613281 -13.507812 9.628906 -12.75 9.640625 -12.15625 C 9.640625 -11.6875 9.644531 -11.019531 9.65625 -10.15625 C 9.675781 -9.300781 9.703125 -8.359375 9.734375 -7.328125 C 9.765625 -6.296875 9.820312 -5.285156 9.90625 -4.296875 C 10 -3.304688 10.132812 -2.4375 10.3125 -1.6875 C 10.488281 -0.945312 10.710938 -0.441406 10.984375 -0.171875 Z M 10.78125 -39.546875 L 9.234375 -39.515625 L 9.453125 -26.6875 C 10.429688 -26.707031 11.332031 -27.015625 12.15625 -27.609375 C 12.988281 -28.210938 13.644531 -29.070312 14.125 -30.1875 C 14.601562 -31.300781 14.832031 -32.613281 14.8125 -34.125 C 14.789062 -35.65625 14.445312 -36.945312 13.78125 -38 C 13.113281 -39.050781 12.113281 -39.566406 10.78125 -39.546875 Z M 10.78125 -39.546875 "/></g></g></g><g clip-path="url(#c9213fc670)"><g clip-path="url(#09002cf652)"><g clip-path="url(#199c6f7014)"><path fill="#f89700" d="M 249.316406 232.859375 C 249.164062 232.882812 249.007812 232.894531 248.851562 232.882812 C 248.796875 232.875 248.742188 232.882812 248.6875 232.882812 C 247.5 232.933594 246.3125 233 245.128906 233.074219 C 244.558594 233.109375 243.992188 233.113281 243.421875 233.097656 C 243.003906 233.085938 242.589844 233.097656 242.171875 233.089844 C 241.339844 233.074219 240.507812 233.109375 239.679688 233.199219 C 239.183594 233.253906 238.6875 233.351562 238.199219 233.457031 C 237.527344 233.597656 236.871094 233.78125 236.183594 233.84375 C 235.519531 233.902344 234.867188 233.871094 234.210938 233.769531 C 233.507812 233.65625 232.800781 233.585938 232.089844 233.671875 C 231.453125 233.753906 230.863281 233.953125 230.347656 234.34375 C 230.0625 234.5625 229.890625 234.847656 229.839844 235.207031 C 229.785156 235.59375 229.914062 235.90625 230.203125 236.160156 C 230.484375 236.40625 230.796875 236.609375 231.105469 236.816406 C 231.78125 237.265625 232.535156 237.441406 233.328125 237.492188 C 233.902344 237.53125 234.476562 237.523438 235.050781 237.484375 C 236.011719 237.417969 236.96875 237.382812 237.929688 237.394531 C 238.757812 237.402344 239.578125 237.46875 240.390625 237.632812 C 240.96875 237.75 241.550781 237.863281 242.140625 237.941406 C 242.742188 238.023438 243.34375 238.082031 243.949219 238.105469 C 244.464844 238.125 244.984375 238.15625 245.503906 238.171875 C 246.09375 238.1875 246.679688 238.160156 247.261719 238.085938 C 247.96875 237.996094 248.621094 237.734375 249.253906 237.417969 C 249.980469 237.050781 250.742188 236.761719 251.527344 236.542969 C 251.828125 236.457031 252.132812 236.398438 252.445312 236.378906 C 252.835938 236.355469 253.230469 236.320312 253.621094 236.3125 C 254.140625 236.296875 254.660156 236.304688 255.179688 236.300781 C 255.296875 236.300781 255.410156 236.289062 255.527344 236.285156 C 256.027344 236.273438 256.53125 236.269531 257.03125 236.253906 C 257.484375 236.242188 257.9375 236.199219 258.382812 236.125 C 258.535156 236.101562 258.683594 236.0625 258.828125 236.007812 C 259.359375 235.816406 259.613281 235.3125 259.457031 234.730469 C 259.378906 234.433594 259.214844 234.183594 258.988281 233.976562 C 258.488281 233.515625 257.902344 233.207031 257.242188 233.042969 C 256.515625 232.867188 255.773438 232.792969 255.023438 232.777344 C 254.386719 232.761719 253.753906 232.789062 253.117188 232.796875 C 252.804688 232.796875 252.496094 232.777344 252.183594 232.769531 C 251.980469 232.765625 251.78125 232.761719 251.578125 232.761719 C 251.007812 232.761719 250.011719 232.804688 249.347656 232.851562 " fill-opacity="1" fill-rule="nonzero"/></g></g></g><g clip-path="url(#ef5c7802e7)"><g clip-path="url(#4f34ef4575)"><g clip-path="url(#81ef71831d)"><path fill="#f89700" d="M 122.667969 232.867188 C 122.824219 232.886719 122.976562 232.902344 123.132812 232.886719 C 123.1875 232.882812 123.242188 232.886719 123.300781 232.890625 C 124.484375 232.9375 125.671875 233 126.859375 233.074219 C 127.425781 233.109375 127.996094 233.113281 128.5625 233.097656 C 128.980469 233.082031 129.394531 233.097656 129.8125 233.085938 C 130.644531 233.070312 131.476562 233.105469 132.304688 233.195312 C 132.804688 233.246094 133.296875 233.34375 133.789062 233.449219 C 134.457031 233.585938 135.117188 233.773438 135.800781 233.832031 C 136.464844 233.890625 137.121094 233.859375 137.777344 233.753906 C 138.480469 233.644531 139.183594 233.570312 139.894531 233.65625 C 140.53125 233.734375 141.125 233.933594 141.640625 234.324219 C 141.925781 234.542969 142.097656 234.828125 142.148438 235.1875 C 142.203125 235.574219 142.074219 235.886719 141.789062 236.140625 C 141.507812 236.386719 141.195312 236.59375 140.882812 236.800781 C 140.210938 237.246094 139.457031 237.425781 138.664062 237.480469 C 138.089844 237.519531 137.515625 237.511719 136.941406 237.472656 C 135.980469 237.40625 135.023438 237.371094 134.058594 237.382812 C 133.234375 237.394531 132.414062 237.464844 131.601562 237.628906 C 131.019531 237.746094 130.4375 237.859375 129.851562 237.941406 C 129.25 238.019531 128.648438 238.078125 128.042969 238.105469 C 127.527344 238.125 127.007812 238.15625 126.488281 238.171875 C 125.898438 238.191406 125.3125 238.164062 124.726562 238.089844 C 124.023438 238 123.371094 237.738281 122.738281 237.421875 C 122.007812 237.058594 121.25 236.769531 120.464844 236.550781 C 120.164062 236.464844 119.855469 236.410156 119.542969 236.390625 C 119.152344 236.367188 118.761719 236.332031 118.371094 236.324219 C 117.851562 236.308594 117.332031 236.316406 116.8125 236.3125 C 116.695312 236.3125 116.578125 236.300781 116.460938 236.300781 C 115.960938 236.289062 115.457031 236.285156 114.957031 236.269531 C 114.503906 236.257812 114.054688 236.21875 113.605469 236.144531 C 113.453125 236.117188 113.304688 236.078125 113.164062 236.027344 C 112.628906 235.832031 112.375 235.328125 112.527344 234.75 C 112.609375 234.453125 112.773438 234.203125 112.996094 233.996094 C 113.496094 233.53125 114.082031 233.222656 114.742188 233.058594 C 115.46875 232.882812 116.210938 232.808594 116.960938 232.789062 C 117.597656 232.773438 118.230469 232.800781 118.867188 232.804688 C 119.179688 232.808594 119.492188 232.789062 119.800781 232.777344 C 120.003906 232.773438 120.207031 232.769531 120.40625 232.769531 C 120.976562 232.769531 121.972656 232.8125 122.636719 232.855469 " fill-opacity="1" fill-rule="nonzero"/></g></g></g><g fill="#000000" fill-opacity="1"><g transform="translate(146.697359, 241.333161)"><g><path d="M 1.40625 0.03125 C 1.644531 -0.6875 1.78125 -1.660156 1.8125 -2.890625 L 1.921875 -9.25 C 1.929688 -9.84375 1.90625 -10.394531 1.84375 -10.90625 C 1.789062 -11.414062 1.722656 -11.835938 1.640625 -12.171875 L 5 -12.109375 C 4.894531 -11.753906 4.8125 -11.34375 4.75 -10.875 C 4.6875 -10.40625 4.648438 -9.878906 4.640625 -9.296875 L 4.59375 -7.171875 L 12.203125 -7.015625 L 12.25 -9.140625 C 12.257812 -9.734375 12.238281 -10.269531 12.1875 -10.75 C 12.132812 -11.226562 12.066406 -11.640625 11.984375 -11.984375 L 15.328125 -11.90625 C 15.234375 -11.582031 15.148438 -11.164062 15.078125 -10.65625 C 15.003906 -10.144531 14.960938 -9.59375 14.953125 -9 L 14.84375 -2.640625 C 14.832031 -2.054688 14.847656 -1.503906 14.890625 -0.984375 C 14.929688 -0.472656 15 -0.046875 15.09375 0.296875 L 11.75 0.21875 C 11.851562 -0.101562 11.9375 -0.503906 12 -0.984375 C 12.0625 -1.460938 12.097656 -2 12.109375 -2.59375 L 12.15625 -4.75 L 4.546875 -4.90625 L 4.5 -2.75 C 4.488281 -2.175781 4.503906 -1.648438 4.546875 -1.171875 C 4.585938 -0.703125 4.660156 -0.28125 4.765625 0.09375 Z M 1.40625 0.03125 "/></g></g></g><g fill="#000000" fill-opacity="1"><g transform="translate(163.124271, 241.649664)"><g><path d="M 8.328125 0.328125 C 6.878906 0.316406 5.585938 0.0546875 4.453125 -0.453125 C 3.316406 -0.972656 2.425781 -1.710938 1.78125 -2.671875 C 1.132812 -3.628906 0.820312 -4.773438 0.84375 -6.109375 C 0.851562 -7.429688 1.1875 -8.5625 1.84375 -9.5 C 2.5 -10.4375 3.398438 -11.148438 4.546875 -11.640625 C 5.691406 -12.140625 6.988281 -12.382812 8.4375 -12.375 C 9.894531 -12.363281 11.191406 -12.097656 12.328125 -11.578125 C 13.460938 -11.066406 14.351562 -10.332031 15 -9.375 C 15.644531 -8.425781 15.960938 -7.289062 15.953125 -5.96875 C 15.929688 -4.632812 15.59375 -3.492188 14.9375 -2.546875 C 14.28125 -1.609375 13.378906 -0.890625 12.234375 -0.390625 C 11.085938 0.0976562 9.785156 0.335938 8.328125 0.328125 Z M 8.34375 -1.84375 C 9.269531 -1.832031 10.09375 -1.988281 10.8125 -2.3125 C 11.539062 -2.644531 12.113281 -3.125 12.53125 -3.75 C 12.957031 -4.375 13.175781 -5.117188 13.1875 -5.984375 C 13.1875 -6.847656 12.976562 -7.59375 12.5625 -8.21875 C 12.15625 -8.851562 11.59375 -9.335938 10.875 -9.671875 C 10.164062 -10.015625 9.347656 -10.191406 8.421875 -10.203125 C 7.515625 -10.210938 6.695312 -10.050781 5.96875 -9.71875 C 5.238281 -9.394531 4.660156 -8.921875 4.234375 -8.296875 C 3.816406 -7.679688 3.609375 -6.941406 3.609375 -6.078125 C 3.597656 -5.210938 3.796875 -4.460938 4.203125 -3.828125 C 4.617188 -3.191406 5.1875 -2.703125 5.90625 -2.359375 C 6.625 -2.023438 7.4375 -1.851562 8.34375 -1.84375 Z M 8.34375 -1.84375 "/></g></g></g><g fill="#000000" fill-opacity="1"><g transform="translate(179.710326, 241.799447)"><g><path d="M 8.171875 0.234375 C 6.816406 0.242188 5.644531 0.03125 4.65625 -0.40625 C 3.675781 -0.84375 2.925781 -1.476562 2.40625 -2.3125 C 1.882812 -3.144531 1.625 -4.148438 1.625 -5.328125 L 1.609375 -9.28125 C 1.609375 -9.875 1.578125 -10.425781 1.515625 -10.9375 C 1.460938 -11.445312 1.390625 -11.867188 1.296875 -12.203125 L 4.625 -12.203125 C 4.539062 -11.867188 4.46875 -11.4375 4.40625 -10.90625 C 4.351562 -10.375 4.328125 -9.816406 4.328125 -9.234375 L 4.34375 -5.734375 C 4.34375 -5.003906 4.5 -4.367188 4.8125 -3.828125 C 5.132812 -3.285156 5.585938 -2.863281 6.171875 -2.5625 C 6.753906 -2.269531 7.421875 -2.128906 8.171875 -2.140625 C 8.941406 -2.140625 9.613281 -2.285156 10.1875 -2.578125 C 10.769531 -2.878906 11.222656 -3.300781 11.546875 -3.84375 C 11.867188 -4.382812 12.03125 -5.019531 12.03125 -5.75 L 12.015625 -9.25 C 12.015625 -9.832031 11.984375 -10.390625 11.921875 -10.921875 C 11.867188 -11.453125 11.796875 -11.882812 11.703125 -12.21875 L 15.046875 -12.21875 C 14.953125 -11.882812 14.875 -11.460938 14.8125 -10.953125 C 14.757812 -10.441406 14.734375 -9.890625 14.734375 -9.296875 L 14.75 -5.34375 C 14.75 -3.613281 14.175781 -2.25 13.03125 -1.25 C 11.894531 -0.257812 10.273438 0.234375 8.171875 0.234375 Z M 8.171875 0.234375 "/></g></g></g><g fill="#000000" fill-opacity="1"><g transform="translate(195.998333, 241.778558)"><g><path d="M 7.5625 0.171875 C 6.863281 0.179688 6.097656 0.132812 5.265625 0.03125 C 4.441406 -0.0625 3.625 -0.195312 2.8125 -0.375 C 2.007812 -0.550781 1.28125 -0.757812 0.625 -1 L 0.71875 -3.78125 C 1.644531 -3.195312 2.691406 -2.769531 3.859375 -2.5 C 5.023438 -2.238281 6.238281 -2.113281 7.5 -2.125 C 8.601562 -2.132812 9.5 -2.25 10.1875 -2.46875 C 10.875 -2.695312 11.21875 -3.078125 11.21875 -3.609375 C 11.207031 -3.921875 11.054688 -4.171875 10.765625 -4.359375 C 10.472656 -4.546875 10.078125 -4.691406 9.578125 -4.796875 C 9.085938 -4.898438 8.535156 -4.988281 7.921875 -5.0625 C 7.304688 -5.132812 6.671875 -5.210938 6.015625 -5.296875 C 5.359375 -5.378906 4.722656 -5.492188 4.109375 -5.640625 C 3.492188 -5.796875 2.9375 -6.003906 2.4375 -6.265625 C 1.9375 -6.523438 1.539062 -6.867188 1.25 -7.296875 C 0.957031 -7.722656 0.804688 -8.25 0.796875 -8.875 C 0.785156 -9.664062 1.0625 -10.328125 1.625 -10.859375 C 2.195312 -11.390625 2.972656 -11.796875 3.953125 -12.078125 C 4.929688 -12.367188 6.007812 -12.519531 7.1875 -12.53125 C 7.84375 -12.539062 8.507812 -12.503906 9.1875 -12.421875 C 9.875 -12.347656 10.519531 -12.238281 11.125 -12.09375 C 11.738281 -11.957031 12.269531 -11.796875 12.71875 -11.609375 L 12.75 -9.03125 C 12.113281 -9.394531 11.304688 -9.6875 10.328125 -9.90625 C 9.347656 -10.132812 8.335938 -10.242188 7.296875 -10.234375 C 6.648438 -10.222656 6.039062 -10.175781 5.46875 -10.09375 C 4.894531 -10.007812 4.441406 -9.867188 4.109375 -9.671875 C 3.773438 -9.484375 3.609375 -9.21875 3.609375 -8.875 C 3.609375 -8.539062 3.753906 -8.273438 4.046875 -8.078125 C 4.335938 -7.890625 4.726562 -7.738281 5.21875 -7.625 C 5.71875 -7.519531 6.273438 -7.429688 6.890625 -7.359375 C 7.515625 -7.285156 8.15625 -7.207031 8.8125 -7.125 C 9.46875 -7.050781 10.101562 -6.941406 10.71875 -6.796875 C 11.34375 -6.648438 11.898438 -6.453125 12.390625 -6.203125 C 12.890625 -5.953125 13.285156 -5.625 13.578125 -5.21875 C 13.878906 -4.8125 14.035156 -4.289062 14.046875 -3.65625 C 14.046875 -2.882812 13.78125 -2.210938 13.25 -1.640625 C 12.726562 -1.066406 11.984375 -0.625 11.015625 -0.3125 C 10.046875 0 8.894531 0.160156 7.5625 0.171875 Z M 7.5625 0.171875 "/></g></g></g><g fill="#000000" fill-opacity="1"><g transform="translate(210.662183, 241.624047)"><g><path d="M 1.40625 -0.03125 C 1.625 -0.75 1.71875 -1.722656 1.6875 -2.953125 L 1.5625 -9.3125 C 1.550781 -9.90625 1.503906 -10.457031 1.421875 -10.96875 C 1.347656 -11.476562 1.265625 -11.898438 1.171875 -12.234375 L 13.125 -12.46875 L 13.609375 -9.84375 C 13.410156 -9.9375 13.113281 -10.007812 12.71875 -10.0625 C 12.332031 -10.113281 11.835938 -10.128906 11.234375 -10.109375 L 4.265625 -9.984375 L 4.3125 -7.34375 L 9.921875 -7.453125 C 10.722656 -7.460938 11.332031 -7.507812 11.75 -7.59375 L 11.796875 -5.109375 C 11.378906 -5.171875 10.769531 -5.195312 9.96875 -5.1875 L 4.359375 -5.078125 L 4.40625 -2.40625 L 11.5 -2.546875 C 12.1875 -2.554688 12.738281 -2.601562 13.15625 -2.6875 C 13.570312 -2.78125 13.910156 -2.898438 14.171875 -3.046875 L 13.703125 -0.265625 Z M 1.40625 -0.03125 "/></g></g></g></svg>