<svg xmlns="http://www.w3.org/2000/svg" xmlns:xlink="http://www.w3.org/1999/xlink" width="500" zoomAndPan="magnify" viewBox="0 0 375 374.999991" height="500" preserveAspectRatio="xMidYMid meet" version="1.0"><defs><g/><clipPath id="52ecb346cd"><path d="M 68.671875 86.191406 L 306.328125 86.191406 L 306.328125 323.851562 L 68.671875 323.851562 Z M 68.671875 86.191406 " clip-rule="nonzero"/></clipPath><clipPath id="e1690d6cdb"><path d="M 187.5 86.191406 C 121.871094 86.191406 68.671875 139.394531 68.671875 205.023438 C 68.671875 270.648438 121.871094 323.851562 187.5 323.851562 C 253.128906 323.851562 306.328125 270.648438 306.328125 205.023438 C 306.328125 139.394531 253.128906 86.191406 187.5 86.191406 Z M 187.5 86.191406 " clip-rule="nonzero"/></clipPath><clipPath id="5089e2b1af"><path d="M 80.414062 97.9375 L 294.585938 97.9375 L 294.585938 312.105469 L 80.414062 312.105469 Z M 80.414062 97.9375 " clip-rule="nonzero"/></clipPath><clipPath id="6c58659559"><path d="M 187.5 97.9375 C 128.359375 97.9375 80.414062 145.878906 80.414062 205.023438 C 80.414062 264.164062 128.359375 312.105469 187.5 312.105469 C 246.640625 312.105469 294.585938 264.164062 294.585938 205.023438 C 294.585938 145.878906 246.640625 97.9375 187.5 97.9375 Z M 187.5 97.9375 " clip-rule="nonzero"/></clipPath><clipPath id="d4feb9d2a7"><path d="M 142 63.042969 L 173 63.042969 L 173 119 L 142 119 Z M 142 63.042969 " clip-rule="nonzero"/></clipPath><clipPath id="69580ce84a"><path d="M 144 108 L 233.660156 108 L 233.660156 135 L 144 135 Z M 144 108 " clip-rule="nonzero"/></clipPath><clipPath id="89df262d69"><path d="M 268.15625 181 L 326.65625 181 L 326.65625 227 L 268.15625 227 Z M 268.15625 181 " clip-rule="nonzero"/></clipPath><clipPath id="aacee3760b"><path d="M 265.414062 178 L 323.914062 178 L 323.914062 225 L 265.414062 225 Z M 265.414062 178 " clip-rule="nonzero"/></clipPath><clipPath id="356c903029"><path d="M 63.078125 246 L 121 246 L 121 293 L 63.078125 293 Z M 63.078125 246 " clip-rule="nonzero"/></clipPath><clipPath id="4168a2398e"><path d="M 63.078125 242 L 121 242 L 121 289 L 63.078125 289 Z M 63.078125 242 " clip-rule="nonzero"/></clipPath></defs><rect x="-37.5" width="450" fill="#ffffff" y="-37.499999" height="449.999989" fill-opacity="1"/><rect x="-37.5" width="450" fill="#ffffff" y="-37.499999" height="449.999989" fill-opacity="1"/><g clip-path="url(#52ecb346cd)"><g clip-path="url(#e1690d6cdb)"><path fill="#ffc700" d="M 68.671875 86.191406 L 306.328125 86.191406 L 306.328125 323.851562 L 68.671875 323.851562 Z M 68.671875 86.191406 " fill-opacity="1" fill-rule="nonzero"/></g></g><g clip-path="url(#5089e2b1af)"><g clip-path="url(#6c58659559)"><path fill="#470460" d="M 80.414062 97.9375 L 294.585938 97.9375 L 294.585938 312.105469 L 80.414062 312.105469 Z M 80.414062 97.9375 " fill-opacity="1" fill-rule="nonzero"/></g></g><g clip-path="url(#d4feb9d2a7)"><path fill="#bfbfbe" d="M 168.949219 117.976562 C 166.316406 119.136719 163.207031 117.925781 162.023438 115.292969 L 142.570312 71.171875 C 141.410156 68.539062 142.621094 65.429688 145.253906 64.246094 C 147.886719 63.085938 150.992188 64.300781 152.179688 66.929688 L 171.632812 111.054688 C 172.792969 113.6875 171.582031 116.820312 168.949219 117.976562 Z M 168.949219 117.976562 " fill-opacity="1" fill-rule="nonzero"/></g><path fill="#470460" d="M 174.34375 84.914062 C 189.085938 89.703125 195.117188 87.941406 199.960938 74.933594 C 200.355469 73.882812 210.78125 85.519531 202.644531 94.785156 C 203.171875 94.757812 203.671875 94.757812 204.199219 94.757812 C 213.808594 94.757812 221.679688 97.734375 222.363281 101.523438 C 227.996094 104.65625 231.894531 109.632812 230.3125 113.132812 C 227.445312 119.609375 206.304688 120.320312 193.351562 119.058594 C 184.085938 118.136719 154.679688 122.558594 148.253906 109.660156 C 143.464844 99.945312 162.285156 80.988281 174.34375 84.914062 Z M 174.34375 84.914062 " fill-opacity="1" fill-rule="nonzero"/><g clip-path="url(#69580ce84a)"><path fill="#ffffff" d="M 171.894531 120.792969 C 181.769531 125.558594 181.714844 133.457031 190.480469 134.828125 C 203.117188 136.800781 208.726562 121.242188 226.128906 121.191406 C 228.101562 121.191406 230.339844 121.375 232.550781 121.796875 C 233.421875 117.742188 233.578125 113.582031 233.289062 109.394531 C 233.234375 108.5 232.945312 108.394531 232.183594 108.5 C 228.472656 109.027344 224.757812 109.472656 221.019531 109.789062 C 219.308594 109.921875 217.625 110.132812 215.914062 110.316406 C 213.914062 110.449219 211.910156 110.582031 209.910156 110.710938 C 200.511719 111.316406 191.085938 111.449219 181.664062 111.265625 C 175.871094 111.160156 170.105469 110.816406 164.3125 110.394531 C 164.261719 110.394531 164.207031 110.421875 164.128906 110.421875 C 163.3125 110.554688 162.496094 110.527344 161.679688 110.449219 C 162.496094 110.527344 163.3125 110.527344 164.128906 110.421875 C 163.339844 110.371094 162.550781 110.316406 161.761719 110.265625 C 159.8125 110.054688 157.863281 109.816406 155.890625 109.660156 C 152.492188 109.371094 149.148438 108.710938 145.726562 108.605469 C 145.097656 108.578125 144.9375 108.738281 144.910156 109.34375 C 144.753906 112.632812 144.753906 115.949219 145.226562 119.242188 C 154.097656 117.03125 164.183594 117.054688 171.894531 120.792969 Z M 171.894531 120.792969 " fill-opacity="1" fill-rule="nonzero"/></g><path fill="#470460" d="M 183.375 152.332031 C 183.714844 152.359375 184.085938 152.386719 184.480469 152.414062 C 184.113281 152.386719 183.742188 152.359375 183.375 152.332031 Z M 183.375 152.332031 " fill-opacity="1" fill-rule="nonzero"/><path fill="#ffffff" d="M 190.457031 141.566406 C 181.714844 140.195312 181.742188 132.300781 171.871094 127.535156 C 164.605469 124.03125 155.230469 123.796875 146.753906 125.640625 C 148.175781 129.667969 150.386719 133.324219 153.574219 136.511719 C 158.785156 141.722656 165.261719 144.644531 172.238281 146.621094 C 172.894531 146.804688 173.160156 147.09375 173.210938 147.753906 C 173.292969 148.675781 173.421875 149.59375 173.5 150.542969 C 173.554688 151.148438 173.816406 151.4375 174.421875 151.597656 C 176.238281 152.070312 178.136719 152.175781 179.976562 152.386719 C 180.664062 152.414062 181.347656 152.414062 182.058594 152.4375 C 182.320312 152.492188 182.609375 152.542969 182.902344 152.570312 C 187.085938 152.753906 191.273438 152.726562 195.457031 152.570312 C 196.511719 152.519531 197.589844 152.597656 198.617188 152.28125 C 200.433594 152.308594 202.222656 151.964844 203.988281 151.515625 C 204.410156 151.414062 204.59375 151.148438 204.644531 150.726562 C 204.75 149.726562 204.933594 148.753906 204.988281 147.753906 C 205.015625 147.042969 205.304688 146.804688 205.9375 146.621094 C 210.515625 145.332031 214.914062 143.59375 218.96875 141.011719 C 224.046875 137.773438 227.945312 133.5625 230.394531 128.21875 C 228.890625 128.035156 227.417969 127.929688 226.050781 127.929688 C 208.726562 127.980469 203.09375 143.539062 190.457031 141.566406 Z M 183.375 152.332031 C 183.742188 152.359375 184.113281 152.386719 184.480469 152.414062 C 184.085938 152.386719 183.714844 152.359375 183.375 152.332031 Z M 183.375 152.332031 " fill-opacity="1" fill-rule="nonzero"/><path fill="#470460" d="M 232.523438 121.796875 C 230.3125 121.375 228.074219 121.164062 226.101562 121.191406 C 208.726562 121.269531 203.09375 136.828125 190.457031 134.828125 C 181.714844 133.457031 181.742188 125.558594 171.871094 120.792969 C 164.183594 117.054688 154.097656 117.03125 145.226562 119.242188 C 145.226562 119.292969 145.226562 119.320312 145.253906 119.375 C 145.597656 121.558594 146.097656 123.636719 146.808594 125.613281 C 155.285156 123.796875 164.65625 124.007812 171.921875 127.507812 C 181.792969 132.273438 181.742188 140.171875 190.507812 141.539062 C 203.144531 143.515625 208.753906 127.957031 226.15625 127.902344 C 227.496094 127.902344 228.972656 127.980469 230.5 128.191406 C 230.945312 127.246094 231.339844 126.246094 231.683594 125.21875 C 231.972656 124.085938 232.289062 122.925781 232.523438 121.796875 Z M 232.523438 121.796875 " fill-opacity="1" fill-rule="nonzero"/><path fill="#ffffff" d="M 150.441406 105.839844 C 150.757812 103.550781 151.46875 101.289062 152.519531 99.179688 C 153.046875 98.128906 153.679688 97.128906 154.363281 96.152344 C 155.074219 95.207031 155.890625 94.3125 156.757812 93.46875 C 157.652344 92.652344 158.574219 91.863281 159.601562 91.203125 C 160.628906 90.546875 161.761719 90.046875 162.945312 89.730469 C 164.128906 89.414062 165.316406 89.257812 166.5 89.203125 C 167.683594 89.175781 168.867188 89.257812 170.054688 89.492188 L 170.078125 89.730469 C 168.972656 90.152344 167.867188 90.492188 166.789062 90.835938 C 165.710938 91.179688 164.683594 91.546875 163.683594 91.96875 C 162.683594 92.363281 161.707031 92.785156 160.734375 93.257812 C 159.757812 93.707031 158.8125 94.257812 157.96875 94.917969 C 157.101562 95.574219 156.3125 96.335938 155.546875 97.152344 C 154.808594 97.96875 154.125 98.839844 153.492188 99.785156 C 152.257812 101.65625 151.28125 103.710938 150.625 105.894531 Z M 150.441406 105.839844 " fill-opacity="1" fill-rule="nonzero"/><path fill="#ffffff" d="M 204.882812 97.101562 C 206.648438 97.207031 208.410156 97.574219 210.121094 98.074219 L 211.386719 98.46875 L 212.648438 98.917969 L 213.886719 99.417969 L 215.125 99.945312 C 215.519531 100.128906 215.941406 100.3125 216.335938 100.472656 L 217.546875 100.996094 C 218.363281 101.367188 219.125 101.789062 219.863281 102.261719 C 220.597656 102.761719 221.285156 103.261719 221.96875 103.839844 C 222.3125 104.128906 222.652344 104.421875 222.96875 104.734375 C 223.285156 105.050781 223.628906 105.367188 223.917969 105.710938 L 223.8125 105.921875 C 222.890625 105.816406 221.996094 105.578125 221.152344 105.316406 C 220.308594 105.027344 219.492188 104.710938 218.675781 104.339844 C 217.886719 103.972656 217.125 103.550781 216.414062 103.050781 L 215.335938 102.3125 C 214.964844 102.078125 214.597656 101.839844 214.230469 101.628906 L 213.097656 100.972656 L 211.964844 100.339844 L 210.832031 99.734375 L 209.675781 99.15625 C 208.121094 98.417969 206.515625 97.785156 204.832031 97.3125 Z M 204.882812 97.101562 " fill-opacity="1" fill-rule="nonzero"/><g clip-path="url(#89df262d69)"><path fill="#470460" d="M 313.464844 187.234375 C 285.960938 187.113281 271.195312 199.953125 269.933594 226.535156 C 269.917969 226.867188 269.429688 226.886719 269.382812 226.554688 C 268.152344 217.871094 268.390625 209.957031 270.597656 203.074219 C 277.871094 180.367188 305.621094 177.386719 325.3125 184.574219 C 326.292969 184.933594 326.492188 186.199219 325.675781 186.851562 C 310.316406 199.132812 312.410156 232.652344 275.023438 218.125 C 280.863281 199.980469 292.832031 188.734375 313.464844 187.234375 " fill-opacity="1" fill-rule="evenodd"/></g><g clip-path="url(#aacee3760b)"><path fill="#499d07" d="M 310.71875 184.460938 C 283.21875 184.335938 268.453125 197.175781 267.191406 223.757812 C 267.171875 224.09375 266.683594 224.109375 266.636719 223.78125 C 265.410156 215.09375 265.648438 207.179688 267.851562 200.300781 C 275.128906 177.589844 302.878906 174.613281 322.570312 181.800781 C 323.550781 182.15625 323.75 183.421875 322.933594 184.074219 C 307.574219 196.355469 309.664062 229.875 272.28125 215.347656 C 278.121094 197.203125 290.089844 185.960938 310.71875 184.460938 " fill-opacity="1" fill-rule="evenodd"/></g><g clip-path="url(#356c903029)"><path fill="#470460" d="M 76.105469 252.726562 C 103.605469 252.605469 118.371094 265.445312 119.636719 292.027344 C 119.652344 292.359375 120.140625 292.378906 120.1875 292.046875 C 121.414062 283.363281 121.175781 275.449219 118.972656 268.566406 C 111.695312 245.859375 83.945312 242.878906 64.253906 250.066406 C 63.273438 250.425781 63.074219 251.691406 63.890625 252.34375 C 79.25 264.625 77.160156 298.144531 114.542969 283.617188 C 108.703125 265.472656 96.734375 254.226562 76.105469 252.726562 " fill-opacity="1" fill-rule="evenodd"/></g><g clip-path="url(#4168a2398e)"><path fill="#499d07" d="M 76.105469 248.808594 C 103.605469 248.683594 118.371094 261.527344 119.636719 288.105469 C 119.652344 288.441406 120.140625 288.460938 120.1875 288.128906 C 121.414062 279.445312 121.175781 271.527344 118.972656 264.648438 C 111.695312 241.941406 83.945312 238.960938 64.253906 246.148438 C 63.273438 246.507812 63.074219 247.773438 63.890625 248.425781 C 79.25 260.707031 77.160156 294.226562 114.542969 279.699219 C 108.703125 261.554688 96.734375 250.308594 76.105469 248.808594 " fill-opacity="1" fill-rule="evenodd"/></g><path stroke-linecap="butt" transform="matrix(1.053221, 0, 0, 1.053221, 78.52667, 139.151007)" fill="none" stroke-linejoin="miter" d="M 56.657179 84.963824 L 56.278875 114.145131 L 56.278875 117.750143 C 56.278875 118.870218 56.404976 119.522977 56.657179 119.715838 C 56.827786 119.968041 57.521343 120.261041 58.745266 120.598547 C 59.694735 120.791407 60.169469 121.266141 60.169469 122.022749 C 60.340076 124.029242 60.506975 127.181772 60.677582 131.487758 C 60.677582 132.351923 60.202848 132.878581 59.25338 133.067733 L 51.468484 133.449745 C 50.685915 133.535049 49.484244 133.575846 47.859764 133.575846 C 45.515764 133.66115 44.176866 133.535049 43.83936 133.197543 C 43.479601 132.837783 43.342373 131.498885 43.427677 129.177139 C 43.427677 127.278203 43.472183 124.377875 43.553778 120.472446 C 43.553778 116.674573 43.553778 113.826169 43.553778 111.927233 L 43.553778 108.700525 C 43.553778 107.561905 42.997449 106.990741 41.877373 106.990741 C 41.098513 106.990741 40.063741 106.990741 38.776767 106.990741 C 37.382235 107.076045 36.128641 107.116842 35.008565 107.116842 C 33.892199 107.202146 32.816629 107.298576 31.781858 107.402424 C 30.917693 107.402424 30.346529 107.528526 30.072073 107.784437 C 29.819871 108.121943 29.69377 108.722778 29.69377 109.586943 C 29.608466 111.485879 29.482365 114.386207 29.311757 118.291636 C 29.144858 122.171103 29.007631 125.064014 28.903782 126.96295 C 28.903782 128.605975 28.859276 129.818772 28.773972 130.601341 C 28.773972 131.636113 28.217643 132.236948 27.097568 132.403847 C 25.450834 132.659758 22.995569 133.004682 19.724355 133.449745 C 16.349293 133.872555 13.838395 134.176682 12.191661 134.365833 C 11.327497 134.451137 10.808257 134.017201 10.641358 133.067733 C 10.389156 130.89805 9.996016 127.74181 9.469358 123.606432 C 9.30246 122.382508 9.817991 121.770546 11.019662 121.770546 C 11.104965 121.770546 11.190269 121.729749 11.275573 121.644445 C 11.379421 121.644445 11.475851 121.644445 11.557446 121.644445 C 12.592218 121.559141 13.319155 121.477546 13.741965 121.392243 C 14.187028 121.392243 14.661762 121.306939 15.166167 121.14004 C 15.61123 120.969433 15.915356 120.832205 16.085964 120.728357 C 16.167559 120.643053 16.297369 120.390851 16.464268 119.968041 C 16.634875 119.608281 16.71647 119.304155 16.71647 119.048243 C 16.634875 118.796041 16.634875 118.28051 16.71647 117.49794 C 16.71647 116.71908 16.71647 116.073738 16.71647 115.569333 C 16.824027 114.260106 16.875951 112.394549 16.875951 109.965246 C 17.046558 108.678272 16.434597 108.036639 15.040065 108.036639 C 14.090597 107.951336 13.615863 107.309703 13.615863 106.104324 C 13.448965 102.814565 13.363661 100.388971 13.363661 98.827541 C 13.278357 97.455263 13.363661 96.591099 13.615863 96.231339 C 13.786471 95.979137 14.606129 95.641631 16.085964 95.218821 C 16.864824 95.029669 17.339558 94.543808 17.510166 93.761239 C 17.510166 93.509037 17.550963 93.130733 17.636267 92.622619 C 17.636267 92.095961 17.636267 91.706531 17.636267 91.450619 C 17.721571 88.498367 17.899596 83.962432 18.174052 77.842814 C 18.34095 71.789955 18.470761 67.198387 18.552355 64.075527 C 18.637659 63.126059 18.637659 62.221097 18.552355 61.356933 C 18.552355 60.596617 18.122128 60.077376 17.254255 59.802921 C 17.17266 59.802921 16.653419 59.762123 15.703951 59.67682 C 14.754483 59.67682 14.101724 59.509921 13.741965 59.172415 C 13.404458 58.812655 13.23756 58.378719 13.23756 57.874314 C 13.152256 57.429251 13.152256 56.872922 13.23756 56.197909 C 13.319155 55.500644 13.363661 55.02591 13.363661 54.773707 C 13.363661 53.293872 13.53056 51.176114 13.868066 48.413013 C 13.868066 47.54514 14.3428 47.114912 15.292268 47.114912 C 15.822635 47.029609 16.297369 47.029609 16.71647 47.114912 L 54.442989 49.455203 C 55.054951 49.455203 55.529685 49.496 55.867191 49.581304 C 56.479153 49.666608 56.868584 50.056038 57.035482 50.753304 C 57.035482 51.09081 57.079989 51.691645 57.165292 52.555809 C 57.165292 53.423682 57.165292 54.024518 57.165292 54.362024 C 57.079989 57.82239 56.994685 62.925781 56.909381 69.679614 C 56.827786 76.407485 56.78328 81.503458 56.78328 84.963824 Z M 30.609858 77.716713 L 30.609858 84.047736 C 30.609858 84.826596 30.56906 85.913292 30.483757 87.307823 C 30.294605 88.676393 30.253807 89.922569 30.357655 91.042645 C 30.357655 92.181265 30.56906 93.267961 30.99187 94.299024 C 31.603832 94.554935 33.332161 94.595732 36.180565 94.428834 C 38.943665 94.34353 40.675703 94.299024 41.372968 94.299024 L 41.751272 94.299024 C 43.038246 94.217429 43.735512 93.560961 43.83936 92.337037 C 44.009967 90.438101 44.091562 88.932304 44.091562 87.812228 C 44.091562 85.746393 44.136069 82.716255 44.221372 78.729231 C 44.221372 74.76446 44.221372 71.745449 44.221372 69.679614 C 44.302967 68.45569 44.347474 66.642058 44.347474 64.235008 C 44.347474 63.011084 44.221372 62.232224 43.965461 61.894718 C 43.691006 61.638806 42.997449 61.460781 41.877373 61.356933 C 40.149045 61.186325 37.552843 61.019427 34.092477 60.848819 C 32.890807 60.763515 32.160161 60.848819 31.907959 61.101022 C 31.551908 61.375477 31.329377 62.072743 31.244073 63.18911 C 31.158769 64.835843 31.077174 67.25402 30.99187 70.43993 C 30.821263 73.644385 30.695162 76.069979 30.609858 77.716713 Z M 83.238575 91.450619 L 83.238575 115.695434 C 83.238575 117.423763 83.279372 118.721864 83.364676 119.586028 C 83.364676 120.179446 83.798613 120.557749 84.662777 120.728357 C 87.848687 120.728357 91.475952 120.516952 95.54828 120.094142 C 96.330849 120.008838 96.805583 119.4488 96.972482 118.417737 L 97.762469 107.910538 C 97.762469 107.127969 97.847773 106.000476 98.01838 104.524349 C 98.185279 103.066768 98.270583 101.991198 98.270583 101.293933 C 98.355887 100.177566 98.997519 99.617528 100.19919 99.617528 C 104.189923 99.788136 107.090251 99.955034 108.903883 100.125642 C 109.938655 100.207237 110.624794 100.429768 110.9623 100.789528 C 111.236756 101.127034 111.373984 101.768667 111.373984 102.718135 C 111.28868 103.244793 111.247882 103.986565 111.247882 104.936033 C 111.247882 105.885501 111.19225 106.567931 111.088401 106.990741 C 110.917794 109.249436 110.706389 112.539195 110.454186 116.867434 C 110.11668 121.255015 109.894149 124.492849 109.790301 126.580937 L 109.411997 130.853543 C 109.326693 132.055214 108.599757 132.741353 107.227479 132.91196 L 105.769897 132.91196 C 97.395292 133.438619 84.829676 134.135884 68.076757 135.000048 L 66.240872 135.000048 C 65.209809 135.000048 64.564467 134.873947 64.312265 134.621745 C 63.952505 134.347289 63.733683 133.776125 63.648379 132.91196 C 63.477771 130.14886 63.396176 128.120114 63.396176 126.83314 C 63.225569 124.325951 63.310873 122.857242 63.648379 122.434432 C 64.004429 121.993078 65.347037 121.729749 67.665074 121.644445 C 68.532947 121.644445 69.100402 121.477546 69.374858 121.14004 C 69.630769 120.865585 69.797668 120.253623 69.882972 119.304155 L 69.882972 66.419526 C 69.882972 64.52059 69.756871 63.400515 69.500959 63.063008 C 69.144909 62.706958 68.09901 62.525224 66.370682 62.525224 C 65.250606 62.525224 64.564467 62.358325 64.312265 62.020819 C 63.952505 61.764908 63.733683 61.164072 63.648379 60.214604 L 63.266366 51.639721 C 63.266366 50.775557 63.436974 50.174721 63.77448 49.837215 C 64.048936 49.581304 64.660897 49.414405 65.610366 49.329101 C 67.149542 49.225253 69.482415 49.088026 72.605275 48.917418 C 75.620577 48.750519 77.908944 48.620709 79.470374 48.539114 C 91.835711 47.841849 101.341519 47.367115 107.987795 47.114912 C 110.05363 47.029609 111.266427 47.15571 111.626186 47.493216 C 111.963692 47.852975 112.048996 49.10657 111.878389 51.257708 C 111.71149 53.85391 111.362857 57.651782 110.836199 62.651325 C 110.498693 67.843728 109.979452 73.076929 109.282187 78.350928 C 109.200592 79.300396 109.029984 79.901231 108.777782 80.153433 C 108.418023 80.427889 107.806061 80.524319 106.941896 80.439015 C 105.128264 80.335167 102.405961 80.112636 98.774988 79.77513 C 97.573317 79.689826 96.846381 79.478421 96.594178 79.140915 C 96.234419 78.781155 96.137989 78.002295 96.308596 76.800624 C 96.497748 73.95222 96.846381 70.01712 97.350786 64.995324 C 97.436089 64.572514 97.480596 63.930882 97.480596 63.063008 C 97.562191 62.284148 97.480596 61.712984 97.224684 61.356933 C 96.887178 61.019427 96.371647 60.889617 95.674381 60.97492 C 93.248787 61.060224 89.621522 61.282756 84.788878 61.638806 C 83.924714 61.72411 83.405474 62.239642 83.238575 63.18911 Z M 97.350786 141.360743 L 97.224684 141.360743 L 97.224684 147.183652 C 97.057786 150.89622 96.887178 152.88046 96.72028 153.132663 C 96.445824 153.407118 94.587685 154.063587 91.149572 155.094649 C 90.370712 155.350561 89.23951 155.654687 87.763384 156.014447 C 86.201954 156.437257 85.041081 156.730257 84.280765 156.900864 C 83.227448 157.17532 82.574689 156.785889 82.318778 155.728864 C 82.066575 154.779396 81.677145 153.314397 81.150487 151.330157 C 80.55707 149.345917 80.082336 147.84012 79.726285 146.805348 C 79.640981 145.941184 79.989614 145.37002 80.768475 145.095564 C 81.020677 145.095564 81.328512 145.01026 81.688272 144.843362 C 83.227448 144.335248 84.136119 143.90502 84.406866 143.545261 C 84.662777 143.207755 84.829676 142.258287 84.91498 140.696857 L 84.91498 138.352857 C 85.000283 137.236491 85.000283 136.201719 84.91498 135.252251 C 84.829676 134.388087 84.874182 133.397821 85.041081 132.277745 C 85.126385 131.161379 85.389714 130.167404 85.831068 129.30324 C 86.339182 129.217936 89.410117 129.177139 95.043875 129.177139 L 95.54828 129.177139 C 96.74995 129.262443 97.350786 129.904075 97.350786 131.105746 Z M 161.914613 84.963824 L 161.5326 114.145131 L 161.5326 117.750143 C 161.5326 118.870218 161.658702 119.522977 161.914613 119.715838 C 162.081512 119.968041 162.778777 120.261041 164.002701 120.598547 C 164.952169 120.791407 165.426903 121.266141 165.426903 122.022749 C 165.593802 124.029242 165.764409 127.181772 165.931308 131.487758 C 165.931308 132.351923 165.456574 132.878581 164.507106 133.067733 L 156.722209 133.449745 C 155.943349 133.535049 154.73797 133.575846 153.113489 133.575846 C 150.773199 133.66115 149.4343 133.535049 149.096794 133.197543 C 148.737035 132.837783 148.599807 131.498885 148.685111 129.177139 C 148.685111 127.278203 148.725908 124.377875 148.811212 120.472446 C 148.811212 116.674573 148.811212 113.826169 148.811212 111.927233 L 148.811212 108.700525 C 148.811212 107.561905 148.251174 106.990741 147.134807 106.990741 C 146.352238 106.990741 145.317466 106.990741 144.030492 106.990741 C 142.63967 107.076045 141.382366 107.116842 140.266 107.116842 C 139.145924 107.202146 138.070355 107.298576 137.039292 107.402424 C 136.171419 107.402424 135.603963 107.528526 135.329508 107.784437 C 135.077305 108.121943 134.947495 108.722778 134.947495 109.586943 C 134.8659 111.485879 134.739799 114.386207 134.569191 118.291636 C 134.398584 122.171103 134.265065 125.064014 134.157508 126.96295 C 134.157508 128.605975 134.11671 129.818772 134.031407 130.601341 C 134.031407 131.636113 133.471369 132.236948 132.355002 132.403847 C 130.708269 132.659758 128.249295 133.004682 124.97808 133.449745 C 121.603018 133.872555 119.09212 134.176682 117.449096 134.365833 C 116.581222 134.451137 116.065691 134.017201 115.895083 133.067733 C 115.642881 130.89805 115.253451 127.74181 114.726793 123.606432 C 114.556185 122.382508 115.075425 121.770546 116.277096 121.770546 C 116.3624 121.770546 116.443995 121.729749 116.529298 121.644445 C 116.636855 121.644445 116.729577 121.644445 116.814881 121.644445 C 117.849652 121.559141 118.576589 121.477546 118.999399 121.392243 C 119.440753 121.392243 119.915487 121.306939 120.423601 121.14004 C 120.864955 120.969433 121.172791 120.832205 121.339689 120.728357 C 121.424993 120.643053 121.551094 120.390851 121.721702 119.968041 C 121.8886 119.608281 121.973904 119.304155 121.973904 119.048243 C 121.8886 118.796041 121.8886 118.28051 121.973904 117.49794 C 121.973904 116.71908 121.973904 116.073738 121.973904 115.569333 C 122.077752 114.260106 122.133385 112.394549 122.133385 109.965246 C 122.300284 108.678272 121.688322 108.036639 120.2975 108.036639 C 119.348032 107.951336 118.873298 107.309703 118.873298 106.104324 C 118.70269 102.814565 118.617386 100.388971 118.617386 98.827541 C 118.535791 97.455263 118.617386 96.591099 118.873298 96.231339 C 119.040196 95.979137 119.863563 95.641631 121.339689 95.218821 C 122.122259 95.029669 122.596993 94.543808 122.763891 93.761239 C 122.763891 93.509037 122.808398 93.130733 122.889993 92.622619 C 122.889993 92.095961 122.889993 91.706531 122.889993 91.450619 C 122.975296 88.498367 123.153322 83.962432 123.427777 77.842814 C 123.598385 71.789955 123.724486 67.198387 123.80979 64.075527 C 123.895093 63.126059 123.895093 62.221097 123.80979 61.356933 C 123.80979 60.596617 123.375853 60.077376 122.511689 59.802921 C 122.426385 59.802921 121.910854 59.762123 120.961386 59.67682 C 120.011918 59.67682 119.355449 59.509921 118.999399 59.172415 C 118.661893 58.812655 118.491285 58.378719 118.491285 57.874314 C 118.405981 57.429251 118.405981 56.872922 118.491285 56.197909 C 118.576589 55.500644 118.617386 55.02591 118.617386 54.773707 C 118.617386 53.293872 118.787994 51.176114 119.1255 48.413013 C 119.1255 47.54514 119.600234 47.114912 120.549702 47.114912 C 121.07636 47.029609 121.551094 47.029609 121.973904 47.114912 L 159.696715 49.455203 C 160.308677 49.455203 160.783411 49.496 161.120917 49.581304 C 161.732879 49.666608 162.122309 50.056038 162.292917 50.753304 C 162.292917 51.09081 162.333714 51.691645 162.419018 52.555809 C 162.419018 53.423682 162.419018 54.024518 162.419018 54.362024 C 162.333714 57.82239 162.252119 62.925781 162.166815 69.679614 C 162.081512 76.407485 162.040714 81.503458 162.040714 84.963824 Z M 135.867292 77.716713 L 135.867292 84.047736 C 135.867292 84.826596 135.822786 85.913292 135.741191 87.307823 C 135.552039 88.676393 135.507533 89.922569 135.61509 91.042645 C 135.61509 92.181265 135.822786 93.267961 136.245596 94.299024 C 136.857558 94.554935 138.589595 94.595732 141.437999 94.428834 C 144.2011 94.34353 145.929428 94.299024 146.626694 94.299024 L 147.004997 94.299024 C 148.295681 94.217429 148.989237 93.560961 149.096794 92.337037 C 149.263693 90.438101 149.348997 88.932304 149.348997 87.812228 C 149.348997 85.746393 149.389794 82.716255 149.475098 78.729231 C 149.475098 74.76446 149.475098 71.745449 149.475098 69.679614 C 149.560402 68.45569 149.601199 66.642058 149.601199 64.235008 C 149.601199 63.011084 149.475098 62.232224 149.222895 61.894718 C 148.94844 61.638806 148.251174 61.460781 147.134807 61.356933 C 145.40277 61.186325 142.806568 61.019427 139.346202 60.848819 C 138.144532 60.763515 137.417595 60.848819 137.165393 61.101022 C 136.805634 61.375477 136.583102 62.072743 136.501507 63.18911 C 136.416203 64.835843 136.3309 67.25402 136.245596 70.43993 C 136.078697 73.644385 135.952596 76.069979 135.867292 77.716713 Z M 191.722717 135.252251 L 170.326306 135.252251 C 169.124636 135.252251 168.523801 134.695922 168.523801 133.575846 L 168.523801 124.114546 C 168.523801 122.909166 169.124636 122.308331 170.326306 122.308331 L 172.670306 122.022749 C 173.449166 121.85585 173.838596 121.477546 173.838596 120.884129 C 174.009204 119.322699 174.094508 118.195206 174.094508 117.49794 C 174.450558 96.335188 174.67309 80.565117 174.758393 70.184019 C 174.843697 68.707893 174.884495 66.50483 174.884495 63.571122 C 174.884495 62.284148 174.706469 61.419984 174.34671 60.97492 C 173.9239 60.55211 173.156166 60.299908 172.036091 60.214604 C 171.846939 60.214604 171.58361 60.173807 171.246103 60.088503 C 170.823293 60.088503 170.474661 60.088503 170.200205 60.088503 C 169.421345 59.899351 169.028205 59.465415 169.028205 58.790402 C 168.946611 56.872922 169.295243 53.230822 170.074104 47.87152 C 170.159408 47.196507 170.812167 46.944305 172.036091 47.114912 L 185.232213 48.283203 C 186.712048 48.368507 189.222946 48.579912 192.764907 48.917418 C 193.884982 49.088026 194.441311 49.699987 194.441311 50.753304 C 194.103805 54.298973 193.896109 56.798745 193.810805 58.252618 C 193.640197 60.151554 193.421375 61.23825 193.146919 61.512705 C 192.891008 61.764908 192.598008 61.935515 192.260502 62.020819 C 191.900742 62.102414 191.511312 62.102414 191.088502 62.020819 C 190.561844 62.020819 190.213211 62.020819 190.042604 62.020819 C 188.840933 62.020819 188.188174 62.53635 188.080617 63.571122 L 188.080617 66.419526 C 187.828415 77.305029 187.531706 93.857669 187.1942 116.073738 L 187.1942 119.968041 C 187.279503 120.832205 187.490908 121.392243 187.828415 121.644445 C 188.10287 121.896648 188.674035 122.067255 189.538199 122.152559 C 189.875705 122.152559 190.391237 122.108053 191.088502 122.022749 C 191.763515 122.022749 192.36435 122.022749 192.891008 122.022749 C 193.336071 122.108053 193.725501 122.330584 194.063007 122.690344 C 194.485817 123.02785 194.73802 123.458077 194.823324 123.984736 C 194.927172 124.596697 194.982805 125.282836 194.982805 126.043153 C 194.875248 126.825722 194.823324 127.393177 194.823324 127.752937 L 194.823324 131.899442 C 194.73802 133.542467 194.571121 134.491935 194.31521 134.747846 C 194.063007 135.085352 193.198843 135.252251 191.722717 135.252251 Z M 173.334191 40.498307 C 174.368963 38.599371 175.318431 36.785738 176.182596 35.05741 C 177.04676 33.410676 178.081532 31.51174 179.283202 29.360602 C 179.45381 29.000842 179.798734 28.262779 180.329101 27.142704 C 180.833505 26.026337 181.352746 25.076869 181.879404 24.294299 C 182.302214 23.600743 182.903049 22.996199 183.68191 22.491794 C 184.464479 22.743996 185.287846 23.040705 186.15201 23.378211 C 186.930871 23.819565 187.839541 24.349932 188.874313 24.961894 C 189.823781 25.551603 190.561844 25.974413 191.088502 26.226615 C 191.173806 26.226615 191.255401 26.278539 191.340705 26.382387 C 191.426008 26.467691 191.55211 26.552995 191.722717 26.638299 C 191.804312 26.723602 191.889616 26.7644 191.97492 26.7644 C 192.586881 27.101906 192.764907 27.617438 192.512704 28.314703 C 192.067641 29.093564 191.804312 29.568298 191.722717 29.738905 C 190.517338 31.997601 189.304541 34.285967 188.080617 36.607713 C 186.878947 39.033307 185.551175 41.544205 184.093593 44.140407 C 183.819137 44.477913 183.429707 45.078748 182.921593 45.942913 C 182.309632 45.605406 181.267442 45.089875 179.791316 44.392609 C 178.24843 43.780648 177.005962 43.179812 176.056494 42.586395 C 174.999469 41.974433 174.094508 41.280876 173.334191 40.498307 Z M 173.334191 40.498307 " stroke="#470460" stroke-width="14.25941" stroke-opacity="1" stroke-miterlimit="4"/><g fill="#ffffff" fill-opacity="1"><g transform="translate(88.367707, 281.335887)"><g><path d="M 49.828125 -52.703125 L 49.421875 -21.984375 L 49.421875 -18.15625 C 49.421875 -16.976562 49.554688 -16.296875 49.828125 -16.109375 C 50.015625 -15.835938 50.742188 -15.519531 52.015625 -15.15625 C 53.015625 -14.96875 53.515625 -14.46875 53.515625 -13.65625 C 53.703125 -11.5625 53.882812 -8.238281 54.0625 -3.6875 C 54.0625 -2.78125 53.5625 -2.234375 52.5625 -2.046875 L 44.375 -1.640625 C 43.550781 -1.546875 42.273438 -1.5 40.546875 -1.5 C 38.085938 -1.40625 36.675781 -1.539062 36.3125 -1.90625 C 35.945312 -2.269531 35.8125 -3.679688 35.90625 -6.140625 C 35.90625 -8.140625 35.953125 -11.191406 36.046875 -15.296875 C 36.046875 -19.296875 36.046875 -22.296875 36.046875 -24.296875 L 36.046875 -27.71875 C 36.046875 -28.894531 35.453125 -29.484375 34.265625 -29.484375 C 33.453125 -29.484375 32.363281 -29.484375 31 -29.484375 C 29.539062 -29.398438 28.21875 -29.359375 27.03125 -29.359375 C 25.851562 -29.265625 24.71875 -29.171875 23.625 -29.078125 C 22.707031 -29.078125 22.113281 -28.941406 21.84375 -28.671875 C 21.570312 -28.304688 21.4375 -27.671875 21.4375 -26.765625 C 21.34375 -24.753906 21.207031 -21.703125 21.03125 -17.609375 C 20.84375 -13.515625 20.703125 -10.46875 20.609375 -8.46875 C 20.609375 -6.738281 20.566406 -5.460938 20.484375 -4.640625 C 20.484375 -3.546875 19.890625 -2.910156 18.703125 -2.734375 C 16.972656 -2.460938 14.378906 -2.097656 10.921875 -1.640625 C 7.367188 -1.179688 4.726562 -0.863281 3 -0.6875 C 2.09375 -0.59375 1.546875 -1.046875 1.359375 -2.046875 C 1.085938 -4.328125 0.679688 -7.648438 0.140625 -12.015625 C -0.046875 -13.285156 0.5 -13.921875 1.78125 -13.921875 C 1.863281 -13.921875 1.953125 -13.96875 2.046875 -14.0625 C 2.140625 -14.0625 2.234375 -14.0625 2.328125 -14.0625 C 3.410156 -14.15625 4.179688 -14.242188 4.640625 -14.328125 C 5.097656 -14.328125 5.597656 -14.421875 6.140625 -14.609375 C 6.597656 -14.785156 6.914062 -14.921875 7.09375 -15.015625 C 7.1875 -15.109375 7.328125 -15.382812 7.515625 -15.84375 C 7.691406 -16.207031 7.78125 -16.523438 7.78125 -16.796875 C 7.6875 -17.066406 7.6875 -17.613281 7.78125 -18.4375 C 7.78125 -19.25 7.78125 -19.929688 7.78125 -20.484375 C 7.875 -21.847656 7.921875 -23.800781 7.921875 -26.34375 C 8.097656 -27.71875 7.457031 -28.40625 6 -28.40625 C 5 -28.488281 4.5 -29.171875 4.5 -30.453125 C 4.320312 -33.910156 4.234375 -36.457031 4.234375 -38.09375 C 4.140625 -39.550781 4.226562 -40.460938 4.5 -40.828125 C 4.6875 -41.097656 5.550781 -41.460938 7.09375 -41.921875 C 7.914062 -42.097656 8.414062 -42.597656 8.59375 -43.421875 C 8.59375 -43.691406 8.640625 -44.097656 8.734375 -44.640625 C 8.734375 -45.191406 8.734375 -45.601562 8.734375 -45.875 C 8.828125 -48.96875 9.007812 -53.742188 9.28125 -60.203125 C 9.46875 -66.578125 9.601562 -71.40625 9.6875 -74.6875 C 9.78125 -75.6875 9.78125 -76.640625 9.6875 -77.546875 C 9.6875 -78.367188 9.234375 -78.914062 8.328125 -79.1875 C 8.234375 -79.1875 7.6875 -79.234375 6.6875 -79.328125 C 5.6875 -79.328125 5.003906 -79.507812 4.640625 -79.875 C 4.273438 -80.238281 4.09375 -80.691406 4.09375 -81.234375 C 4 -81.691406 4 -82.285156 4.09375 -83.015625 C 4.1875 -83.742188 4.234375 -84.242188 4.234375 -84.515625 C 4.234375 -86.054688 4.414062 -88.285156 4.78125 -91.203125 C 4.78125 -92.109375 5.28125 -92.5625 6.28125 -92.5625 C 6.820312 -92.65625 7.320312 -92.65625 7.78125 -92.5625 L 47.515625 -90.109375 C 48.148438 -90.109375 48.648438 -90.0625 49.015625 -89.96875 C 49.648438 -89.882812 50.0625 -89.476562 50.25 -88.75 C 50.25 -88.382812 50.289062 -87.742188 50.375 -86.828125 C 50.375 -85.921875 50.375 -85.285156 50.375 -84.921875 C 50.289062 -81.285156 50.203125 -75.914062 50.109375 -68.8125 C 50.015625 -61.707031 49.96875 -56.335938 49.96875 -52.703125 Z M 22.390625 -60.34375 L 22.390625 -53.65625 C 22.390625 -52.832031 22.34375 -51.695312 22.25 -50.25 C 22.070312 -48.789062 22.03125 -47.46875 22.125 -46.28125 C 22.125 -45.101562 22.347656 -43.96875 22.796875 -42.875 C 23.429688 -42.601562 25.253906 -42.554688 28.265625 -42.734375 C 31.171875 -42.828125 32.988281 -42.875 33.71875 -42.875 L 34.140625 -42.875 C 35.503906 -42.957031 36.226562 -43.640625 36.3125 -44.921875 C 36.5 -46.921875 36.59375 -48.515625 36.59375 -49.703125 C 36.59375 -51.878906 36.640625 -55.0625 36.734375 -59.25 C 36.734375 -63.4375 36.734375 -66.625 36.734375 -68.8125 C 36.816406 -70.082031 36.859375 -71.992188 36.859375 -74.546875 C 36.859375 -75.816406 36.722656 -76.632812 36.453125 -77 C 36.179688 -77.269531 35.453125 -77.453125 34.265625 -77.546875 C 32.441406 -77.734375 29.710938 -77.914062 26.078125 -78.09375 C 24.804688 -78.1875 24.03125 -78.097656 23.75 -77.828125 C 23.382812 -77.546875 23.160156 -76.816406 23.078125 -75.640625 C 22.984375 -73.910156 22.890625 -71.363281 22.796875 -68 C 22.617188 -64.625 22.484375 -62.070312 22.390625 -60.34375 Z M 22.390625 -60.34375 "/></g></g></g><g fill="#ffffff" fill-opacity="1"><g transform="translate(145.161658, 281.335887)"><g><path d="M 21.03125 -45.875 L 21.03125 -20.34375 C 21.03125 -18.519531 21.070312 -17.15625 21.15625 -16.25 C 21.15625 -15.613281 21.613281 -15.203125 22.53125 -15.015625 C 25.894531 -15.015625 29.71875 -15.242188 34 -15.703125 C 34.8125 -15.796875 35.3125 -16.382812 35.5 -17.46875 L 36.3125 -28.53125 C 36.3125 -29.351562 36.40625 -30.535156 36.59375 -32.078125 C 36.769531 -33.628906 36.859375 -34.769531 36.859375 -35.5 C 36.953125 -36.675781 37.632812 -37.265625 38.90625 -37.265625 C 43.09375 -37.085938 46.144531 -36.910156 48.0625 -36.734375 C 49.15625 -36.640625 49.882812 -36.410156 50.25 -36.046875 C 50.519531 -35.679688 50.65625 -35 50.65625 -34 C 50.5625 -33.445312 50.515625 -32.671875 50.515625 -31.671875 C 50.515625 -30.671875 50.46875 -29.941406 50.375 -29.484375 C 50.195312 -27.117188 49.972656 -23.660156 49.703125 -19.109375 C 49.335938 -14.472656 49.109375 -11.0625 49.015625 -8.875 L 48.609375 -4.375 C 48.515625 -3.09375 47.738281 -2.363281 46.28125 -2.1875 L 44.78125 -2.1875 C 35.945312 -1.632812 22.703125 -0.90625 5.046875 0 L 3.140625 0 C 2.046875 0 1.363281 -0.132812 1.09375 -0.40625 C 0.726562 -0.675781 0.5 -1.269531 0.40625 -2.1875 C 0.226562 -5.09375 0.140625 -7.226562 0.140625 -8.59375 C -0.046875 -11.238281 0.0390625 -12.789062 0.40625 -13.25 C 0.769531 -13.695312 2.179688 -13.96875 4.640625 -14.0625 C 5.546875 -14.0625 6.140625 -14.242188 6.421875 -14.609375 C 6.691406 -14.878906 6.875 -15.515625 6.96875 -16.515625 L 6.96875 -72.21875 C 6.96875 -74.226562 6.828125 -75.414062 6.546875 -75.78125 C 6.179688 -76.144531 5.09375 -76.328125 3.28125 -76.328125 C 2.09375 -76.328125 1.363281 -76.503906 1.09375 -76.859375 C 0.726562 -77.140625 0.5 -77.78125 0.40625 -78.78125 L 0 -87.796875 C 0 -88.703125 0.179688 -89.335938 0.546875 -89.703125 C 0.816406 -89.972656 1.453125 -90.15625 2.453125 -90.25 C 4.097656 -90.34375 6.554688 -90.476562 9.828125 -90.65625 C 13.015625 -90.84375 15.425781 -90.976562 17.0625 -91.0625 C 30.082031 -91.789062 40.097656 -92.289062 47.109375 -92.5625 C 49.285156 -92.65625 50.554688 -92.519531 50.921875 -92.15625 C 51.285156 -91.789062 51.378906 -90.472656 51.203125 -88.203125 C 51.015625 -85.472656 50.648438 -81.46875 50.109375 -76.1875 C 49.742188 -70.726562 49.195312 -65.222656 48.46875 -59.671875 C 48.375 -58.660156 48.191406 -58.019531 47.921875 -57.75 C 47.554688 -57.476562 46.921875 -57.390625 46.015625 -57.484375 C 44.097656 -57.566406 41.226562 -57.789062 37.40625 -58.15625 C 36.132812 -58.25 35.363281 -58.476562 35.09375 -58.84375 C 34.726562 -59.207031 34.632812 -60.023438 34.8125 -61.296875 C 35 -64.304688 35.363281 -68.453125 35.90625 -73.734375 C 36 -74.179688 36.046875 -74.863281 36.046875 -75.78125 C 36.140625 -76.59375 36.046875 -77.179688 35.765625 -77.546875 C 35.398438 -77.910156 34.859375 -78.046875 34.140625 -77.953125 C 31.585938 -77.867188 27.765625 -77.644531 22.671875 -77.28125 C 21.753906 -77.1875 21.207031 -76.640625 21.03125 -75.640625 Z M 35.90625 6.6875 L 35.765625 6.6875 L 35.765625 12.828125 C 35.585938 16.742188 35.40625 18.835938 35.21875 19.109375 C 34.945312 19.390625 32.992188 20.070312 29.359375 21.15625 C 28.535156 21.4375 27.347656 21.757812 25.796875 22.125 C 24.160156 22.570312 22.9375 22.890625 22.125 23.078125 C 21.03125 23.347656 20.34375 22.9375 20.0625 21.84375 C 19.789062 20.84375 19.382812 19.296875 18.84375 17.203125 C 18.207031 15.109375 17.707031 13.515625 17.34375 12.421875 C 17.25 11.515625 17.613281 10.925781 18.4375 10.65625 C 18.707031 10.65625 19.023438 10.5625 19.390625 10.375 C 21.023438 9.832031 21.976562 9.378906 22.25 9.015625 C 22.53125 8.648438 22.710938 7.644531 22.796875 6 L 22.796875 3.546875 C 22.890625 2.367188 22.890625 1.273438 22.796875 0.265625 C 22.710938 -0.640625 22.757812 -1.679688 22.9375 -2.859375 C 23.03125 -4.046875 23.300781 -5.09375 23.75 -6 C 24.300781 -6.09375 27.535156 -6.140625 33.453125 -6.140625 L 34 -6.140625 C 35.269531 -6.046875 35.90625 -5.363281 35.90625 -4.09375 Z M 35.90625 6.6875 "/></g></g></g><g fill="#ffffff" fill-opacity="1"><g transform="translate(199.225118, 281.335887)"><g><path d="M 49.828125 -52.703125 L 49.421875 -21.984375 L 49.421875 -18.15625 C 49.421875 -16.976562 49.554688 -16.296875 49.828125 -16.109375 C 50.015625 -15.835938 50.742188 -15.519531 52.015625 -15.15625 C 53.015625 -14.96875 53.515625 -14.46875 53.515625 -13.65625 C 53.703125 -11.5625 53.882812 -8.238281 54.0625 -3.6875 C 54.0625 -2.78125 53.5625 -2.234375 52.5625 -2.046875 L 44.375 -1.640625 C 43.550781 -1.546875 42.273438 -1.5 40.546875 -1.5 C 38.085938 -1.40625 36.675781 -1.539062 36.3125 -1.90625 C 35.945312 -2.269531 35.8125 -3.679688 35.90625 -6.140625 C 35.90625 -8.140625 35.953125 -11.191406 36.046875 -15.296875 C 36.046875 -19.296875 36.046875 -22.296875 36.046875 -24.296875 L 36.046875 -27.71875 C 36.046875 -28.894531 35.453125 -29.484375 34.265625 -29.484375 C 33.453125 -29.484375 32.363281 -29.484375 31 -29.484375 C 29.539062 -29.398438 28.21875 -29.359375 27.03125 -29.359375 C 25.851562 -29.265625 24.71875 -29.171875 23.625 -29.078125 C 22.707031 -29.078125 22.113281 -28.941406 21.84375 -28.671875 C 21.570312 -28.304688 21.4375 -27.671875 21.4375 -26.765625 C 21.34375 -24.753906 21.207031 -21.703125 21.03125 -17.609375 C 20.84375 -13.515625 20.703125 -10.46875 20.609375 -8.46875 C 20.609375 -6.738281 20.566406 -5.460938 20.484375 -4.640625 C 20.484375 -3.546875 19.890625 -2.910156 18.703125 -2.734375 C 16.972656 -2.460938 14.378906 -2.097656 10.921875 -1.640625 C 7.367188 -1.179688 4.726562 -0.863281 3 -0.6875 C 2.09375 -0.59375 1.546875 -1.046875 1.359375 -2.046875 C 1.085938 -4.328125 0.679688 -7.648438 0.140625 -12.015625 C -0.046875 -13.285156 0.5 -13.921875 1.78125 -13.921875 C 1.863281 -13.921875 1.953125 -13.96875 2.046875 -14.0625 C 2.140625 -14.0625 2.234375 -14.0625 2.328125 -14.0625 C 3.410156 -14.15625 4.179688 -14.242188 4.640625 -14.328125 C 5.097656 -14.328125 5.597656 -14.421875 6.140625 -14.609375 C 6.597656 -14.785156 6.914062 -14.921875 7.09375 -15.015625 C 7.1875 -15.109375 7.328125 -15.382812 7.515625 -15.84375 C 7.691406 -16.207031 7.78125 -16.523438 7.78125 -16.796875 C 7.6875 -17.066406 7.6875 -17.613281 7.78125 -18.4375 C 7.78125 -19.25 7.78125 -19.929688 7.78125 -20.484375 C 7.875 -21.847656 7.921875 -23.800781 7.921875 -26.34375 C 8.097656 -27.71875 7.457031 -28.40625 6 -28.40625 C 5 -28.488281 4.5 -29.171875 4.5 -30.453125 C 4.320312 -33.910156 4.234375 -36.457031 4.234375 -38.09375 C 4.140625 -39.550781 4.226562 -40.460938 4.5 -40.828125 C 4.6875 -41.097656 5.550781 -41.460938 7.09375 -41.921875 C 7.914062 -42.097656 8.414062 -42.597656 8.59375 -43.421875 C 8.59375 -43.691406 8.640625 -44.097656 8.734375 -44.640625 C 8.734375 -45.191406 8.734375 -45.601562 8.734375 -45.875 C 8.828125 -48.96875 9.007812 -53.742188 9.28125 -60.203125 C 9.46875 -66.578125 9.601562 -71.40625 9.6875 -74.6875 C 9.78125 -75.6875 9.78125 -76.640625 9.6875 -77.546875 C 9.6875 -78.367188 9.234375 -78.914062 8.328125 -79.1875 C 8.234375 -79.1875 7.6875 -79.234375 6.6875 -79.328125 C 5.6875 -79.328125 5.003906 -79.507812 4.640625 -79.875 C 4.273438 -80.238281 4.09375 -80.691406 4.09375 -81.234375 C 4 -81.691406 4 -82.285156 4.09375 -83.015625 C 4.1875 -83.742188 4.234375 -84.242188 4.234375 -84.515625 C 4.234375 -86.054688 4.414062 -88.285156 4.78125 -91.203125 C 4.78125 -92.109375 5.28125 -92.5625 6.28125 -92.5625 C 6.820312 -92.65625 7.320312 -92.65625 7.78125 -92.5625 L 47.515625 -90.109375 C 48.148438 -90.109375 48.648438 -90.0625 49.015625 -89.96875 C 49.648438 -89.882812 50.0625 -89.476562 50.25 -88.75 C 50.25 -88.382812 50.289062 -87.742188 50.375 -86.828125 C 50.375 -85.921875 50.375 -85.285156 50.375 -84.921875 C 50.289062 -81.285156 50.203125 -75.914062 50.109375 -68.8125 C 50.015625 -61.707031 49.96875 -56.335938 49.96875 -52.703125 Z M 22.390625 -60.34375 L 22.390625 -53.65625 C 22.390625 -52.832031 22.34375 -51.695312 22.25 -50.25 C 22.070312 -48.789062 22.03125 -47.46875 22.125 -46.28125 C 22.125 -45.101562 22.347656 -43.96875 22.796875 -42.875 C 23.429688 -42.601562 25.253906 -42.554688 28.265625 -42.734375 C 31.171875 -42.828125 32.988281 -42.875 33.71875 -42.875 L 34.140625 -42.875 C 35.503906 -42.957031 36.226562 -43.640625 36.3125 -44.921875 C 36.5 -46.921875 36.59375 -48.515625 36.59375 -49.703125 C 36.59375 -51.878906 36.640625 -55.0625 36.734375 -59.25 C 36.734375 -63.4375 36.734375 -66.625 36.734375 -68.8125 C 36.816406 -70.082031 36.859375 -71.992188 36.859375 -74.546875 C 36.859375 -75.816406 36.722656 -76.632812 36.453125 -77 C 36.179688 -77.269531 35.453125 -77.453125 34.265625 -77.546875 C 32.441406 -77.734375 29.710938 -77.914062 26.078125 -78.09375 C 24.804688 -78.1875 24.03125 -78.097656 23.75 -77.828125 C 23.382812 -77.546875 23.160156 -76.816406 23.078125 -75.640625 C 22.984375 -73.910156 22.890625 -71.363281 22.796875 -68 C 22.617188 -64.625 22.484375 -62.070312 22.390625 -60.34375 Z M 22.390625 -60.34375 "/></g></g></g><g fill="#ffffff" fill-opacity="1"><g transform="translate(256.019069, 281.335887)"><g><path d="M 24.4375 0.265625 L 1.90625 0.265625 C 0.632812 0.265625 0 -0.320312 0 -1.5 L 0 -11.46875 C 0 -12.738281 0.632812 -13.375 1.90625 -13.375 L 4.375 -13.65625 C 5.1875 -13.832031 5.59375 -14.238281 5.59375 -14.875 C 5.78125 -16.519531 5.875 -17.707031 5.875 -18.4375 C 6.238281 -40.726562 6.460938 -57.335938 6.546875 -68.265625 C 6.640625 -69.816406 6.6875 -72.140625 6.6875 -75.234375 C 6.6875 -76.597656 6.503906 -77.503906 6.140625 -77.953125 C 5.691406 -78.410156 4.875 -78.6875 3.6875 -78.78125 C 3.5 -78.78125 3.222656 -78.828125 2.859375 -78.921875 C 2.410156 -78.921875 2.050781 -78.921875 1.78125 -78.921875 C 0.957031 -79.097656 0.546875 -79.550781 0.546875 -80.28125 C 0.453125 -82.28125 0.816406 -86.101562 1.640625 -91.75 C 1.734375 -92.476562 2.414062 -92.75 3.6875 -92.5625 L 17.609375 -91.34375 C 19.160156 -91.25 21.800781 -91.019531 25.53125 -90.65625 C 26.71875 -90.476562 27.3125 -89.84375 27.3125 -88.75 C 26.945312 -85.007812 26.71875 -82.367188 26.625 -80.828125 C 26.4375 -78.828125 26.207031 -77.6875 25.9375 -77.40625 C 25.664062 -77.132812 25.347656 -76.953125 24.984375 -76.859375 C 24.617188 -76.773438 24.207031 -76.773438 23.75 -76.859375 C 23.207031 -76.859375 22.847656 -76.859375 22.671875 -76.859375 C 21.390625 -76.859375 20.703125 -76.316406 20.609375 -75.234375 L 20.609375 -72.21875 C 20.335938 -60.75 20.019531 -43.320312 19.65625 -19.9375 L 19.65625 -15.84375 C 19.75 -14.925781 19.976562 -14.332031 20.34375 -14.0625 C 20.613281 -13.789062 21.207031 -13.609375 22.125 -13.515625 C 22.488281 -13.515625 23.03125 -13.5625 23.75 -13.65625 C 24.476562 -13.65625 25.117188 -13.65625 25.671875 -13.65625 C 26.117188 -13.5625 26.523438 -13.332031 26.890625 -12.96875 C 27.347656 -12.601562 27.625 -12.148438 27.71875 -11.609375 C 27.8125 -10.972656 27.859375 -10.242188 27.859375 -9.421875 C 27.765625 -8.597656 27.71875 -8.003906 27.71875 -7.640625 L 27.71875 -3.28125 C 27.625 -1.550781 27.441406 -0.546875 27.171875 -0.265625 C 26.898438 0.0859375 25.988281 0.265625 24.4375 0.265625 Z M 5.046875 -99.53125 C 6.140625 -101.53125 7.144531 -103.441406 8.0625 -105.265625 C 8.96875 -106.992188 10.054688 -108.992188 11.328125 -111.265625 C 11.515625 -111.628906 11.878906 -112.40625 12.421875 -113.59375 C 12.972656 -114.78125 13.519531 -115.78125 14.0625 -116.59375 C 14.519531 -117.320312 15.15625 -117.960938 15.96875 -118.515625 C 16.789062 -118.234375 17.65625 -117.910156 18.5625 -117.546875 C 19.382812 -117.097656 20.34375 -116.554688 21.4375 -115.921875 C 22.4375 -115.273438 23.207031 -114.816406 23.75 -114.546875 C 23.84375 -114.546875 23.9375 -114.5 24.03125 -114.40625 C 24.125 -114.320312 24.257812 -114.234375 24.4375 -114.140625 C 24.53125 -114.046875 24.625 -114 24.71875 -114 C 25.351562 -113.632812 25.535156 -113.085938 25.265625 -112.359375 C 24.804688 -111.546875 24.53125 -111.046875 24.4375 -110.859375 C 23.164062 -108.492188 21.890625 -106.082031 20.609375 -103.625 C 19.335938 -101.070312 17.929688 -98.429688 16.390625 -95.703125 C 16.109375 -95.335938 15.695312 -94.703125 15.15625 -93.796875 C 14.519531 -94.160156 13.425781 -94.707031 11.875 -95.4375 C 10.238281 -96.070312 8.921875 -96.707031 7.921875 -97.34375 C 6.828125 -97.976562 5.867188 -98.707031 5.046875 -99.53125 Z M 5.046875 -99.53125 "/></g></g></g><g fill="#ffc700" fill-opacity="1"><g transform="translate(129.612001, 182.342032)"><g><path d="M 11.84375 -17.5625 L 11.84375 -12.421875 C 11.84375 -12.347656 11.84375 -12.296875 11.84375 -12.265625 C 11.820312 -12.222656 11.8125 -12.175781 11.8125 -12.125 C 11.78125 -12.082031 11.765625 -12.046875 11.765625 -12.015625 C 11.742188 -11.972656 11.722656 -11.941406 11.703125 -11.921875 C 11.679688 -11.867188 11.65625 -11.832031 11.625 -11.8125 C 11.582031 -11.757812 11.535156 -11.722656 11.484375 -11.703125 C 11.410156 -11.679688 11.351562 -11.65625 11.3125 -11.625 C 11.1875 -11.550781 11.1875 -11.394531 11.3125 -11.15625 C 11.550781 -10.59375 11.835938 -10.023438 12.171875 -9.453125 C 12.472656 -8.921875 12.585938 -8.347656 12.515625 -7.734375 C 12.328125 -6.222656 12.066406 -3.988281 11.734375 -1.03125 C 11.691406 -0.695312 11.632812 -0.492188 11.5625 -0.421875 C 11.46875 -0.359375 11.25 -0.3125 10.90625 -0.28125 C 10.050781 -0.257812 8.773438 -0.222656 7.078125 -0.171875 C 5.390625 -0.109375 4.128906 -0.0625 3.296875 -0.03125 C 2.148438 0.0078125 1.289062 0.03125 0.71875 0.03125 C 0.476562 0.03125 0.320312 -0.015625 0.25 -0.109375 C 0.15625 -0.179688 0.109375 -0.335938 0.109375 -0.578125 C 0.109375 -0.835938 0.109375 -1.226562 0.109375 -1.75 C 0.0859375 -2.25 0.0625 -2.628906 0.03125 -2.890625 C 0.03125 -3.253906 0.195312 -3.472656 0.53125 -3.546875 C 0.863281 -3.566406 1.03125 -3.769531 1.03125 -4.15625 C 1.03125 -4.226562 1.046875 -4.332031 1.078125 -4.46875 C 1.078125 -4.613281 1.078125 -4.722656 1.078125 -4.796875 C 1.210938 -10.140625 1.332031 -14.144531 1.4375 -16.8125 C 1.4375 -17.101562 1.445312 -17.414062 1.46875 -17.75 C 1.46875 -18.082031 1.476562 -18.453125 1.5 -18.859375 C 1.519531 -19.265625 1.53125 -19.570312 1.53125 -19.78125 C 1.5625 -20.09375 1.53125 -20.320312 1.4375 -20.46875 C 1.3125 -20.613281 1.09375 -20.6875 0.78125 -20.6875 C 0.664062 -20.6875 0.582031 -20.695312 0.53125 -20.71875 C 0.289062 -20.757812 0.148438 -20.816406 0.109375 -20.890625 C 0.0351562 -20.941406 0 -21.078125 0 -21.296875 C 0.0507812 -22.390625 0.0976562 -23.195312 0.140625 -23.71875 C 0.160156 -23.957031 0.222656 -24.113281 0.328125 -24.1875 C 0.390625 -24.257812 0.554688 -24.285156 0.828125 -24.265625 C 2.492188 -24.160156 3.734375 -24.078125 4.546875 -24.015625 C 5.210938 -23.960938 6.222656 -23.890625 7.578125 -23.796875 C 8.921875 -23.703125 9.9375 -23.628906 10.625 -23.578125 C 10.695312 -23.578125 10.816406 -23.578125 10.984375 -23.578125 C 11.148438 -23.554688 11.28125 -23.546875 11.375 -23.546875 C 11.613281 -23.492188 11.757812 -23.347656 11.8125 -23.109375 C 11.832031 -22.921875 11.84375 -22.625 11.84375 -22.21875 Z M 4.65625 -7.234375 L 4.65625 -4.265625 C 4.675781 -3.878906 4.851562 -3.6875 5.1875 -3.6875 C 6.382812 -3.726562 7.289062 -3.765625 7.90625 -3.796875 C 8.257812 -3.796875 8.453125 -3.972656 8.484375 -4.328125 C 8.503906 -4.472656 8.550781 -4.785156 8.625 -5.265625 C 8.664062 -5.734375 8.710938 -6.101562 8.765625 -6.375 C 8.953125 -7.414062 8.796875 -8.320312 8.296875 -9.09375 C 8.160156 -9.332031 7.972656 -9.710938 7.734375 -10.234375 C 7.492188 -10.679688 7.3125 -10.941406 7.1875 -11.015625 C 7.070312 -11.066406 6.785156 -11.046875 6.328125 -10.953125 C 6.160156 -10.953125 6.039062 -10.9375 5.96875 -10.90625 C 5.394531 -10.84375 5.0625 -10.75 4.96875 -10.625 C 4.851562 -10.507812 4.796875 -10.148438 4.796875 -9.546875 C 4.722656 -8.003906 4.675781 -7.234375 4.65625 -7.234375 Z M 5.046875 -14.5625 C 5.492188 -14.539062 5.800781 -14.539062 5.96875 -14.5625 C 6.132812 -14.5625 6.421875 -14.597656 6.828125 -14.671875 C 7.234375 -14.742188 7.519531 -14.789062 7.6875 -14.8125 C 7.925781 -14.832031 8.082031 -14.894531 8.15625 -15 C 8.226562 -15.0625 8.265625 -15.226562 8.265625 -15.5 L 8.265625 -19.46875 C 8.265625 -19.75 8.226562 -19.9375 8.15625 -20.03125 C 8.0625 -20.132812 7.882812 -20.1875 7.625 -20.1875 C 7.382812 -20.1875 7.132812 -20.195312 6.875 -20.21875 C 6.601562 -20.238281 6.410156 -20.257812 6.296875 -20.28125 C 6.148438 -20.3125 6.007812 -20.328125 5.875 -20.328125 C 5.707031 -20.296875 5.597656 -20.296875 5.546875 -20.328125 C 5.472656 -20.328125 5.398438 -20.289062 5.328125 -20.21875 C 5.234375 -20.125 5.1875 -20.0625 5.1875 -20.03125 C 5.164062 -20.007812 5.140625 -19.914062 5.109375 -19.75 C 5.085938 -19.582031 5.078125 -19.453125 5.078125 -19.359375 C 5.078125 -19.234375 5.078125 -19.03125 5.078125 -18.75 C 5.054688 -18.4375 5.046875 -18.175781 5.046875 -17.96875 Z M 5.046875 -14.5625 "/></g></g></g><g fill="#ffc700" fill-opacity="1"><g transform="translate(142.88771, 182.342032)"><g><path d="M 12.734375 -14.8125 C 12.785156 -11.945312 12.8125 -9.488281 12.8125 -7.4375 C 12.832031 -7.320312 12.84375 -7.144531 12.84375 -6.90625 C 12.84375 -6.59375 12.804688 -6.390625 12.734375 -6.296875 C 12.640625 -6.203125 12.4375 -6.144531 12.125 -6.125 C 10.601562 -6.019531 9.472656 -5.945312 8.734375 -5.90625 C 5.722656 -5.757812 3.457031 -5.648438 1.9375 -5.578125 C 1.738281 -5.554688 1.4375 -5.546875 1.03125 -5.546875 C 0.65625 -5.546875 0.46875 -5.722656 0.46875 -6.078125 L 0.578125 -8.015625 C 0.648438 -9.234375 0.78125 -11.054688 0.96875 -13.484375 C 1.113281 -15.679688 1.207031 -17.378906 1.25 -18.578125 C 1.269531 -18.785156 1.28125 -19.09375 1.28125 -19.5 C 1.28125 -19.789062 1.128906 -19.945312 0.828125 -19.96875 C 0.535156 -20.007812 0.367188 -20.066406 0.328125 -20.140625 C 0.273438 -20.191406 0.238281 -20.335938 0.21875 -20.578125 C 0.125 -21.628906 0.0625 -22.414062 0.03125 -22.9375 C 0.0078125 -23.34375 0.210938 -23.554688 0.640625 -23.578125 C 0.953125 -23.597656 1.285156 -23.625 1.640625 -23.65625 C 1.972656 -23.675781 2.359375 -23.695312 2.796875 -23.71875 C 3.203125 -23.75 3.519531 -23.773438 3.75 -23.796875 C 4.632812 -23.835938 5.984375 -23.921875 7.796875 -24.046875 C 9.609375 -24.140625 10.957031 -24.210938 11.84375 -24.265625 C 12.15625 -24.285156 12.347656 -24.257812 12.421875 -24.1875 C 12.484375 -24.113281 12.515625 -23.921875 12.515625 -23.609375 C 12.617188 -19.742188 12.691406 -16.8125 12.734375 -14.8125 Z M 9.15625 -14.84375 L 9.015625 -14.84375 L 9.015625 -18.890625 C 9.015625 -19.148438 8.988281 -19.546875 8.9375 -20.078125 C 8.894531 -20.359375 8.742188 -20.476562 8.484375 -20.4375 L 5.359375 -20.21875 C 5.148438 -20.164062 5.035156 -20.046875 5.015625 -19.859375 C 5.015625 -19.785156 5 -19.664062 4.96875 -19.5 C 4.945312 -19.332031 4.9375 -19.203125 4.9375 -19.109375 C 4.882812 -18.316406 4.8125 -17.144531 4.71875 -15.59375 C 4.601562 -14.019531 4.519531 -12.84375 4.46875 -12.0625 C 4.445312 -11.820312 4.425781 -11.472656 4.40625 -11.015625 C 4.375 -10.566406 4.359375 -10.222656 4.359375 -9.984375 C 4.359375 -9.722656 4.394531 -9.554688 4.46875 -9.484375 C 4.539062 -9.390625 4.707031 -9.34375 4.96875 -9.34375 C 5.738281 -9.382812 6.910156 -9.453125 8.484375 -9.546875 C 8.765625 -9.578125 8.953125 -9.640625 9.046875 -9.734375 C 9.117188 -9.804688 9.15625 -9.984375 9.15625 -10.265625 Z M 9.90625 -0.078125 C 9.03125 -0.117188 7.6875 -0.203125 5.875 -0.328125 C 4.03125 -0.421875 2.644531 -0.503906 1.71875 -0.578125 C 1.550781 -0.578125 1.320312 -0.597656 1.03125 -0.640625 C 0.820312 -0.640625 0.71875 -0.75 0.71875 -0.96875 C 0.757812 -2.207031 0.804688 -3.160156 0.859375 -3.828125 C 0.859375 -4.066406 1 -4.1875 1.28125 -4.1875 L 1.828125 -4.1875 C 3.328125 -4.09375 4.492188 -4.03125 5.328125 -4 C 5.921875 -3.957031 6.816406 -3.898438 8.015625 -3.828125 C 9.179688 -3.753906 10.0625 -3.707031 10.65625 -3.6875 L 11.953125 -3.578125 C 12.285156 -3.523438 12.488281 -3.46875 12.5625 -3.40625 C 12.632812 -3.332031 12.65625 -3.113281 12.625 -2.75 C 12.582031 -1.75 12.535156 -0.972656 12.484375 -0.421875 C 12.484375 -0.117188 12.316406 0.03125 11.984375 0.03125 C 11.742188 0.0078125 11.398438 -0.0234375 10.953125 -0.078125 C 10.472656 -0.0976562 10.125 -0.109375 9.90625 -0.109375 Z M 9.90625 -0.078125 "/></g></g></g><g fill="#ffc700" fill-opacity="1"><g transform="translate(156.449683, 182.342032)"><g><path d="M 9.234375 -0.5 C 9.140625 -0.71875 9.09375 -1.179688 9.09375 -1.890625 L 9.09375 -7.65625 C 9.132812 -8.539062 8.820312 -9.195312 8.15625 -9.625 C 8.039062 -9.71875 7.882812 -9.847656 7.6875 -10.015625 C 7.5 -10.179688 7.394531 -10.28125 7.375 -10.3125 C 7.039062 -10.644531 6.726562 -10.738281 6.4375 -10.59375 C 6.195312 -10.5 6.078125 -10.210938 6.078125 -9.734375 C 6.109375 -8.472656 6.144531 -6.597656 6.1875 -4.109375 C 6.207031 -3.441406 6.21875 -2.429688 6.21875 -1.078125 C 6.25 -0.859375 6.226562 -0.710938 6.15625 -0.640625 C 6.082031 -0.566406 5.9375 -0.507812 5.71875 -0.46875 C 5.289062 -0.414062 4.625 -0.34375 3.71875 -0.25 C 2.8125 -0.15625 2.144531 -0.0820312 1.71875 -0.03125 C 1.382812 0.0078125 1.207031 -0.117188 1.1875 -0.421875 C 1.039062 -1.566406 0.941406 -2.441406 0.890625 -3.046875 C 0.867188 -3.347656 1.035156 -3.550781 1.390625 -3.65625 C 1.460938 -3.675781 1.582031 -3.6875 1.75 -3.6875 C 1.894531 -3.664062 2.023438 -3.664062 2.140625 -3.6875 C 2.242188 -3.707031 2.328125 -3.765625 2.390625 -3.859375 C 2.492188 -3.953125 2.554688 -4.0625 2.578125 -4.1875 C 2.597656 -4.300781 2.597656 -4.457031 2.578125 -4.65625 C 2.554688 -4.84375 2.546875 -4.960938 2.546875 -5.015625 L 2.21875 -19.390625 C 2.21875 -19.441406 2.21875 -19.523438 2.21875 -19.640625 C 2.195312 -19.765625 2.1875 -19.863281 2.1875 -19.9375 C 2.1875 -20.238281 2.03125 -20.390625 1.71875 -20.390625 L 1.140625 -20.390625 C 0.878906 -20.390625 0.675781 -20.40625 0.53125 -20.4375 C 0.289062 -20.4375 0.148438 -20.566406 0.109375 -20.828125 C 0.0859375 -21.421875 0.0507812 -22.289062 0 -23.4375 C 0 -23.789062 0.191406 -23.984375 0.578125 -24.015625 C 0.765625 -24.035156 1.0625 -24.046875 1.46875 -24.046875 C 4.613281 -24.140625 6.972656 -24.222656 8.546875 -24.296875 C 9.046875 -24.296875 9.460938 -24.128906 9.796875 -23.796875 C 11.566406 -22.078125 12.894531 -20.8125 13.78125 -20 C 14.1875 -19.59375 14.316406 -19.128906 14.171875 -18.609375 C 13.691406 -16.796875 13.3125 -15.085938 13.03125 -13.484375 C 12.882812 -12.609375 12.429688 -12.117188 11.671875 -12.015625 C 11.359375 -11.972656 11.320312 -11.804688 11.5625 -11.515625 C 11.5625 -11.472656 11.582031 -11.453125 11.625 -11.453125 C 12.457031 -10.972656 12.828125 -10.066406 12.734375 -8.734375 C 12.691406 -8.734375 12.679688 -8.066406 12.703125 -6.734375 L 12.734375 -4.6875 C 12.734375 -4.226562 12.769531 -3.96875 12.84375 -3.90625 C 12.914062 -3.800781 13.15625 -3.726562 13.5625 -3.6875 C 14.113281 -3.664062 14.472656 -3.628906 14.640625 -3.578125 C 14.773438 -3.503906 14.867188 -3.363281 14.921875 -3.15625 C 14.941406 -2.914062 14.914062 -2.566406 14.84375 -2.109375 C 14.75 -1.421875 14.691406 -0.859375 14.671875 -0.421875 C 14.617188 -0.140625 14.472656 -0.0078125 14.234375 -0.03125 C 12.804688 -0.101562 11.140625 -0.257812 9.234375 -0.5 Z M 5.828125 -17.421875 C 5.898438 -17.421875 5.9375 -16.550781 5.9375 -14.8125 C 5.988281 -14.476562 6.164062 -14.347656 6.46875 -14.421875 C 6.78125 -14.515625 7.25 -14.644531 7.875 -14.8125 C 8.46875 -14.976562 8.921875 -15.097656 9.234375 -15.171875 C 9.546875 -15.242188 9.734375 -15.457031 9.796875 -15.8125 C 9.898438 -16.21875 10.046875 -16.851562 10.234375 -17.71875 C 10.304688 -18.050781 10.234375 -18.320312 10.015625 -18.53125 C 9.203125 -19.289062 8.609375 -19.863281 8.234375 -20.25 C 7.992188 -20.488281 7.71875 -20.597656 7.40625 -20.578125 L 6.875 -20.578125 C 6.375 -20.523438 6.070312 -20.460938 5.96875 -20.390625 C 5.875 -20.296875 5.828125 -20.007812 5.828125 -19.53125 Z M 5.828125 -17.421875 "/></g></g></g><g fill="#ffc700" fill-opacity="1"><g transform="translate(172.087098, 182.342032)"><g><path d="M 5.515625 -12.015625 L 5.515625 -5.328125 C 5.515625 -4.847656 5.523438 -4.492188 5.546875 -4.265625 C 5.546875 -4.085938 5.664062 -3.976562 5.90625 -3.9375 C 6.789062 -3.9375 7.789062 -3.992188 8.90625 -4.109375 C 9.125 -4.140625 9.253906 -4.296875 9.296875 -4.578125 L 9.515625 -7.484375 C 9.515625 -7.691406 9.539062 -8 9.59375 -8.40625 C 9.632812 -8.8125 9.65625 -9.109375 9.65625 -9.296875 C 9.6875 -9.609375 9.867188 -9.765625 10.203125 -9.765625 C 11.296875 -9.722656 12.09375 -9.675781 12.59375 -9.625 C 12.882812 -9.601562 13.078125 -9.546875 13.171875 -9.453125 C 13.242188 -9.347656 13.28125 -9.164062 13.28125 -8.90625 C 13.25 -8.757812 13.234375 -8.554688 13.234375 -8.296875 C 13.234375 -8.035156 13.222656 -7.847656 13.203125 -7.734375 C 13.148438 -7.109375 13.09375 -6.203125 13.03125 -5.015625 C 12.925781 -3.796875 12.863281 -2.898438 12.84375 -2.328125 L 12.734375 -1.140625 C 12.710938 -0.804688 12.507812 -0.617188 12.125 -0.578125 L 11.734375 -0.578125 C 9.421875 -0.429688 5.953125 -0.238281 1.328125 0 L 0.828125 0 C 0.535156 0 0.351562 -0.0351562 0.28125 -0.109375 C 0.1875 -0.179688 0.128906 -0.335938 0.109375 -0.578125 C 0.0546875 -1.335938 0.03125 -1.894531 0.03125 -2.25 C -0.0078125 -2.945312 0.015625 -3.351562 0.109375 -3.46875 C 0.203125 -3.59375 0.570312 -3.664062 1.21875 -3.6875 C 1.457031 -3.6875 1.613281 -3.734375 1.6875 -3.828125 C 1.75 -3.898438 1.796875 -4.066406 1.828125 -4.328125 L 1.828125 -18.921875 C 1.828125 -19.453125 1.789062 -19.765625 1.71875 -19.859375 C 1.625 -19.953125 1.335938 -20 0.859375 -20 C 0.546875 -20 0.351562 -20.046875 0.28125 -20.140625 C 0.1875 -20.210938 0.128906 -20.378906 0.109375 -20.640625 L 0 -23 C 0 -23.238281 0.046875 -23.410156 0.140625 -23.515625 C 0.210938 -23.578125 0.378906 -23.625 0.640625 -23.65625 C 1.066406 -23.675781 1.710938 -23.710938 2.578125 -23.765625 C 3.410156 -23.804688 4.039062 -23.835938 4.46875 -23.859375 C 7.882812 -24.054688 10.507812 -24.191406 12.34375 -24.265625 C 12.914062 -24.285156 13.25 -24.25 13.34375 -24.15625 C 13.4375 -24.0625 13.460938 -23.710938 13.421875 -23.109375 C 13.367188 -22.398438 13.269531 -21.351562 13.125 -19.96875 C 13.03125 -18.53125 12.890625 -17.085938 12.703125 -15.640625 C 12.679688 -15.378906 12.632812 -15.210938 12.5625 -15.140625 C 12.46875 -15.066406 12.300781 -15.039062 12.0625 -15.0625 C 11.5625 -15.082031 10.804688 -15.144531 9.796875 -15.25 C 9.460938 -15.269531 9.265625 -15.328125 9.203125 -15.421875 C 9.097656 -15.515625 9.070312 -15.726562 9.125 -16.0625 C 9.175781 -16.851562 9.269531 -17.941406 9.40625 -19.328125 C 9.4375 -19.441406 9.453125 -19.617188 9.453125 -19.859375 C 9.472656 -20.078125 9.445312 -20.234375 9.375 -20.328125 C 9.28125 -20.421875 9.132812 -20.457031 8.9375 -20.4375 C 8.269531 -20.40625 7.269531 -20.34375 5.9375 -20.25 C 5.695312 -20.226562 5.554688 -20.085938 5.515625 -19.828125 Z M 5.515625 -12.015625 "/></g></g></g><g fill="#ffc700" fill-opacity="1"><g transform="translate(186.257398, 182.342032)"><g><path d="M 0.25 -13.03125 C 0.363281 -13.03125 0.539062 -13.050781 0.78125 -13.09375 C 1.21875 -13.144531 1.46875 -13.207031 1.53125 -13.28125 C 1.601562 -13.320312 1.628906 -13.523438 1.609375 -13.890625 C 1.609375 -15.796875 1.570312 -17.738281 1.5 -19.71875 C 1.5 -20.070312 1.460938 -20.296875 1.390625 -20.390625 C 1.316406 -20.460938 1.09375 -20.546875 0.71875 -20.640625 C 0.382812 -20.710938 0.191406 -20.785156 0.140625 -20.859375 C 0.0664062 -20.929688 0.03125 -21.144531 0.03125 -21.5 C 0.03125 -22.382812 0.046875 -23.039062 0.078125 -23.46875 C 0.0976562 -23.832031 0.164062 -24.0625 0.28125 -24.15625 C 0.375 -24.25 0.601562 -24.296875 0.96875 -24.296875 C 3.0625 -24.242188 4.613281 -24.21875 5.625 -24.21875 L 13.125 -24.015625 L 13.53125 -24.015625 C 13.789062 -23.984375 13.96875 -23.929688 14.0625 -23.859375 C 14.132812 -23.765625 14.160156 -23.597656 14.140625 -23.359375 C 14.109375 -23.054688 14.082031 -22.601562 14.0625 -22 C 14.007812 -21.382812 13.972656 -20.921875 13.953125 -20.609375 C 13.910156 -20.015625 13.835938 -19.117188 13.734375 -17.921875 C 13.617188 -16.703125 13.535156 -15.796875 13.484375 -15.203125 C 13.460938 -14.941406 13.414062 -14.773438 13.34375 -14.703125 C 13.25 -14.628906 13.082031 -14.609375 12.84375 -14.640625 L 10.59375 -14.734375 C 10.226562 -14.765625 10.015625 -14.835938 9.953125 -14.953125 C 9.847656 -15.046875 9.8125 -15.285156 9.84375 -15.671875 C 9.976562 -17.390625 10.082031 -18.664062 10.15625 -19.5 C 10.15625 -19.550781 10.171875 -19.625 10.203125 -19.71875 C 10.203125 -19.8125 10.203125 -19.867188 10.203125 -19.890625 C 10.203125 -20.222656 10.054688 -20.40625 9.765625 -20.4375 C 9.691406 -20.457031 9.597656 -20.46875 9.484375 -20.46875 C 9.078125 -20.46875 8.46875 -20.476562 7.65625 -20.5 C 6.820312 -20.5 6.203125 -20.5 5.796875 -20.5 C 5.554688 -20.5 5.398438 -20.460938 5.328125 -20.390625 C 5.234375 -20.296875 5.1875 -20.128906 5.1875 -19.890625 C 5.238281 -18.128906 5.265625 -16.804688 5.265625 -15.921875 C 5.285156 -15.660156 5.296875 -15.265625 5.296875 -14.734375 C 5.296875 -14.210938 5.304688 -13.820312 5.328125 -13.5625 C 5.328125 -13.300781 5.375 -13.132812 5.46875 -13.0625 C 5.539062 -12.96875 5.707031 -12.921875 5.96875 -12.921875 C 6.238281 -12.890625 6.660156 -12.875 7.234375 -12.875 C 7.773438 -12.875 8.191406 -12.863281 8.484375 -12.84375 C 8.859375 -12.820312 9.046875 -12.628906 9.046875 -12.265625 C 9.046875 -11.703125 9.023438 -10.867188 8.984375 -9.765625 C 8.953125 -9.503906 8.90625 -9.335938 8.84375 -9.265625 C 8.738281 -9.191406 8.554688 -9.15625 8.296875 -9.15625 C 8.054688 -9.15625 7.6875 -9.171875 7.1875 -9.203125 C 6.6875 -9.203125 6.304688 -9.203125 6.046875 -9.203125 C 5.660156 -9.203125 5.46875 -9.019531 5.46875 -8.65625 C 5.5 -7.675781 5.535156 -6.1875 5.578125 -4.1875 C 5.578125 -3.800781 5.757812 -3.609375 6.125 -3.609375 L 9.453125 -3.609375 C 9.679688 -3.609375 9.832031 -3.644531 9.90625 -3.71875 C 9.957031 -3.769531 10.003906 -3.914062 10.046875 -4.15625 C 10.078125 -4.363281 10.128906 -4.671875 10.203125 -5.078125 C 10.273438 -5.484375 10.320312 -5.78125 10.34375 -5.96875 C 10.363281 -6.28125 10.539062 -6.425781 10.875 -6.40625 C 11.1875 -6.351562 11.648438 -6.28125 12.265625 -6.1875 C 12.867188 -6.09375 13.320312 -6.019531 13.625 -5.96875 C 13.894531 -5.925781 14.003906 -5.773438 13.953125 -5.515625 C 13.859375 -4.679688 13.773438 -4.023438 13.703125 -3.546875 C 13.515625 -2.203125 13.359375 -1.195312 13.234375 -0.53125 C 13.191406 -0.269531 13.132812 -0.117188 13.0625 -0.078125 C 12.988281 -0.00390625 12.820312 0.046875 12.5625 0.078125 L 1.4375 0.078125 C 1.03125 0.078125 0.726562 0.0625 0.53125 0.03125 C 0.25 0.03125 0.109375 -0.109375 0.109375 -0.390625 C 0.0859375 -0.773438 0.078125 -1.347656 0.078125 -2.109375 C 0.078125 -2.179688 0.0625 -2.328125 0.03125 -2.546875 C 0.0078125 -2.734375 0.0078125 -2.898438 0.03125 -3.046875 C 0.0625 -3.160156 0.109375 -3.28125 0.171875 -3.40625 C 0.273438 -3.519531 0.394531 -3.585938 0.53125 -3.609375 C 0.675781 -3.640625 0.84375 -3.640625 1.03125 -3.609375 C 1.195312 -3.585938 1.332031 -3.585938 1.4375 -3.609375 C 1.664062 -3.640625 1.804688 -3.785156 1.859375 -4.046875 L 1.859375 -4.9375 C 1.859375 -5.75 1.832031 -6.941406 1.78125 -8.515625 C 1.78125 -8.898438 1.75 -9.140625 1.6875 -9.234375 C 1.613281 -9.304688 1.382812 -9.363281 1 -9.40625 C 0.757812 -9.40625 0.582031 -9.421875 0.46875 -9.453125 C 0.175781 -9.453125 0.03125 -9.582031 0.03125 -9.84375 C 0.03125 -11.4375 0.101562 -12.5 0.25 -13.03125 Z M 0.25 -13.03125 "/></g></g></g><g fill="#ffc700" fill-opacity="1"><g transform="translate(201.14337, 182.342032)"><g><path d="M 7.40625 -0.25 C 6.644531 -0.226562 5.035156 -0.15625 2.578125 -0.03125 C 2.484375 -0.03125 2.351562 -0.03125 2.1875 -0.03125 C 1.988281 -0.0078125 1.84375 0 1.75 0 C 1.375 -0.0195312 1.1875 -0.210938 1.1875 -0.578125 C 1.132812 -1.765625 1.109375 -2.671875 1.109375 -3.296875 C 1.109375 -3.597656 1.273438 -3.75 1.609375 -3.75 C 1.660156 -3.75 1.734375 -3.765625 1.828125 -3.796875 C 1.921875 -3.796875 1.976562 -3.796875 2 -3.796875 C 2.257812 -3.867188 2.390625 -4.035156 2.390625 -4.296875 L 2.390625 -5.078125 L 1.859375 -17.109375 C 1.859375 -17.722656 1.820312 -18.351562 1.75 -19 C 1.675781 -19.550781 1.628906 -19.847656 1.609375 -19.890625 C 1.554688 -19.984375 1.484375 -20.046875 1.390625 -20.078125 C 1.296875 -20.097656 1.191406 -20.097656 1.078125 -20.078125 C 0.929688 -20.046875 0.820312 -20.03125 0.75 -20.03125 C 0.507812 -20.082031 0.378906 -20.191406 0.359375 -20.359375 C 0.335938 -20.691406 0.289062 -21.179688 0.21875 -21.828125 C 0.125 -22.472656 0.0625 -22.960938 0.03125 -23.296875 C -0.0078125 -23.554688 0.117188 -23.710938 0.421875 -23.765625 C 2.335938 -23.992188 3.769531 -24.160156 4.71875 -24.265625 C 5.082031 -24.328125 5.285156 -24.160156 5.328125 -23.765625 C 5.347656 -23.566406 5.359375 -23.289062 5.359375 -22.9375 L 6.015625 -7.265625 C 6.035156 -6.671875 6.09375 -5.773438 6.1875 -4.578125 C 6.207031 -4.316406 6.253906 -4.148438 6.328125 -4.078125 C 6.398438 -4.003906 6.566406 -3.96875 6.828125 -3.96875 C 8.117188 -3.988281 9.96875 -4.050781 12.375 -4.15625 L 13.453125 -4.15625 C 13.691406 -4.15625 13.8125 -4.046875 13.8125 -3.828125 C 13.863281 -3.140625 13.910156 -2.148438 13.953125 -0.859375 C 13.953125 -0.597656 13.757812 -0.46875 13.375 -0.46875 C 12.800781 -0.4375 11.96875 -0.398438 10.875 -0.359375 C 9.757812 -0.304688 8.925781 -0.269531 8.375 -0.25 Z M 7.40625 -0.25 "/></g></g></g><g fill="#ffc700" fill-opacity="1"><g transform="translate(215.814637, 182.342032)"><g><path d="M 7.40625 -0.25 C 6.644531 -0.226562 5.035156 -0.15625 2.578125 -0.03125 C 2.484375 -0.03125 2.351562 -0.03125 2.1875 -0.03125 C 1.988281 -0.0078125 1.84375 0 1.75 0 C 1.375 -0.0195312 1.1875 -0.210938 1.1875 -0.578125 C 1.132812 -1.765625 1.109375 -2.671875 1.109375 -3.296875 C 1.109375 -3.597656 1.273438 -3.75 1.609375 -3.75 C 1.660156 -3.75 1.734375 -3.765625 1.828125 -3.796875 C 1.921875 -3.796875 1.976562 -3.796875 2 -3.796875 C 2.257812 -3.867188 2.390625 -4.035156 2.390625 -4.296875 L 2.390625 -5.078125 L 1.859375 -17.109375 C 1.859375 -17.722656 1.820312 -18.351562 1.75 -19 C 1.675781 -19.550781 1.628906 -19.847656 1.609375 -19.890625 C 1.554688 -19.984375 1.484375 -20.046875 1.390625 -20.078125 C 1.296875 -20.097656 1.191406 -20.097656 1.078125 -20.078125 C 0.929688 -20.046875 0.820312 -20.03125 0.75 -20.03125 C 0.507812 -20.082031 0.378906 -20.191406 0.359375 -20.359375 C 0.335938 -20.691406 0.289062 -21.179688 0.21875 -21.828125 C 0.125 -22.472656 0.0625 -22.960938 0.03125 -23.296875 C -0.0078125 -23.554688 0.117188 -23.710938 0.421875 -23.765625 C 2.335938 -23.992188 3.769531 -24.160156 4.71875 -24.265625 C 5.082031 -24.328125 5.285156 -24.160156 5.328125 -23.765625 C 5.347656 -23.566406 5.359375 -23.289062 5.359375 -22.9375 L 6.015625 -7.265625 C 6.035156 -6.671875 6.09375 -5.773438 6.1875 -4.578125 C 6.207031 -4.316406 6.253906 -4.148438 6.328125 -4.078125 C 6.398438 -4.003906 6.566406 -3.96875 6.828125 -3.96875 C 8.117188 -3.988281 9.96875 -4.050781 12.375 -4.15625 L 13.453125 -4.15625 C 13.691406 -4.15625 13.8125 -4.046875 13.8125 -3.828125 C 13.863281 -3.140625 13.910156 -2.148438 13.953125 -0.859375 C 13.953125 -0.597656 13.757812 -0.46875 13.375 -0.46875 C 12.800781 -0.4375 11.96875 -0.398438 10.875 -0.359375 C 9.757812 -0.304688 8.925781 -0.269531 8.375 -0.25 Z M 7.40625 -0.25 "/></g></g></g><g fill="#ffc700" fill-opacity="1"><g transform="translate(230.485904, 182.342032)"><g><path d="M 0.25 -13.03125 C 0.363281 -13.03125 0.539062 -13.050781 0.78125 -13.09375 C 1.21875 -13.144531 1.46875 -13.207031 1.53125 -13.28125 C 1.601562 -13.320312 1.628906 -13.523438 1.609375 -13.890625 C 1.609375 -15.796875 1.570312 -17.738281 1.5 -19.71875 C 1.5 -20.070312 1.460938 -20.296875 1.390625 -20.390625 C 1.316406 -20.460938 1.09375 -20.546875 0.71875 -20.640625 C 0.382812 -20.710938 0.191406 -20.785156 0.140625 -20.859375 C 0.0664062 -20.929688 0.03125 -21.144531 0.03125 -21.5 C 0.03125 -22.382812 0.046875 -23.039062 0.078125 -23.46875 C 0.0976562 -23.832031 0.164062 -24.0625 0.28125 -24.15625 C 0.375 -24.25 0.601562 -24.296875 0.96875 -24.296875 C 3.0625 -24.242188 4.613281 -24.21875 5.625 -24.21875 L 13.125 -24.015625 L 13.53125 -24.015625 C 13.789062 -23.984375 13.96875 -23.929688 14.0625 -23.859375 C 14.132812 -23.765625 14.160156 -23.597656 14.140625 -23.359375 C 14.109375 -23.054688 14.082031 -22.601562 14.0625 -22 C 14.007812 -21.382812 13.972656 -20.921875 13.953125 -20.609375 C 13.910156 -20.015625 13.835938 -19.117188 13.734375 -17.921875 C 13.617188 -16.703125 13.535156 -15.796875 13.484375 -15.203125 C 13.460938 -14.941406 13.414062 -14.773438 13.34375 -14.703125 C 13.25 -14.628906 13.082031 -14.609375 12.84375 -14.640625 L 10.59375 -14.734375 C 10.226562 -14.765625 10.015625 -14.835938 9.953125 -14.953125 C 9.847656 -15.046875 9.8125 -15.285156 9.84375 -15.671875 C 9.976562 -17.390625 10.082031 -18.664062 10.15625 -19.5 C 10.15625 -19.550781 10.171875 -19.625 10.203125 -19.71875 C 10.203125 -19.8125 10.203125 -19.867188 10.203125 -19.890625 C 10.203125 -20.222656 10.054688 -20.40625 9.765625 -20.4375 C 9.691406 -20.457031 9.597656 -20.46875 9.484375 -20.46875 C 9.078125 -20.46875 8.46875 -20.476562 7.65625 -20.5 C 6.820312 -20.5 6.203125 -20.5 5.796875 -20.5 C 5.554688 -20.5 5.398438 -20.460938 5.328125 -20.390625 C 5.234375 -20.296875 5.1875 -20.128906 5.1875 -19.890625 C 5.238281 -18.128906 5.265625 -16.804688 5.265625 -15.921875 C 5.285156 -15.660156 5.296875 -15.265625 5.296875 -14.734375 C 5.296875 -14.210938 5.304688 -13.820312 5.328125 -13.5625 C 5.328125 -13.300781 5.375 -13.132812 5.46875 -13.0625 C 5.539062 -12.96875 5.707031 -12.921875 5.96875 -12.921875 C 6.238281 -12.890625 6.660156 -12.875 7.234375 -12.875 C 7.773438 -12.875 8.191406 -12.863281 8.484375 -12.84375 C 8.859375 -12.820312 9.046875 -12.628906 9.046875 -12.265625 C 9.046875 -11.703125 9.023438 -10.867188 8.984375 -9.765625 C 8.953125 -9.503906 8.90625 -9.335938 8.84375 -9.265625 C 8.738281 -9.191406 8.554688 -9.15625 8.296875 -9.15625 C 8.054688 -9.15625 7.6875 -9.171875 7.1875 -9.203125 C 6.6875 -9.203125 6.304688 -9.203125 6.046875 -9.203125 C 5.660156 -9.203125 5.46875 -9.019531 5.46875 -8.65625 C 5.5 -7.675781 5.535156 -6.1875 5.578125 -4.1875 C 5.578125 -3.800781 5.757812 -3.609375 6.125 -3.609375 L 9.453125 -3.609375 C 9.679688 -3.609375 9.832031 -3.644531 9.90625 -3.71875 C 9.957031 -3.769531 10.003906 -3.914062 10.046875 -4.15625 C 10.078125 -4.363281 10.128906 -4.671875 10.203125 -5.078125 C 10.273438 -5.484375 10.320312 -5.78125 10.34375 -5.96875 C 10.363281 -6.28125 10.539062 -6.425781 10.875 -6.40625 C 11.1875 -6.351562 11.648438 -6.28125 12.265625 -6.1875 C 12.867188 -6.09375 13.320312 -6.019531 13.625 -5.96875 C 13.894531 -5.925781 14.003906 -5.773438 13.953125 -5.515625 C 13.859375 -4.679688 13.773438 -4.023438 13.703125 -3.546875 C 13.515625 -2.203125 13.359375 -1.195312 13.234375 -0.53125 C 13.191406 -0.269531 13.132812 -0.117188 13.0625 -0.078125 C 12.988281 -0.00390625 12.820312 0.046875 12.5625 0.078125 L 1.4375 0.078125 C 1.03125 0.078125 0.726562 0.0625 0.53125 0.03125 C 0.25 0.03125 0.109375 -0.109375 0.109375 -0.390625 C 0.0859375 -0.773438 0.078125 -1.347656 0.078125 -2.109375 C 0.078125 -2.179688 0.0625 -2.328125 0.03125 -2.546875 C 0.0078125 -2.734375 0.0078125 -2.898438 0.03125 -3.046875 C 0.0625 -3.160156 0.109375 -3.28125 0.171875 -3.40625 C 0.273438 -3.519531 0.394531 -3.585938 0.53125 -3.609375 C 0.675781 -3.640625 0.84375 -3.640625 1.03125 -3.609375 C 1.195312 -3.585938 1.332031 -3.585938 1.4375 -3.609375 C 1.664062 -3.640625 1.804688 -3.785156 1.859375 -4.046875 L 1.859375 -4.9375 C 1.859375 -5.75 1.832031 -6.941406 1.78125 -8.515625 C 1.78125 -8.898438 1.75 -9.140625 1.6875 -9.234375 C 1.613281 -9.304688 1.382812 -9.363281 1 -9.40625 C 0.757812 -9.40625 0.582031 -9.421875 0.46875 -9.453125 C 0.175781 -9.453125 0.03125 -9.582031 0.03125 -9.84375 C 0.03125 -11.4375 0.101562 -12.5 0.25 -13.03125 Z M 0.25 -13.03125 "/></g></g></g></svg>